<svg width="100" height="100" viewBox="0 0 100 100" fill="none" xmlns="http://www.w3.org/2000/svg">
<path d="M31.7612 51.7572C31.7309 51.742 31.8105 51.6051 31.7758 51.5704C31.6229 51.4175 31.6687 52.3216 31.7612 52.7314C31.8421 53.0896 32.5719 53.6725 32.4067 53.9C31.7612 54.7888 32.7434 54.4127 32.8926 55.1953C32.9534 55.5144 33.0116 55.7367 33.027 56.0009C33.0483 56.3662 32.4274 56.2019 32.5 56.5C32.5974 56.9 33.2642 57.5738 33.3215 57.8074C33.4284 58.2431 32.9235 57.9712 33.027 58.4258C33.0988 58.7407 33.8227 59.633 33.8842 59.8436C33.9738 60.1502 33.3865 60.5448 33.5 61.5C33.5488 61.9108 34.2209 61.493 34.3012 61.6959C34.4165 61.9869 34.5189 62.243 34.6265 62.4804C34.7841 62.8282 34.2403 63.9709 34.3012 64.2543C34.3838 64.6382 35.1316 64.4782 35.2159 64.7535C35.3002 65.0284 34.8846 66.264 35.004 66.5527C35.132 66.8623 35.7208 66.3074 35.7824 66.4991C35.8434 66.6888 35.9504 66.8663 36.134 67.1189C36.2623 67.2954 34.7384 67.2006 35.004 67.3081C35.2539 67.4092 37.5631 68.0004 38.0475 68.1648C38.4935 68.3162 39.0343 68.0842 39.3329 68.1718C39.7133 68.2834 40.0139 68.2523 40.3012 68.2908C40.6867 68.3424 40.9935 68.3598 41.3304 68.4207C41.8304 68.5112 43.0986 68.742 43.6528 68.7577C44.301 68.7761 44.002 68.6427 44.3997 68.6202C44.6834 68.6041 44.671 68.8918 45.3065 68.9071C45.7132 68.9168 46.3428 68.9073 47.5142 68.9071C48.1491 68.9069 48.8857 68.9031 49.1268 68.9071C49.3309 68.9105 49.5741 68.8727 49.8614 68.8383C50.2399 68.7929 50.6378 68.7657 50.8987 68.7577C51.0527 68.753 51.6371 68.7961 52.5237 68.7733C53.5681 68.7465 53.9751 68.628 54.3923 68.5971C54.725 68.5724 55.0774 68.5435 55.441 68.5053C55.8346 68.4641 56.1713 68.4213 56.5243 68.3753C56.7975 68.3396 56.9915 68.329 57.446 68.2796C57.8087 68.2402 58.2067 68.2909 58.659 68.2718C59.4635 68.2379 59.7085 68.2298 60.045 68.1648C60.4755 68.0817 60.7115 68.0691 60.9449 68.0537C61.2105 68.0362 61.4233 68.008 61.6376 67.8477C61.9702 67.5989 62.7598 67.7543 63.1394 67.3987C63.8846 66.7003 63.5896 66.0043 63.7162 65.7162C63.8521 65.4072 64.1701 64.6453 64.4126 63.7279C64.5222 63.313 64.6307 62.6682 64.6657 62.2911C64.7056 61.8622 64.8071 61.2969 64.9519 60.5448C65.1761 59.3801 65.518 58.8959 65.6871 58.4258C65.7849 58.154 65.8932 57.7235 66.1383 57.0339C66.2167 56.8134 66.3375 56.5361 66.475 56.0404C66.6557 55.3886 66.6827 54.9122 66.7168 54.604C66.7825 54.0103 66.8969 53.4967 66.9273 53.1952C67.0085 52.3907 67.3862 51.6903 67.467 51.3534C67.5353 51.0682 67.6613 50.5982 67.7426 50.2659C67.8067 50.004 67.8919 49.6236 67.9416 49.2486C67.98 48.9587 67.9001 48.7432 67.6558 48.3455C67.4794 48.0583 66.9849 47.9317 66.6375 47.8276C66.4205 47.7625 66.2092 47.709 65.865 47.6058C65.626 47.5341 65.1024 47.388 64.4733 47.2462C63.917 47.1208 63.34 47.0888 62.8896 47.0887C62.0037 47.0884 61.5478 47.2644 60.7274 47.4019C60.033 47.5182 59.5891 47.7384 58.8208 48.0596C58.6124 48.1468 58.2432 48.2815 57.6399 48.4994C56.7434 48.8232 56.2599 48.6881 55.8381 48.6809C55.5005 48.6751 55.1495 48.6505 54.7939 48.5892C53.8895 48.4332 53.4658 48.4971 53.1968 48.421C52.8578 48.325 52.4403 48.0466 52.0113 47.8967C51.7503 47.8056 51.5432 47.7625 51.0953 47.675C50.7026 47.5983 49.9654 47.5042 49.5186 47.4495C48.5291 47.3285 47.8772 47.517 47.5142 47.6127C47.2534 47.6814 46.5353 47.9662 46.0515 48.2172C45.8628 48.3151 45.7036 48.504 45.3065 48.7066C44.589 49.0728 44.0443 49.2305 43.6528 49.3807C43.3387 49.5012 43.0624 49.515 42.8114 49.5303C41.7344 49.5958 41.1188 49.4542 40.6987 49.2939C39.9922 49.0243 39.6414 48.926 39.3887 48.8838C39.1712 48.8474 38.9452 48.7731 38.1279 48.5668C37.8108 48.4867 37.4692 48.3979 37.1081 48.3252C36.6933 48.2417 36.4266 48.1756 36.1169 48.2175C35.7627 48.2654 35.5003 48.2596 35.004 48.4008C34.617 48.5108 34.3453 48.5807 34.0842 48.7261C33.797 48.8862 33.4948 49.1469 33.3681 49.365C33.2476 49.5725 33.2266 49.9414 33.2412 50.3595C33.2535 50.7133 33.7602 50.9224 34.0289 51.2245C34.1901 51.4057 34.3272 51.7027 34.5865 52.0876C34.9392 52.6111 35.1316 53.1034 35.2194 53.3785C35.289 53.5966 35.4145 53.8155 35.5899 54.1773C35.8551 54.7245 36.0342 55.542 36.21 56.2953C36.3115 56.7305 36.501 57.2344 36.6807 57.9145C36.7599 58.2144 36.7922 58.428 36.8724 59.1056C36.9525 59.7832 37.0737 60.9199 37.1589 61.5888C37.2441 62.2577 37.2896 62.4244 37.4646 62.8816C37.6395 63.3388 37.9426 64.0814 38.1367 64.5132C38.4796 65.2763 38.9346 65.5262 39.2451 65.6843C39.347 65.7362 39.4561 65.7115 39.5668 65.6697C39.7086 65.6161 39.7778 65.4442 39.8313 65.3106C39.8571 65.2461 39.8697 65.1845 39.8358 64.4788C39.8019 63.7732 39.7186 62.4244 39.2967 60.2102C38.8749 57.996 38.1172 54.9574 37.723 53.339C37.3288 51.7206 37.3213 51.6145 37.3212 51.4613C37.3206 50.7093 37.5119 50.1293 37.6763 49.8414C37.7781 49.6631 37.9406 49.5538 38.0475 49.4736C38.1445 49.4007 38.2772 49.3926 38.4374 49.4154C38.6519 49.4458 38.8132 49.5683 38.92 49.656C39.0389 49.7535 39.3468 50.3215 39.9078 51.4883C40.2268 52.1519 40.5218 53.0037 40.9169 55.0056C41.3119 57.0075 41.7742 60.1446 42.1335 62.0601C42.4929 63.9755 42.7354 64.5741 42.883 64.9242C43.0674 65.3614 43.4185 65.883 43.9004 66.5527C44.0734 66.7931 44.1549 66.7905 44.2166 66.7792C44.3366 66.7573 44.439 66.6534 44.5535 66.5048C44.6228 66.4149 44.6831 66.2729 44.7751 65.6533C44.867 65.0336 44.9807 63.9349 44.8763 61.804C44.772 59.6732 44.4461 56.5436 44.2896 54.5412C44.1331 52.5387 44.1559 51.7582 44.1789 51.2955C44.2206 50.4596 44.4691 50.0223 44.8743 49.5016C44.9979 49.3426 45.1355 49.301 45.2841 49.2666C45.481 49.221 45.6636 49.2852 45.7744 49.369C45.8991 49.4633 45.9318 49.6673 46.3225 51.4077C46.6923 53.0551 47.3725 56.2626 47.8452 59.0164C48.3178 61.7702 48.5528 63.9753 48.7117 65.2514C48.9062 66.8135 49.0774 67.1802 49.2298 67.3557C49.4324 67.5892 49.6745 67.6707 49.8003 67.6899C49.9656 67.7153 50.1335 67.5492 50.2976 67.3548C50.5135 67.099 50.6844 66.61 50.8791 65.8022C50.9995 65.3027 51.0662 64.6003 50.9881 62.9454C50.9099 61.2905 50.6598 58.6989 50.4704 57.0267C50.2809 55.3544 50.1597 54.68 50.0859 53.9537C50.012 53.2274 49.9893 52.4696 50.0231 51.7572C50.0568 51.0448 50.1477 50.4007 50.24 49.9742C50.376 49.346 50.5549 49.1175 50.6426 49.0335C50.7366 48.9434 50.861 48.9182 50.9564 48.9066C51.0061 48.9006 51.0594 48.9329 51.1208 48.9787C51.1822 49.0245 51.2504 49.0927 51.4977 49.6772C51.745 50.2618 52.1694 51.3605 52.7593 54.1392C53.3492 56.9179 54.0918 61.3433 54.5047 63.6988C54.9175 66.0543 54.9782 66.2059 55.1193 66.4355C55.4561 66.9837 55.7747 67.326 55.9197 67.3987C56.0663 67.4721 56.2567 67.4034 56.4286 67.3081C56.6035 67.2111 56.7314 66.8771 56.9296 66.2334C57.0589 65.8137 57.1885 65.1882 57.2741 64.2543C57.3596 63.3204 57.3823 62.0928 57.2236 60.0813C57.0648 58.0697 56.7238 55.3115 56.5822 53.5041C56.4406 51.6967 56.5088 50.9238 56.5629 50.4498C56.679 49.4323 57.1132 48.8204 57.4885 48.4943C57.5741 48.42 57.6643 48.3832 57.7414 48.3636C57.8826 48.3276 58.0402 48.4199 58.2196 48.58C58.3227 48.672 58.4216 48.8158 58.5369 49.1816C58.6522 49.5474 58.7734 50.1385 58.8094 52.3639C58.8453 54.5893 58.7923 58.4312 58.8255 60.7665C58.8588 63.1018 58.9801 63.8141 59.1789 64.5637C59.3778 65.3133 59.6506 66.0787 59.8366 66.5222C60.0226 66.9657 60.1135 67.0642 60.2058 67.1112C60.2981 67.1581 60.3891 67.1505 60.4738 67.1163C60.6467 67.0465 60.9321 66.6332 61.428 65.1999C61.8012 64.1212 62.03 62.2131 62.3494 59.1839C62.6688 56.1547 62.9719 52.0324 63.1394 49.8671C63.3069 47.7019 63.3297 47.6185 63.3531 47.5327" stroke="#DBB993" stroke-width="5" stroke-linecap="round"/>
<path d="M59.6102 52.8829H59.6331" stroke="#BC8F5A" stroke-opacity="0.93" stroke-linecap="round"/>
<path d="M59.702 52.837L59.6791 52.8141" stroke="#BC8F5A" stroke-opacity="0.93" stroke-linecap="round"/>
<path d="M58.8524 58.6695C58.8524 58.662 58.8524 58.6544 58.8903 58.6391C58.9282 58.6238 59.004 58.6011 59.082 58.5777" stroke="#BC8F5A" stroke-opacity="0.93" stroke-linecap="round"/>
<path d="M33.7542 53.8933C33.7164 53.8933 33.6785 53.8933 33.6362 53.8971C33.594 53.9009 33.5485 53.9085 33.5364 53.9503C33.5244 53.992 33.5471 54.0678 33.5705 54.1459" stroke="#BC8F5A" stroke-opacity="0.93" stroke-linecap="round"/>
<path d="M53.7547 63.1013C53.7471 63.1089 53.7395 63.1165 53.7584 63.0863C53.7772 63.0561 53.8227 62.9879 53.8695 62.8947" stroke="#BC8F5A" stroke-opacity="0.93" stroke-linecap="round"/>
<path d="M37.0838 64.6398C37.0687 64.6322 37.0535 64.6247 37.0154 64.617C36.9773 64.6093 36.9167 64.6017 36.7853 64.6857" stroke="#BC8F5A" stroke-opacity="0.93" stroke-linecap="round"/>
<path d="M46.7281 50.6785L46.7052 50.7015" stroke="#BC8F5A" stroke-opacity="0.93" stroke-linecap="round"/>
<path d="M51.2747 68.8879C51.2747 68.8955 51.2747 68.9031 51.2785 68.8804C51.2823 68.8578 51.2899 68.8048 51.3666 68.6583" stroke="#BC8F5A" stroke-opacity="0.93" stroke-linecap="round"/>
<path d="M59.6102 68.0153C59.5799 68.0456 59.5495 68.0759 59.5036 68.0991C59.4577 68.1223 59.3971 68.1375 59.3346 68.1531" stroke="#BC8F5A" stroke-opacity="0.93" stroke-linecap="round"/>
<path d="M61.9983 62.8947L61.9753 62.9176" stroke="#BC8F5A" stroke-opacity="0.93" stroke-linecap="round"/>
<path d="M66.9352 55.2711L66.8664 55.2022" stroke="#BC8F5A" stroke-opacity="0.93" stroke-linecap="round"/>
<path d="M52.2851 57.2688C52.2699 57.2688 52.2548 57.2688 52.2242 57.2423C52.1937 57.2158 52.1482 57.1627 52.1014 57.1081" stroke="#BC8F5A" stroke-opacity="0.93" stroke-linecap="round"/>
<path d="M37.1527 57.6592C37.1376 57.6667 37.1224 57.6743 37.0994 57.7048C37.0765 57.7352 37.0462 57.7882 37.0149 57.8429" stroke="#BC8F5A" stroke-opacity="0.93" stroke-linecap="round"/>
<path d="M44.2941 59.4962C44.2411 59.5038 44.188 59.5113 44.138 59.5266C44.0879 59.5419 44.0424 59.5646 43.9956 59.588" stroke="#BC8F5A" stroke-opacity="0.93" stroke-linecap="round"/>
<path d="M42.5489 68.3827L42.5719 68.4057" stroke="#BC8F5A" stroke-opacity="0.93" stroke-linecap="round"/>
<path d="M47.394 64.7087V64.7317" stroke="#8B4D06" stroke-opacity="0.92" stroke-linecap="round"/>
<path d="M38.1401 60.8739C38.1401 60.8664 38.1401 60.8588 38.1439 60.8132C38.1477 60.7676 38.1553 60.6843 38.1401 60.5754" stroke="#8B4D06" stroke-opacity="0.92" stroke-linecap="round"/>
<path d="M36.326 66.8213L36.1423 66.9131" stroke="#8B4D06" stroke-opacity="0.92" stroke-linecap="round"/>
<path d="M33.5476 60.1621L33.5017 60.1391" stroke="#8B4D06" stroke-opacity="0.92" stroke-linecap="round"/>
<path d="M37.2675 49.9437L37.1986 49.8289" stroke="#8B4D06" stroke-opacity="0.92" stroke-linecap="round"/>
<path d="M57.4058 61.9532V61.9991" stroke="#8B4D06" stroke-opacity="0.92" stroke-linecap="round"/>
<path d="M64.7308 59.1517L64.6619 59.1977" stroke="#8B4D06" stroke-opacity="0.92" stroke-linecap="round"/>
<path d="M64.2716 49.3926L64.0879 49.2089" stroke="#8B4D06" stroke-opacity="0.92" stroke-linecap="round"/>
<path d="M47.2563 54.72L47.1644 54.6511" stroke="#8B4D06" stroke-opacity="0.92" stroke-linecap="round"/>
<path d="M33.9609 47.4638L33.9379 47.4408" stroke="#8B4D06" stroke-opacity="0.92" stroke-linecap="round"/>
<path d="M50.7236 46.8208L50.7466 46.7749" stroke="#8B4D06" stroke-opacity="0.92" stroke-linecap="round"/>
<path d="M39.2882 69.1175C39.2655 69.1251 39.2428 69.1327 39.2083 69.1442C39.1739 69.1556 39.1284 69.1708 39.1275 69.1635" stroke="white" stroke-linecap="round"/>
<path d="M46.797 68.8649C46.797 68.8725 46.797 68.8801 46.8235 68.8802C46.8501 68.8803 46.9031 68.8727 46.9578 68.8649" stroke="white" stroke-linecap="round"/>
<path d="M51.0222 60.3228V60.2769" stroke="white" stroke-linecap="round"/>
<path d="M56.3265 53.7785C56.3189 53.7709 56.3114 53.7633 56.2923 53.7822C56.2732 53.801 56.2429 53.8465 56.2117 53.8933" stroke="white" stroke-linecap="round"/>
<path d="M61.7227 65.6502L61.6538 65.4894" stroke="white" stroke-linecap="round"/>
<path d="M55.3391 67.0509C55.3315 67.0509 55.324 67.0509 55.2935 67.0547C55.2631 67.0585 55.2101 67.066 55.1784 67.1198" stroke="white" stroke-linecap="round"/>
<path d="M62.6872 56.3733L62.5494 56.3962" stroke="white" stroke-linecap="round"/>
<path d="M42.6867 55.294C42.6791 55.2864 42.6716 55.2789 42.6449 55.2825C42.6183 55.2862 42.5728 55.3014 42.5489 55.3399" stroke="white" stroke-linecap="round"/>
<path d="M43.3526 64.4332L43.3067 64.4791" stroke="white" stroke-linecap="round"/>
<path d="M33.5935 56.8784L33.6394 56.8325" stroke="white" stroke-linecap="round"/>
<path d="M34.0528 63.3769C34.0452 63.3769 34.0376 63.3769 34.0148 63.3579C33.9919 63.339 33.954 63.3011 33.892 63.308" stroke="white" stroke-linecap="round"/>
<path d="M24.2108 26.0021C24.202 26.0109 24.1932 26.0197 24.1908 26.011C24.1885 26.0024 24.1929 25.9759 24.1952 25.9799C24.2547 26.0849 24.264 26.4182 24.2931 26.6869C24.3248 26.9795 24.3088 27.3101 24.3198 27.4462C24.3341 27.6244 24.3711 28.0646 24.36 28.4091C24.3433 28.9262 24.3488 29.0731 24.3687 29.1798C24.3956 29.3246 24.6865 29.2826 24.8623 29.345C25.0484 29.4112 25.194 29.4698 25.3143 29.4655C25.5 29.4588 25.6836 29.5721 25.9614 29.6233C26.2003 29.6673 26.4406 29.6525 26.5874 29.6724C26.7727 29.6974 27.0407 29.679 27.286 29.6925C27.5532 29.7072 27.9697 29.7321 28.2367 29.8168C28.3486 29.8523 28.6069 29.99 28.9869 30.1123C29.3826 30.2397 29.8602 30.2928 30.2306 30.3778C30.4541 30.4291 30.8765 30.5552 31.3325 30.6998C31.6499 30.8005 31.8002 30.7874 32.0046 30.8252C32.4714 30.9116 32.8408 31.0185 33.2438 31.1144C33.5005 31.1756 33.8994 31.2812 34.3198 31.3702C34.5315 31.415 34.9005 31.4814 35.4077 31.6014C35.6716 31.6639 35.8904 31.7311 36.1726 31.7866C36.4009 31.8315 36.8147 31.9532 37.3175 32.0689C37.669 32.1498 38.0797 32.2514 38.5612 32.3255C38.7583 32.3558 39.0858 32.4166 39.4883 32.4744C39.7387 32.5103 39.9373 32.5592 40.2344 32.6057C40.6669 32.6734 40.9884 32.7508 41.1415 32.764C41.3174 32.7793 41.769 32.8438 42.3275 32.915C42.565 32.9453 42.9355 32.9821 43.6347 33.0066C43.9988 33.0194 44.3824 32.9915 44.5998 32.9869C44.8567 32.9813 45.2458 32.9913 45.8416 32.9823C46.4335 32.9734 46.7609 33.0402 46.9427 33.0269C47.0706 33.0175 47.203 32.9913 47.4098 32.9646C47.5935 32.9408 47.7286 33.0089 47.7731 33.0068C47.8849 33.0016 47.8224 32.6547 47.8113 32.4531C47.8037 32.3149 47.7868 32.0319 47.7136 31.4133C47.6604 30.9639 47.6843 30.8016 47.6932 30.6303C47.7039 30.4259 47.7377 30.3294 47.7422 30.2783C47.7445 30.2534 47.7203 30.2316 47.6936 30.2181C47.4642 30.1016 46.8194 30.0978 46.5342 30.0665C46.4655 30.059 46.2087 30.0311 45.7051 29.9822C45.4269 29.9552 45.1001 29.9597 44.8153 29.9354C44.2943 29.8909 43.999 29.8172 43.8681 29.8017C43.7942 29.793 43.7064 29.773 43.2313 29.7441C42.7562 29.7152 41.8968 29.6755 41.28 29.633C40.6632 29.5906 40.315 29.5465 40.107 29.5172C39.841 29.4797 39.721 29.439 39.3631 29.3505C39.0684 29.2777 38.538 29.1739 38.1884 29.0973C37.6834 28.9866 37.4111 28.8917 37.0656 28.783C36.838 28.7114 36.491 28.6522 36.2544 28.6115C35.9006 28.5506 35.5867 28.5176 35.2775 28.4576C35.1125 28.4256 34.9318 28.3884 34.5595 28.3242C34.3228 28.2834 33.9933 28.2027 33.5851 28.1311C33.1768 28.0594 32.7008 27.9933 32.3653 27.935C32.0297 27.8767 31.849 27.8282 31.6348 27.7636C31.4205 27.699 31.1781 27.6196 30.899 27.5523C30.3159 27.4117 29.9538 27.3644 29.8078 27.3268C29.7021 27.2995 29.5296 27.2671 29.3154 27.2137C29.1013 27.1602 28.8501 27.0897 28.5091 27.0137C28.1682 26.9377 27.7451 26.8584 27.45 26.7933C26.9974 26.6935 26.7668 26.5989 26.6291 26.5412C26.3653 26.4306 26.0327 26.3584 25.863 26.3515C25.7785 26.3481 25.676 26.3847 25.5693 26.4467C25.3687 26.5635 25.3641 26.7802 25.3371 26.9342C25.3142 27.0649 25.3815 27.199 25.4591 27.4079C25.5491 27.6502 25.6526 27.7997 25.7751 27.9426C25.8725 28.0563 26.0132 28.0409 26.2767 28.063C27.1426 28.1359 27.2951 28.2011 27.5738 28.2652C27.7878 28.3143 28.1433 28.4217 28.6555 28.5423C29.1678 28.6628 29.8244 28.7994 30.3632 28.8962C30.902 28.9931 31.3031 29.046 31.578 29.0886C31.9911 29.1527 32.214 29.2292 32.4004 29.2958C32.6161 29.3729 32.7887 29.3853 32.9524 29.4184C33.27 29.4827 33.717 29.603 34.1483 29.6808C34.4278 29.7313 34.6884 29.7678 34.964 29.8477C35.3793 29.9682 35.6597 30.124 36.0426 30.2371C36.3153 30.3177 36.8342 30.429 37.1417 30.508C37.5353 30.6091 37.9056 30.7113 38.3529 30.8092C38.638 30.8716 39.0191 30.9429 39.3344 30.9989C39.5501 31.0372 39.6887 31.0991 39.8399 31.0793C40.0169 31.0561 40.2309 31.0903 40.4231 31.1014C40.5703 31.1099 40.7563 31.1347 40.9792 31.1327C41.3182 31.1296 41.5044 31.1259 41.685 31.1592C41.9199 31.2025 42.1316 31.2239 42.3151 31.235C42.5241 31.2476 42.8613 31.2728 43.1402 31.2662C43.6909 31.2533 43.9131 31.3529 44.0535 31.3596C44.2356 31.3684 44.6856 31.4242 44.9547 31.4131C45.3109 31.3984 45.7446 31.4816 46.0278 31.522C46.0945 31.5441 46.1968 31.5533 46.3191 31.5423C46.3708 31.5356 46.4017 31.5268 46.4468 31.5177" stroke="#970707" stroke-width="2" stroke-linecap="round"/>
<path d="M48.6211 29.8093C48.6405 29.8189 48.8788 29.9582 49.6595 29.9739C50.082 29.9824 50.3737 29.9188 50.782 29.9884C51.2569 30.0695 51.6588 30.0384 52.2864 30.0188C52.8425 30.0014 53.5729 29.7202 53.8474 29.6501C54.4393 29.4989 55.9888 29.2323 56.6177 29.1716C57.023 29.1325 57.6165 29.0625 58.4055 29.027C58.9434 29.0029 59.6819 29.0218 60.5025 28.898C61.1587 28.799 61.5751 28.6146 61.9498 28.4791C62.3298 28.3417 62.8315 28.4537 63.1209 28.4044C63.6044 28.322 64.0573 28.1356 64.7537 27.996C65.3084 27.8848 65.6719 27.8563 66.1252 27.8311C66.5805 27.8057 67.3331 27.6674 67.7704 27.6119C68.099 27.5702 68.6588 27.3881 69.3043 27.1691C69.6919 27.0376 70.0868 26.9097 70.6197 26.7652C71.081 26.6401 71.5225 26.5707 71.7719 26.5206C72.0996 26.4548 72.4392 26.4009 72.6889 26.3711C72.93 26.3424 73.1867 26.2717 73.4612 26.2216C73.7518 26.1686 74.1136 26.2113 74.3534 26.3206C74.5876 26.4273 74.5041 26.8278 74.5086 27.1769C74.5128 27.5074 74.5932 27.7451 74.6132 28.0591C74.6366 28.425 74.6631 28.901 74.7277 29.2251M74.7277 29.2251C74.7425 29.2992 74.7675 29.1798 74.7277 29.2251ZM74.7277 29.2251C74.5544 29.4225 73.9001 29.8076 73.4832 29.9485C73.1278 30.0687 72.801 30.1974 72.4321 30.2825C72.1066 30.3575 71.8042 30.3972 71.4654 30.4966C70.9594 30.6451 70.1753 30.3414 69.8465 30.4413C69.5109 30.5432 69.1467 30.536 68.5 30.6401C67.3774 30.8207 67.095 31.0621 66.5 31.1523C65.8307 31.2537 65.1044 31.3043 64.7537 31.3894C64.2412 31.5137 63.5594 31.5846 63.1209 31.7287C62.5791 31.9068 62.0779 31.8804 61.5 32C60.8044 32.1439 60.5953 32.3454 60 32.5C59.5474 32.6175 58.3299 32.3158 57.9064 32.4004C57.372 32.5072 57.4229 32.4803 57 32.5C56.3488 32.5304 56.3799 32.7242 56 32.7794C55.5195 32.8492 54.9634 32.9348 54.4119 33.0195C53.38 33.1778 52.5 33.3775 52.5 33C52.5 32.2835 53.1868 32.8953 52.153 33.0195C51.1149 33.1442 51.1936 33.0148 50.782 33C50.4965 32.9897 47.663 32.996 49.2485 33C50.8339 33.004 48.7311 33.0286 48.6211 32.7794C48.5126 32.5336 49.1694 32.5116 49.1344 32.2274C49.0814 31.7967 49.1688 31.4556 49.1941 31.1062C49.1999 31.026 49.2089 30.9569 49.2485 30.9262C49.4323 30.784 49.7554 31.144 50.1147 31.388C50.5297 31.6699 51.3281 31.8503 51.7096 32.1455C51.8681 32.2682 52.0089 32.3705 52.153 32.4004C52.4717 32.4665 52.7956 32.1923 53.1345 32.0721C53.492 31.9453 53.703 31.7038 53.8277 31.5546C53.8783 31.494 53.8438 31.4251 53.7991 31.3847C53.6035 31.2081 53.1878 31.3342 52.2478 31.2497C51.2388 31.1591 50.5851 31.8317 50.4854 31.9957C50.4384 32.073 50.4646 32.1696 50.5092 32.2548C50.6861 32.5931 51.1398 32.7185 51.5296 32.7794C52.2 32.884 52.7543 32.4022 53.2433 32.1427C54.0416 31.719 54.3802 31.5836 54.6299 31.5188C54.894 31.4504 55.2174 31.4538 55.5164 31.3894C56.0243 31.2799 56.3434 31.1853 56.7416 31.1497C57.5192 31.0803 57.9185 31.1153 59.1445 30.9811C60.0088 30.8865 60.5598 30.7365 61.2273 30.6078C61.7942 30.4985 62.8321 30.341 64.1354 30.0325C65.4387 29.7241 66.9779 29.2801 67.9237 28.9873C69.1853 28.5967 69.5893 28.4143 69.793 28.3794C70.6447 28.2338 71.8807 27.9359 72.2497 27.8812C72.5314 27.8394 72.8082 27.7959 73.0271 27.8604C73.1325 27.8914 73.2065 27.9741 73.252 28.0492C73.2976 28.1242 73.3075 28.2032 73.3027 28.2734C73.2835 28.5562 72.871 28.7719 72.0652 29.1103C71.2746 29.4424 70.4001 29.7484 69.8465 29.9185C69.3083 30.0839 68.8747 30.1574 67.7267 30.4413C67.1027 30.5956 66.5133 30.4869 65.5375 30.6401C64.8148 30.7536 63.6441 31.0203 62.8666 31.1523C61.7508 31.3417 60.9736 31.3832 60.2963 31.5176C59.6939 31.6372 58.5661 31.821 57.4447 32.2049C56.4007 32.5623 55.3902 32.5302 55.0852 32.431C54.7932 32.3361 54.7408 31.9633 54.6263 31.7287C54.57 31.6134 54.4717 31.4846 54.4119 31.3204C54.3653 31.1926 54.4113 31.0657 54.456 30.9464C54.5588 30.6722 55.087 30.6071 55.4614 30.4876C56.1403 30.271 57.0478 30.2578 57.9064 30.1092C58.8355 29.8195 59.6676 29.74 60.3545 29.6454C60.4895 29.6105 60.6375 29.5612 60.79 29.5104" stroke="#AD0909" stroke-width="2" stroke-linecap="round"/>
<path d="M47.9932 29.6001H47.9633" stroke="#AD0909" stroke-width="2" stroke-linecap="round"/>
<path d="M47.9633 29.6001C48.0228 29.6294 48.0632 29.8877 48.2019 30.4897C48.2818 30.8366 48.1235 31.3605 48.1473 31.8262C48.1638 32.149 48.1827 32.459 48.1874 32.7632C48.2318 32.9075 48.282 33.0378 48.3218 33.1571C48.3418 33.2172 48.3615 33.2764 48.4118 33.457" stroke="#AD0909" stroke-width="2" stroke-linecap="round"/>
<path d="M24.5224 21.1386C24.4827 21.2274 24.4232 22.2563 24.4525 22.9856C24.4759 23.5693 24.3831 23.8283 24.4027 24.0927C24.4076 24.1584 24.4226 24.217 24.4573 24.2673C24.6027 24.4779 24.9099 24.467 25.2288 24.4625C25.5194 24.4584 26.0533 24.5471 26.4499 24.6066C26.7826 24.6565 27.092 24.8551 27.8185 24.9703C28.4715 25.0739 29.2453 25.2049 29.5839 25.2047C30.0443 25.2045 30.3815 25.3843 30.8292 25.4438C31.2888 25.5049 31.7054 25.5631 32.1056 25.6978C32.3778 25.7894 32.762 25.9213 33.0776 26.0368C33.4672 26.1795 34.187 26.1611 34.7558 26.2908C35.507 26.4622 36.5401 26.5205 37.0829 26.575C37.5065 26.6176 38.0231 26.6 38.9001 26.7837C39.9271 26.9988 40.7122 26.9881 41.5822 27.0138C41.9555 27.0248 42.3297 27.1178 42.7942 27.2823C43.1489 27.4078 43.537 27.4174 44.5384 27.482C45.9691 27.5743 46.9659 27.4375 47.1299 27.4225C47.7586 27.3652 49.2316 27.5568 49.8602 27.5917C50.493 27.6269 51.0686 27.5669 51.4903 27.5421C51.7795 27.5251 52.0977 27.5071 52.5561 27.4575C52.8444 27.4263 53.2429 27.4772 53.5783 27.4524C53.7025 27.4432 54.7306 27.2796 56.3536 27.0205C57.3183 26.8665 57.9071 26.8697 58.5474 26.7951C60.0144 26.6242 60.4976 26.6903 61.0622 26.6749C61.4672 26.6638 62.0422 26.6604 62.4533 26.6351C62.5833 26.6271 63.0384 26.5904 63.8337 26.526C65.1897 26.4161 65.6516 26.1324 66.0856 26.0424C66.418 25.9734 66.9456 25.764 67.6544 25.6141C68.1796 25.5029 68.602 25.3843 68.9511 25.3297C69.3405 25.2688 69.6987 25.2049 70.6576 25.0213C71.3361 24.8914 71.7414 24.9161 72.1595 24.8811C72.866 24.822 73.3249 24.7672 73.6654 24.682C74.0232 24.5924 74.2039 24.3588 74.3933 23.9956C74.6103 23.5797 74.5238 23.2334 74.5284 22.6312C74.5334 21.9825 74.6231 21.5889 74.6232 21.2247C74.6234 20.8517 74.7427 20.6016 74.7678 20.3076C74.7912 20.0333 74.4646 19.8739 74.2356 19.6842C73.8755 19.386 73.21 19.2161 72.7761 19.0313C72.4761 18.9036 71.8867 18.788 71.4157 18.702C70.8452 18.5979 70.5084 18.4878 69.6491 18.3934C69.118 18.3351 68.7542 18.1987 68.4417 18.1541C67.9382 18.0823 66.9363 17.8019 65.8354 17.498C65.36 17.3667 64.8308 17.3516 64.0446 17.3266C63.4758 17.3086 62.7878 17.3217 61.8831 17.2523C60.9914 17.184 60.1167 16.9339 59.4145 16.7645C58.8927 16.6387 58.0165 16.5252 57.1857 16.3951C56.8798 16.3473 56.3458 16.2962 55.4892 16.2558C54.6326 16.2154 53.4683 16.1957 52.8241 16.1905C51.7232 16.1815 51.0244 16.2154 50.1494 16.235C49.7469 16.244 49.4301 16.2453 48.6598 16.1906C47.5631 16.1127 47.287 16.066 46.3725 16.0657C45.5817 16.0654 44.6882 16.2047 43.5919 16.2401C42.9332 16.2614 42.1742 16.2848 41.2501 16.3098C40.3384 16.3344 39.3087 16.4833 38.4989 16.5983C37.6266 16.7221 37.0011 16.9623 36.7236 17.0715C35.842 17.4182 35.1324 17.5298 34.2133 17.769C33.1277 18.0515 32.7267 18.1583 31.7072 18.4863C30.9539 18.7286 30.0855 18.9159 29.6525 18.9557C28.609 19.0515 28.2012 19.2347 27.8631 19.3193C27.0597 19.5203 26.598 19.7722 26.2378 19.8578C25.8983 19.9383 25.4804 20.0222 25.1467 20.1068C25.0534 20.1305 24.953 20.1221 24.9515 20.1221C24.6829 20.1221 25.4977 20.2608 25.9307 20.4106C26.2389 20.5172 27.3042 20.5203 28.6691 20.59C29.2657 20.6204 29.4549 20.6898 29.7769 20.7643C30.378 20.9033 31.3041 21.0675 32.1756 21.2866C32.6388 21.4031 33.0212 21.4768 34.1843 21.7146C35.0972 21.9013 36.6794 22.1498 37.542 22.3018C38.5054 22.4717 39.3153 22.5732 40.441 22.6727C40.8566 22.7095 40.955 22.7328 42.2342 22.8318C43.5134 22.9308 45.9702 23.1084 47.4677 23.1949C48.9652 23.2815 49.4289 23.2716 49.7468 23.2764C50.0646 23.2812 50.2225 23.3009 51.0389 23.316C51.8553 23.3311 53.3254 23.341 54.1271 23.351C54.9289 23.361 55.0177 23.3709 56.5533 23.1786C58.0889 22.9864 61.0686 22.5917 63.4522 22.2453C65.8357 21.899 67.5328 21.6128 68.4367 21.4654C69.3982 21.3086 69.885 21.2983 70.6166 21.2635C71.3941 21.2264 71.7713 21.1093 72.1255 20.9598C72.2042 20.9266 72.2503 20.8803 72.2856 20.8254C72.3209 20.7706 72.3406 20.7015 72.3211 20.6265C72.2778 20.4591 71.9743 20.3023 71.6209 20.1629C71.4041 20.0773 71.0579 20.102 70.2302 20.1416C69.6588 20.169 68.7808 20.2207 67.6871 20.1524C66.5934 20.0841 65.3107 19.8966 64.1566 19.6866C63.0025 19.4765 62.0158 19.2496 60.3828 18.9896C58.7497 18.7297 56.5001 18.4435 53.1902 18.2912C49.8804 18.1389 45.5785 18.129 42.2919 18.262C39.0052 18.3951 36.8642 18.6714 35.4849 18.9123C34.1057 19.1533 33.5531 19.3507 33.16 19.5066C32.5417 19.7518 32.2077 20.0013 32.0086 20.2152C31.8697 20.3644 31.8477 20.52 31.8576 20.6691C31.8629 20.7495 31.8872 20.8378 31.9368 20.9033C32.1483 21.1823 32.7516 21.1186 33.881 21.099C34.705 21.0847 36.0366 21.0005 39.7568 21.1968C43.4769 21.3931 49.545 21.8568 54.0325 21.928C58.52 21.9991 61.2433 21.6637 62.7053 21.4711C64.289 21.2625 64.5656 21.1688 65.1748 20.9809C67.2747 20.3332 67.5167 20.1523 67.6014 20.0729C67.6423 20.0346 67.6171 19.954 67.5134 19.8839C66.9227 19.4847 66.4523 19.2956 65.3348 19.0121C64.6903 18.8485 63.9536 18.6875 63.0986 18.5583C62.2405 18.4287 61.6882 18.3182 61.4496 18.2885C61.3287 18.2734 61.211 18.239 59.9758 18.1054C58.7407 17.9717 56.3924 17.7349 55.1235 17.6129C53.8546 17.4909 53.7362 17.4909 52.9747 17.4564C52.2131 17.4219 50.8121 17.3528 49.8831 17.3271C48.9541 17.3014 48.5397 17.3211 47.7589 17.3165C46.9781 17.3118 45.8435 17.2822 45.0912 17.2769C44.0034 17.2691 43.5493 17.3313 42.6399 17.4746C41.8395 17.6008 40.3492 17.8252 38.0672 18.3615C35.7851 18.8977 32.756 19.7364 31.0575 20.2424C29.3589 20.7484 29.0826 20.8964 28.8318 21.0122C28.0758 21.3609 27.3485 21.6248 26.5037 22.0887C25.7339 22.5114 25.3315 22.7621 25.0318 22.9022C24.8946 22.9663 24.782 23.0417 24.7468 23.1362C24.7119 23.2301 24.9993 23.3305 25.4801 23.5042C25.8082 23.6228 26.326 23.747 28.2183 23.9662C30.1106 24.1853 33.3666 24.4813 35.409 24.7078C37.4514 24.9343 38.1815 25.0823 40.3435 25.2868C42.5055 25.4913 46.0773 25.7479 50.1767 25.7863C54.2762 25.8247 58.7951 25.6372 61.4191 25.5012C64.043 25.3652 64.635 25.2862 64.9942 25.2308C65.3535 25.1753 65.462 25.1457 66.0261 25.0515C66.5901 24.9573 67.6064 24.7995 68.2434 24.6885C69.1108 24.5375 69.6568 24.3884 70.1698 24.2689C70.8744 24.1048 71.7611 23.7608 72.1897 23.5365C72.4581 23.3961 72.6294 23.2023 72.7388 23.078C72.9337 22.8568 72.8297 22.5355 72.8193 22.0674C72.8135 21.8073 72.8692 21.5387 72.8544 21.2998C72.8481 21.1981 72.81 21.1398 72.6023 21.0797C72.3947 21.0196 72.0099 20.9604 71.5009 20.9151C70.9918 20.8698 70.3702 20.8402 69.1423 20.6918C67.9143 20.5433 66.0989 20.2769 63.2741 20.1446C60.4494 20.0123 56.6705 20.0222 53.1698 20.2098C49.669 20.3974 46.561 20.7625 44.0127 20.9111C41.4644 21.0597 39.57 20.9808 37.494 21.098C35.418 21.2152 33.2177 21.5309 31.5514 21.8366C29.8851 22.1423 28.8195 22.4285 28.1621 22.5956C27.2911 22.817 27.0047 22.8429 26.915 22.8133C26.8746 22.8 26.8845 22.7245 26.9289 22.689C27.0388 22.6013 27.4101 22.7224 27.8629 22.8964C28.2024 23.0269 28.7834 23.28 29.8856 23.4844C30.5167 23.6014 31.3233 23.5407 32.0261 23.511C32.7288 23.4812 33.311 23.4319 34.563 23.4903C35.815 23.5488 37.7193 23.7165 39.1443 23.8819C40.5693 24.0472 41.4573 24.2051 41.9936 24.3111C42.6916 24.449 43.2847 24.5863 44.4901 24.7057C45.2592 24.7819 46.3565 24.7857 47.9715 24.7862C49.5865 24.7866 51.6881 24.757 52.8645 24.7516C54.0409 24.7462 54.2283 24.766 55.5484 24.7811C56.8684 24.7962 59.3154 24.806 60.9558 24.7273C62.5962 24.6485 63.3559 24.4807 64.137 24.2513C65.7139 23.788 66.5796 23.3915 66.8176 23.2674C67.5146 22.9041 68.0423 22.8339 68.7159 22.7334C68.9288 22.7017 69.7917 22.6147 71.0122 22.4503C71.5304 22.3805 71.7614 22.3944 71.9413 22.424C72.0454 22.4411 71.2107 22.6428 69.8057 22.7475C68.9844 22.8087 67.9371 22.7831 67.1664 22.7584C66.3958 22.7337 65.932 22.6844 65.0765 22.6689C64.2209 22.6533 62.9876 22.673 61.9477 22.7375C60.9078 22.8019 60.0987 22.9104 59.5931 22.991C58.6207 23.146 58.3592 23.44 58.2097 23.6041C58.1485 23.6713 58.1589 23.7386 58.1885 23.779C58.2519 23.8655 58.4665 23.8792 59.3959 23.8893C60.1971 23.8981 61.6672 23.8403 62.4936 23.8298C63.4581 23.8176 63.6794 23.889 63.8237 23.9586C63.8927 23.9918 63.9384 24.0478 63.9687 24.1324C64.0386 24.3272 63.9895 24.566 63.915 24.7847C63.837 25.0139 63.3849 25.4013 62.6295 25.9089C62.257 26.1591 61.8347 26.2783 60.8912 26.4877C59.9477 26.6972 58.4776 26.9636 57.6216 27.1008C56.5727 27.2689 56.2465 27.2578 55.4949 27.3617C54.862 27.4491 53.7171 27.5938 51.8793 27.6997C50.0416 27.8055 47.5453 27.8647 45.9929 27.8557C44.4406 27.8468 43.9078 27.7678 42.9525 27.7222C41.9972 27.6767 40.6356 27.6668 39.6283 27.6222C38.621 27.5777 38.0093 27.4988 37.5116 27.394C36.6371 27.2098 36.0853 26.9301 35.6533 26.7263C35.1275 26.4784 34.709 26.3515 34.303 26.1288C33.4743 25.6741 32.6974 25.2656 32.2298 25.0866C31.5327 24.8199 30.6284 24.4592 29.6693 24.254C28.0814 23.9142 27.6935 23.7105 27.225 23.4866C26.9099 23.336 26.5777 23.0336 26.0989 22.784C25.6842 22.5678 25.5593 22.087 25.4795 21.6486C25.3896 21.1548 25.1611 20.5616 24.9469 20.3669C24.8473 20.2765 24.7718 20.1825 24.7419 20.0582C24.6799 19.8004 24.8609 19.6045 24.9602 19.5048C25.1711 19.2929 25.6365 19.4254 26.0806 19.3151C26.4433 19.225 26.8133 19.0361 27.2709 18.8968C27.6576 18.7791 28.5128 18.5793 29.6715 18.2457C30.6626 17.9605 31.4659 17.9792 31.9836 18.004C32.6245 18.0347 33.7242 18.7814 34.3924 19.3924C35.143 20.0786 35.9289 20.796 36.4359 21.0685C36.617 21.1659 36.8202 21.089 36.9693 21.0295C37.4112 20.8531 37.9041 20.2046 38.3345 19.626C38.7348 19.0879 38.8728 18.7975 39.4101 18.5135C39.7522 18.3326 40.5633 18.6355 41.9735 19.3568C42.6669 19.7115 43.3938 19.8823 44.6296 19.9029C45.3827 19.9155 46.3882 19.7262 47.0004 19.6254C47.6126 19.5247 47.8 19.4655 48.2864 19.3856C48.7727 19.3058 49.5521 19.2071 50.2497 19.1613C52.2239 19.0314 52.4476 19.1949 52.5126 19.2595C52.5377 19.2845 52.4691 19.3339 51.9553 19.4135C51.4414 19.493 50.4646 19.6114 48.3433 19.7464C46.222 19.8814 42.9857 20.0294 41.2248 20.0957C39.4639 20.1621 39.2764 20.1424 38.874 20.147C38.4715 20.1517 37.8598 20.1813 37.2092 20.2508C35.8833 20.3924 35.078 20.5702 34.9331 20.625C34.7516 20.6935 35.4338 20.7099 35.7631 20.8389C36.0164 20.9381 36.2811 21.1282 36.767 21.2325C37.0922 21.3023 37.5883 21.3467 39.0166 21.3378C40.4449 21.3288 42.7932 21.2499 44.7478 21.3029C46.7025 21.356 48.1923 21.5435 50.43 21.9212C52.6676 22.299 55.6079 22.8614 58.4595 23.2893C61.3111 23.7171 63.985 23.9934 65.5055 24.1702C67.3122 24.4162 67.8536 24.5959 68.2718 24.785C68.4432 24.8655 68.532 24.9149 68.7431 24.876" stroke="#590808" stroke-width="2" stroke-linecap="round"/>
<path d="M46.5164 76.6115C46.6079 76.5766 47.1172 76.6226 47.5187 76.6809C47.8626 76.7308 48.2317 76.7855 48.7422 76.8433C49.1128 76.8852 49.4388 76.9129 50.6999 76.919C51.3305 76.922 51.9791 76.8321 52.4203 76.7799C52.945 76.7178 53.4285 76.6351 53.9922 76.4787C54.4505 76.3515 54.7296 76.2871 55.0951 76.1941C55.4039 76.1156 55.7731 76.0664 56.463 75.9621C56.8194 75.9083 57.1195 75.8575 57.4274 75.8168C57.802 75.7672 58.1749 75.7531 58.8586 75.6546C59.4813 75.5649 59.9953 75.5331 60.4034 75.4687C60.7486 75.4143 61.6278 75.2324 62.2423 75.1092C62.6633 75.0247 63.3131 74.6288 63.7853 74.5117C64.2853 74.3877 64.9957 74.1527 65.4735 74.036C65.5671 74.0132 65.6473 73.9898 65.6371 74.0066C65.4236 74.3576 64.6428 74.4172 64.1769 74.5921C63.6933 74.7737 62.9943 75.0437 62.4611 75.3166C61.4679 75.8249 60.413 75.971 59.3764 76.3025C57.5008 76.9024 56.8334 76.9359 56.1609 76.9942C55.4864 77.0526 54.8396 77.1447 54.2284 77.1799C53.6028 77.2158 52.8674 77.3306 51.9667 77.458C51.4512 77.5309 50.7086 77.632 49.9937 77.6903C49.615 77.7212 48.9 77.6334 48.3972 77.5803C48.0584 77.5445 47.6671 77.4587 47.0469 77.4354C46.467 77.4136 45.6413 77.2276 45.0037 77.076C44.6987 77.0035 44.3026 76.9943 43.9187 76.8962C43.6247 76.821 43.3503 76.7625 43.0137 76.6525C42.7252 76.5583 42.4453 76.5189 42.2354 76.432C41.8492 76.2722 43.3587 76.3212 43.8799 76.3617C44.8547 76.4375 45.3065 76.6108 45.9515 76.704C46.4308 76.7734 47.1276 76.8203 47.5537 76.7857C47.8638 76.7605 49.0128 76.7159 50.0527 76.6581C50.3082 76.6439 50.5067 76.6233 51.2892 76.4851C51.9787 76.3633 53.2663 76.1631 53.9922 76.0509C55.1088 75.8782 55.7829 75.8116 56.6694 75.7186C57.8434 75.5956 58.8014 75.4165 59.2123 75.3819C59.9346 75.321 60.3448 75.2192 60.7048 75.1499C61.2105 75.0526 61.7823 74.768 62.6466 74.5065C63.1615 74.3506 63.6055 74.2912 63.8843 74.239C64.2179 74.1765 64.5801 74.0475 64.8647 74.0011C65.1726 73.9316 65.4503 73.8387 65.706 73.6709C65.7758 73.6298 65.8562 73.6069 65.939 73.5832" stroke="black" stroke-opacity="0.64" stroke-linecap="round"/>
<path d="M29.9593 36.6458C30.0215 36.728 29 39.5263 29.5 39.3077C30.0564 39.0644 30.379 35.8447 29 35.5C27 35 30.5 36.2973 30.9131 35.7037C31.4307 34.9599 32.8622 35.7749 34.7408 36.1823M34.7408 36.1823C38.2761 36.9489 38.9115 36.6963 40.3941 36.728C40.8995 36.7388 41.086 37.1346 43.7187 37C46.2068 36.8728 51.3999 37.1594 54 37C56.8297 36.8265 57.094 36.6114 58 36.5176C59.3798 36.3747 61.689 36.2369 64 35.7037C65.0135 35.4699 66.0033 35.8223 67 35.5C69.2903 34.7594 69.3037 35.2052 71.0335 34.5C71.7772 34.1968 70.089 34.7183 70.2358 34.7177C71.0143 34.7143 71.4717 34.0338 71.2495 34.7177C71.0728 35.2613 70.8641 36.0222 70.6428 36.7362C70.5368 37.0783 70.4448 37.8004 70.2358 38.7714C70.06 39.5882 69.3973 40.9607 69 43C68.6197 44.952 67.3929 47.4267 67.0919 48.9032C66.8695 49.9945 66.78 51.8031 66.3896 53C65.7996 54.8089 65.7399 56.8308 65.1647 58.9328C64.8564 60.0592 63.8739 60.4754 63.54 62C63.2405 63.3674 62.8625 65.2727 62.6735 66.1348C62.4781 67.0265 61.8262 67.9239 61.7841 68.4891C61.7396 69.0873 60.5628 68.9586 60.5 69.9199C60.4859 70.1353 61.0953 70.8845 60.8973 71C59.3933 71.8771 58.5056 71.7821 57.196 71.9801C55.7103 72.2048 53.9652 72.4719 51.8509 72.6599C48.6894 72.941 46.4704 72.8498 45.9375 72.8287C45.3388 72.8051 43.6683 72.0426 42 71.9801C40.8846 71.9384 39.7262 71.053 39.1287 71C38.5442 70.9481 37.3778 70.369 37 69.9199C36.5089 69.3362 36.4604 69.8543 36 68.7571C35.6754 67.9836 35.4089 65.8116 34.7408 64.5265C34.3137 63.705 37.1067 60.404 35.359 62.1734C34.2866 63.2591 35.1277 58.5816 34.7408 57.2548C34.4952 56.4126 35.89 54.5408 34.1119 55.213C32.969 55.6451 32.9118 52.0785 32.587 51.0335C32.2198 49.8522 31.053 49.5559 31.8332 48.9032C36.4879 45.0093 31.1227 47.3275 30.9131 46.3032C30.7109 45.3154 30.0014 42.3648 29.9593 41.6848C29.9047 40.8016 34.008 39.5068 33.6113 38.1137C33.3069 37.0447 30.5151 39.0611 30.0861 37.8657C30.0013 37.6292 25.9891 35.9734 34.7408 36.1823ZM34.7408 36.1823C40.2503 36.3138 27.7619 37.7426 32.3206 38.0329C36.7541 38.3152 45.4956 38.8203 52.37 38.9628C59.2444 39.1053 63.9875 38.8567 66.3896 38.8219C68.7916 38.787 68.7087 38.9735 68.5211 39.3077C67.6589 40.8432 66.7869 41.5883 65.9169 42.6553C64.8447 43.9704 63.8783 46.1061 63.1553 47.4543C62.8831 47.9617 62.6456 48.7736 62.2373 50.0594C61.829 51.3451 61.3112 53.1057 60.8166 56.0943C60.322 59.0828 59.8664 63.2461 59.6005 65.515C59.3051 68.0366 59.105 68.4543 58.8653 68.7571C58.7453 68.9087 58.5634 68.9978 58.4055 69.0719C58.2476 69.146 58.1027 69.1874 55.5632 69.1777C53.0237 69.1679 48.0941 69.1058 45.3889 69.0427C42.3506 68.9719 41.8038 68.7292 41.4382 68.4891C40.745 68.0339 40.3181 66.5801 39.7353 63.504C39.2877 61.1412 38.7383 57.1139 37.9007 53.5526C37.0631 49.9913 36.0068 47.0087 35.359 45.2754C34.2988 42.4383 34.019 41.8029 34.1119 41.5939C34.1694 41.4644 34.474 41.4678 38.5789 41.5914C42.6837 41.715 50.6374 42.005 55.0661 42.2165C59.4948 42.4281 60.1576 42.5523 60.644 42.6681C61.4289 42.855 61.9263 43.1599 62.2505 43.4835C62.6987 43.9308 61.974 45.5977 60.8973 47.6934C60.2437 48.9656 59.7961 50.2693 59.2654 51.8209C58.9232 52.8213 58.3412 54.2217 57.5767 57.2049C56.8122 60.1881 55.8594 64.7034 55.3375 67.0917C54.8156 69.4799 54.7535 69.6042 54.6593 69.7096C54.5652 69.8151 54.4409 69.8979 54.2319 69.9199C53.7353 69.9721 53.227 69.7542 52.4472 69.2244C50.8695 68.1527 49.485 66.7251 48.5972 65.7949C48.0099 65.1796 47.4319 64.8805 46.6725 63.6656C46.0685 62.6996 45.3123 60.8559 44.7302 58.5606C44.1481 56.2653 43.8374 53.5312 43.7187 51.5118C43.4451 46.8526 44.0181 46.2605 44.3527 45.8409C44.5222 45.6283 46.6775 45.4025 49.8349 45.0573C51.372 44.8892 52.7958 45.1056 54.6346 45.4395C55.9159 45.6722 56.5498 46.0477 56.8423 46.2875C57.4842 46.8136 56.9296 48.2608 55.9228 51.2416C55.1003 53.6767 53.4869 57.9298 52.5724 60.2314C51.6579 62.533 51.4508 62.7402 51.2405 62.909C50.8428 63.2283 50.3612 63.413 49.85 63.5385C49.3317 63.6658 48.6264 63.312 47.9055 62.8108C46.9481 62.1451 46.5752 59.9145 46.5491 57.2548C46.5207 54.3529 47.6999 52.3073 48.1685 51.5883C48.8418 50.5551 49.7273 49.7754 50.6235 49.2952C51.7384 48.6979 52.7827 48.7259 53.3049 48.9032C53.7258 49.0461 53.9564 49.3737 54.0923 49.7697C54.4795 50.8983 53.6476 52.6921 52.7299 55.213C52.1733 56.7422 51.6466 58.8525 51.3582 60.303C50.9268 62.4729 51.2361 63.8059 51.4866 64.7254C51.6545 65.3422 51.9686 65.6098 52.1877 65.7457C52.4008 65.8779 52.7212 65.7786 53.0654 65.6223C53.4527 65.4465 53.7882 65.0273 54.0703 64.5265C54.6992 63.41 54.21 60.9375 53.5327 59.3402C52.8849 57.8121 51.3259 56.9105 50.3141 56.1391C49.1342 55.2396 48.2284 54.3987 47.3425 53.7431C46.0424 52.781 45.2151 51.679 44.444 51.0335C42.3964 49.3193 41.4711 48.4799 40.2171 47.1317C39.8392 46.784 39.425 46.494 39.1287 46.3032C38.8325 46.1124 38.6668 46.0295 38.4333 46.1952" stroke="#BAE2F3" stroke-opacity="0.27" stroke-width="7" stroke-linecap="round"/>
<line x1="75.4851" y1="30.1213" x2="64.4851" y2="74.1213" stroke="black"/>
<line x1="23.487" y1="29.8867" x2="33.487" y2="72.8867" stroke="black"/>
<path d="M33 73C45.2473 77.006 52.4747 76.994 66 73" stroke="black"/>
<path d="M32 70C44.2473 72.6707 51.4747 72.6626 65 70" stroke="black"/>
<path opacity="0.03" d="M33 69C44.8762 64.994 51.8845 65.006 65 69" stroke="black"/>
<path d="M23 19C42.67 13.6586 54.2775 13.6747 76 19" stroke="black"/>
<path d="M23 30C42.67 35.3414 54.2775 35.3253 76 30" stroke="black"/>
<path d="M23 20C42.67 25.3414 54.2775 25.3253 76 20" stroke="black"/>
<path d="M23 25C42.67 30.3414 54.2775 30.3253 76 25" stroke="black"/>
<line x1="75.5" y1="19" x2="75.5" y2="30" stroke="black"/>
<line x1="23.5" y1="19" x2="23.5" y2="30" stroke="black"/>
<path d="M39.8834 49.0486C39.8592 49.0672 39.8142 49.1596 39.82 49.3631C39.8366 49.9472 40.286 50.0894 40.42 50.3656C40.5958 50.7279 41.0679 50.9942 41.4739 51.1743C41.8169 51.3265 42.2109 51.5833 42.7368 51.8993C43.0742 52.102 43.7631 52.6414 44.2484 53.0037C44.5069 53.1967 44.8207 53.4951 45.1318 53.6911C45.4721 53.9054 45.9263 54.1236 46.6707 54.4355C47.5452 54.8021 47.9541 55.0154 48.3204 55.1242C48.6312 55.2165 49.1315 55.4216 49.8234 55.9399C50.3087 56.3034 50.7624 56.5032 51.1283 56.776C51.5421 57.0847 52.2115 57.34 52.6685 57.615C52.993 57.8103 53.3834 57.8999 53.8578 58.1878C54.2362 58.4173 54.7034 58.5787 55.0462 58.8156C55.3046 58.9941 55.7467 59.0011 56.1028 59.0202C56.4202 59.0778 56.6733 59.155 56.9785 59.1346C57.062 59.1288 57.149 59.1293 57.4051 59.1185" stroke="#45210D" stroke-opacity="0.72" stroke-width="4" stroke-linecap="round"/>
<path d="M42.6767 42.7501C42.6668 42.7488 42.6705 42.7189 42.6677 42.6825C42.6589 42.5672 42.2655 42.854 42.0612 42.9719C41.8912 43.0701 41.7728 43.2109 41.6545 43.2982C40.4997 44.1506 41.4527 43.569 41.3583 43.7413C41.2546 43.9305 41.0119 44.1209 40.899 44.3348C40.7324 44.6506 40.6059 44.8727 40.5254 45.0759C40.4532 45.258 40.346 45.5709 40.2825 45.8159C40.2568 45.9149 40.2958 46.0279 40.3179 46.2879C40.3665 46.8577 40.3901 47.347 40.4219 47.5355C40.4518 47.7127 40.51 47.9975 40.5894 48.2551C40.6764 48.5372 40.8632 48.7468 40.974 48.9616C41.1077 49.2207 41.3765 49.4084 41.5325 49.5144C41.6531 49.5963 41.7907 49.6171 41.9204 49.6267C42.0602 49.6371 42.1968 49.6095 42.3491 49.621C42.5362 49.6352 42.6793 49.4879 42.8056 49.4245C42.9443 49.3549 43.1058 49.2817 43.2736 49.1961C43.4164 49.1232 43.5243 49.0237 43.6536 48.9354C43.8685 48.7887 44.032 48.8642 44.3486 48.8106C44.5471 48.777 44.7051 48.7723 44.8732 48.7635C45.0181 48.7558 45.2039 48.837 45.3483 48.9148C45.4778 48.9845 45.6899 49.1561 45.8827 49.3176C46.0019 49.4174 46.0394 49.5917 46.121 49.7508C46.2871 50.0745 46.409 50.1779 46.4739 50.3098C46.5462 50.4568 46.6589 50.58 46.8247 50.7222C46.9502 50.8298 47.0693 50.9309 47.1777 51.0451C47.2883 51.1616 47.3968 51.2505 47.5297 51.3321C47.7442 51.4637 47.8689 51.5225 48.0248 51.6043C48.1822 51.6868 48.3096 51.7593 48.4361 51.8527C48.5408 51.93 48.6579 51.9588 48.8313 52.0045C48.9841 52.0447 49.1524 52.0947 49.4418 52.2147C49.6091 52.284 49.8185 52.2945 49.9966 52.4456C50.2011 52.6191 50.3372 52.8386 50.4971 52.9521C50.6402 53.0535 50.7828 53.1582 50.9213 53.2969C51.0589 53.4348 51.2022 53.5202 51.2996 53.6412C51.3819 53.7435 51.531 53.7895 51.6663 53.8353C51.8378 53.8933 51.9298 54.0359 52.0469 54.1411C52.1674 54.2494 52.2475 54.3902 52.432 54.5271C52.5801 54.6369 52.7585 54.7183 52.897 54.816C53.0565 54.9285 53.1951 55.1441 53.3291 55.2569C53.442 55.3518 53.6068 55.3676 53.7814 55.444C53.9417 55.5142 54.0643 55.5555 54.2119 55.6029C54.3968 55.6621 54.6618 55.8023 54.8251 55.875C54.9905 55.9486 55.0847 56.1445 55.1668 56.2629C55.1895 56.2956 55.2311 56.3174 55.2351 56.3106C55.3358 56.1416 54.9271 55.9098 54.8031 55.7957C54.6943 55.6956 54.5427 55.5927 54.4231 55.4669C54.2657 55.3014 54.0406 55.235 53.9088 55.0667C53.8052 54.9346 53.6668 54.7257 53.537 54.5745C53.5135 54.5471 53.4988 54.5134 53.4783 54.5128C53.4232 54.5112 53.3741 54.6039 53.2879 54.6388C53.0475 54.7361 52.7813 54.5576 52.5695 54.507C52.3247 54.4485 52.0594 54.3512 51.8599 54.2099C51.5338 53.9789 51.3631 53.5246 51.0791 53.1215C50.9574 52.9487 50.8974 52.6422 50.8175 52.3516C50.7714 52.1844 50.6823 52.0137 50.6031 51.872C50.5226 51.7281 50.4899 51.4816 50.4564 51.2073C50.4361 51.0412 50.452 50.9067 50.4449 50.7442C50.4369 50.5624 50.3091 50.4316 50.2025 50.3456C50.0521 50.2244 49.8672 50.0106 49.6749 49.7748C49.4975 49.5573 49.3857 49.4144 49.2847 49.2649C49.0955 48.9846 48.851 48.8365 48.6594 48.6962C48.4519 48.5444 48.2841 48.3885 48.1334 48.1869C48.0084 48.0197 47.9224 47.7775 47.8506 47.5631C47.7954 47.3982 47.7184 47.2587 47.6365 47.0227C47.5558 46.7902 47.702 46.474 47.8624 46.2851C48.0241 46.0946 48.3226 46.2701 48.4913 46.3179C48.7487 46.3909 49.0192 46.7854 49.1867 46.9416C49.3121 47.0585 49.4905 47.1859 49.6129 47.3098C49.781 47.48 49.9696 47.5975 50.107 47.6897C50.2301 47.7723 50.3374 47.8861 50.4543 48.032C50.6742 48.3068 50.8089 48.3988 50.953 48.533C51.1321 48.6998 51.291 48.9428 51.4378 49.1014C51.574 49.2486 51.7753 49.284 51.9212 49.4232C52.0342 49.5309 52.1616 49.6623 52.337 49.7724C52.4725 49.8575 52.6216 49.7534 52.7528 49.7704C52.8997 49.7895 53.0174 49.9025 53.1416 49.9339C53.293 49.9721 53.4055 50.0707 53.5442 50.1095C53.6788 50.1472 53.7927 50.2082 53.9094 50.2775C54.0367 50.3531 54.1688 50.3908 54.3062 50.4778C54.4577 50.5738 54.5794 50.8181 54.8382 51.0135C54.978 51.119 55.0929 51.4778 55.1824 51.702C55.2378 51.8408 55.2933 51.9931 55.3218 52.1276C55.3605 52.3108 55.4602 52.4403 55.5146 52.6345C55.5794 52.8657 55.5706 53.1671 55.6199 53.4578C55.6649 53.7235 55.7395 53.9169 55.7567 54.14C55.7711 54.3273 55.8026 54.4946 55.8246 54.6619C55.8408 54.7856 55.64 54.4131 55.503 54.3411C55.3769 54.275 55.3005 54.1433 55.2322 53.9781C55.1727 53.834 55.1099 53.6776 55.0199 53.5809C55.0104 53.5706 55.0466 53.5663 55.0897 53.5896C55.3228 53.7157 55.4587 53.9425 55.7529 54.1805C55.9508 54.3406 55.9711 54.5777 55.9985 54.7817C56.0178 54.9253 56.043 55.0135 56.0331 55.0482C56.0202 55.0938 56.152 55.0382 56.2142 55.0718C56.2443 55.0881 56.265 55.1141 56.2529 55.1128C56.0793 55.0946 55.9839 54.8021 55.9208 54.6343C55.8696 54.4983 55.7242 54.0478 55.5175 53.6031C55.4361 53.428 55.3656 53.0213 55.3018 52.7363C55.2345 52.4356 55.0139 52.1732 54.978 52.0351C54.9284 51.8445 54.8336 51.7089 54.6974 51.5167C54.534 51.2861 54.4288 50.7649 54.3633 50.4787C54.323 50.3025 54.1561 50.1439 54.0686 49.9098C53.956 49.6088 53.911 49.466 53.8409 49.1191C53.7992 48.9125 53.715 48.7686 53.5713 48.4762C53.4091 48.1461 53.256 47.8065 53.1414 47.6634C52.9869 47.4704 52.9748 47.2881 52.9408 47.0963C52.9167 46.9604 52.7951 46.8189 52.6947 46.705C52.5812 46.5763 52.4705 46.5551 52.4226 46.5106C52.3029 46.3997 52.2971 46.2713 52.2746 46.2094C52.2364 46.1044 52.0604 46.0863 51.9187 46.0703C51.7819 46.0549 51.6288 46.0556 51.4475 46.0677C51.3044 46.0773 51.1235 46.0405 50.9273 46.0078C50.7464 45.9777 50.6127 45.9031 50.5115 45.8128C50.4166 45.728 50.3214 45.4307 50.1014 45.1675C49.9638 45.0029 49.9227 44.7475 49.8744 44.5253C49.8215 44.2821 49.8625 43.9091 49.8064 43.6911C49.7357 43.4161 49.697 43.2514 49.714 42.982C49.7263 42.7888 49.6609 42.5093 49.6576 42.2745C49.654 42.0224 49.7267 41.7642 49.7396 41.5673C49.746 41.4688 49.766 41.3833 49.7859 41.3677C49.9719 41.2214 49.9826 41.8819 50.0174 42.2654C50.0373 42.4858 50.0548 42.6659 50.0745 42.8503C50.0978 43.0685 50.1046 43.3079 50.1065 43.4114C50.1124 43.7229 50.0592 42.5191 50.0178 42.2858C49.9815 42.0813 49.9253 41.8969 49.8755 41.6469C49.8252 41.3941 49.6623 41.1655 49.3161 40.9327C49.1511 40.8218 49.1127 40.6573 48.9156 40.5419C48.6505 40.3867 48.5253 40.3291 48.3792 40.2871C48.2347 40.2454 48.0826 40.2255 47.905 40.1892C47.7528 40.1581 47.4642 40.1037 47.2311 40.0297C47.0854 39.9835 46.8913 39.9677 46.6879 39.8718C46.4713 39.7695 46.2738 39.7841 46.1038 39.8284C45.897 39.8823 45.4933 40.0047 45.1391 40.1125C44.8822 40.1907 44.6312 40.2719 44.4726 40.3258C44.3353 40.3724 44.1782 40.4435 44.0182 40.5661C43.8577 40.6891 43.8064 40.969 43.7502 41.1054C43.6879 41.2566 43.6154 41.492 43.5238 41.6629C43.5038 41.7001 43.4759 41.7359 43.4713 41.7689C43.4537 41.8951 43.5537 42.0383 43.5444 42.1911C43.5332 42.3746 43.3794 42.5536 43.2965 42.7176C43.2317 42.8456 43.0844 42.9716 42.9493 43.1591C42.7953 43.373 42.5104 43.7257 42.2492 44.0086C42.1249 44.143 42.013 44.3035 41.8552 44.5134C41.7378 44.6695 41.6106 44.7945 41.5515 44.9126C41.4318 45.1514 41.3176 45.5457 41.2642 45.7004C41.1856 45.9278 41.0483 46.4315 41.0776 47.1252C41.093 47.4871 41.1649 47.7357 41.2357 47.8604C41.3326 48.0312 41.4433 48.3088 41.5645 48.562C41.6616 48.765 42.0995 48.4685 42.2554 48.3942C42.3401 48.3539 42.3811 48.239 42.4603 48.1012C42.5797 47.8935 42.7225 47.6638 42.9203 47.0279C43.0807 46.5119 43.2896 45.582 43.4254 44.9812C43.5612 44.3805 43.5988 44.1316 43.6273 43.9716C43.6559 43.8116 43.6743 43.748 43.8091 43.455C43.9439 43.162 44.1946 42.6414 44.346 42.3381C44.5345 41.9605 44.6472 41.8287 44.8263 41.6098C45.1432 41.2225 45.3968 40.8756 45.5555 40.7376C45.8524 40.4794 46.1986 40.2311 46.3104 40.1994C46.3458 40.1894 46.3432 40.2285 46.1352 40.481C45.9272 40.7334 45.5151 41.2076 45.1777 41.6132C44.8404 42.0187 44.5902 42.3414 44.4286 42.5643C44.1904 42.8927 43.9585 43.2328 43.6085 43.7008C43.2278 44.2099 43.0188 44.6138 42.8835 44.788C42.7568 44.9511 42.5884 45.3603 42.3311 45.9611C42.0954 46.5115 41.9054 46.8577 41.8477 47.0446C41.7559 47.3423 41.8056 47.6183 41.8763 47.8029C41.9154 47.9048 42.0224 47.9607 42.0984 47.9861C42.135 47.9984 42.1759 47.961 42.4208 47.2159C42.6657 46.4708 43.1155 45.0068 43.4554 44.0459C43.7952 43.085 44.0116 42.6717 44.1875 42.3149C44.5027 41.6754 44.6641 41.3079 44.7566 41.1666C44.957 40.8605 45.1142 40.6443 45.1861 40.4529C45.2004 40.415 45.0257 40.5484 44.8147 40.8143C44.5051 41.2047 44.3362 41.5863 44.2279 41.8099C44.1038 42.066 43.9185 42.2753 43.7418 42.533C43.4822 42.9114 43.3304 43.2854 43.1976 43.4601C43.0141 43.7015 42.7578 44.1419 42.4576 44.719C42.1519 45.3066 41.9382 45.6626 41.8148 45.9064C41.3981 46.7292 41.2841 47.0219 41.2163 47.227C41.1288 47.4917 41.1338 47.7008 41.1564 47.8011C41.1661 47.8442 41.2154 47.8554 41.2744 47.8557C41.4123 47.8562 41.7562 47.6667 42.245 47.3138C42.4858 47.14 42.6461 46.8937 43.0153 46.2199C43.3846 45.5461 43.9412 44.431 44.2496 43.8264C44.5914 43.1562 44.6808 43.0277 44.7792 42.7627C45.1009 41.8962 45.0182 41.5857 44.9726 41.3839C44.9324 41.2058 44.7802 41.0567 44.6119 40.9493C44.4197 40.8268 44.144 41.0592 43.9723 41.1346C43.8423 41.1917 43.6049 41.3064 43.4227 41.3784C43.391 41.3909 43.3538 41.3773 43.3247 41.3633C43.2673 41.3359 43.2304 41.259 43.2037 41.1687C43.153 40.9968 43.2236 40.7977 43.3186 40.5583C43.4065 40.3368 43.7489 40.1433 43.9455 40.0143C44.2105 39.8404 44.6464 39.7829 45.0318 39.6996C45.2182 39.6593 45.4078 39.6103 45.6144 39.5804C45.8224 39.5503 45.952 39.6859 46.1248 39.7161C46.3687 39.7588 46.5788 39.7928 46.804 39.8712C47.138 39.9874 47.2692 40.0419 47.7883 40.2172C48.0561 40.3076 48.3539 40.4449 48.5279 40.5342C48.7144 40.6301 48.891 40.7352 49.2002 41.1892C49.5974 41.7722 49.5205 42.124 49.5043 42.621C49.4918 43.0057 49.4128 43.6563 49.3796 44.0884C49.3142 44.9403 49.3381 45.1351 49.3133 45.4829C49.2798 45.9545 49.4287 46.2445 49.5742 46.4662C49.6251 46.5438 49.6785 46.611 49.7674 46.6357C49.9916 46.6979 50.1306 46.3281 50.2463 46.0915C50.3047 45.9723 50.3881 45.889 50.4569 45.8518C50.4875 45.8352 50.5241 45.8651 50.5417 45.9285C50.5876 46.0935 50.5568 46.2486 50.5569 46.5208C50.5569 47.1767 50.6034 47.6594 50.6277 47.747C50.6394 47.7889 50.664 47.821 50.6856 47.8141C50.9589 47.727 50.9736 47.0182 51.1263 46.7727C51.2701 46.5416 51.4728 46.4561 51.5469 46.4169C51.605 46.3862 51.6052 46.818 51.5623 47.4014C51.5158 48.0353 51.6563 48.4678 51.7422 48.6155C51.7605 48.6469 51.7951 48.6609 51.823 48.6445C52.0524 48.5099 52.0392 48.0889 52.1198 47.8641C52.3073 47.3418 52.3733 47.1377 52.465 47.0645C52.6155 46.9443 52.5721 47.5004 52.6646 48.0848C52.7988 48.9327 52.9048 49.3126 52.9617 49.4285C52.9906 49.4875 52.9606 49.2445 52.8741 49.009C52.7114 48.5664 52.5426 48.1701 52.3379 47.8983C52.0601 47.5294 51.8881 47.2485 51.801 47.1325C51.5557 46.8057 51.271 46.5632 51.0164 46.3509C50.5785 45.9858 50.2739 45.6442 49.9473 45.3328C49.6038 45.0053 49.4653 44.6359 49.373 44.425C49.213 44.0597 49.1061 43.7737 49.0528 43.6721C49 43.5716 48.9549 43.0506 48.9076 42.2736C48.8626 41.536 48.8821 41.2834 48.8497 41.2381C48.835 41.2176 48.7971 41.2308 48.7636 41.2697C48.679 41.3682 48.5955 41.7908 48.4691 42.6018C48.3955 43.0744 48.3488 43.6775 48.3064 44.0441C48.2506 44.5257 48.1855 44.6984 48.1263 44.8388C48.048 45.0243 47.9556 45.5568 47.8407 46.2995C47.7567 46.8431 47.7279 47.2624 47.6828 47.5691C47.6655 47.6864 47.6671 47.7273 47.7562 47.473C47.8453 47.2188 48.0236 46.6685 48.2169 45.977C48.4103 45.2855 48.6131 44.4694 48.7256 43.9688C48.8731 43.3119 48.8463 42.9365 48.7935 42.5763C48.7209 42.081 48.3472 41.6969 48.1475 41.4775C47.896 41.2009 47.7078 41.1299 47.6303 41.1351C47.38 41.1517 47.0864 41.7738 46.8254 42.1835C46.7434 42.3122 46.7254 42.2538 46.7775 42.067C47.0346 41.1439 47.1063 40.9038 47.0753 40.7505C47.0452 40.6023 46.7561 40.6878 46.593 40.7355C46.2355 40.8402 45.9211 41.347 45.7468 41.9351C45.6298 42.3298 45.5709 42.6903 45.504 43.2625C45.4541 43.6896 45.3393 44.3903 45.2839 44.7746C45.2285 45.1589 45.2276 45.2044 45.2472 45.2102C45.3112 45.2291 45.3874 45.0782 45.6607 44.6991C45.8893 44.3819 46.323 43.8277 46.5766 43.4809C46.8302 43.1342 46.8964 43.0159 47.0379 42.832C47.1794 42.648 47.3942 42.4019 47.5852 42.1461C47.9576 41.647 48.1323 41.3293 48.1782 41.2915C48.1904 41.2815 48.1944 41.326 48.0839 41.609C47.9735 41.8921 47.7522 42.4216 47.6006 42.8265C47.353 43.4881 47.2676 43.8352 47.1993 43.967C47.0539 44.2478 46.875 44.5672 46.7451 45.0912C46.6619 45.4268 46.6161 45.9199 46.5848 46.238C46.5405 46.6872 47.0934 46.287 46.1461 47.8749C45.8377 48.3919 46.7545 48.552 46.7913 48.6031C46.8229 48.647 46.9498 48.2327 47.1742 47.4117C47.3105 46.9128 47.5333 46.2582 47.6719 45.6771C47.8105 45.096 47.8686 44.6113 47.8957 44.3256C47.9458 43.7956 47.728 43.4563 47.5599 43.0526C47.5261 42.9714 47.4971 42.9435 47.444 42.9185C47.2029 42.8045 47.0572 42.8548 46.9879 42.8764C46.711 42.9625 46.5873 43.5106 46.3583 43.6983C46.1491 43.8698 45.8415 44.2063 45.4132 44.7277C45.1706 45.0229 44.9177 45.4129 44.5361 46.0572C44.1545 46.7015 43.6621 47.5965 43.3856 48.0775C43.1091 48.5585 43.0633 48.5982 43.037 48.6005C43.0107 48.6028 43.0053 48.5666 43.3099 47.7861C43.6146 47.0056 44.2295 45.4819 44.6253 44.5778C45.0211 43.6737 45.179 43.4355 45.3067 43.23C45.4344 43.0244 45.5271 42.8589 45.7063 42.641C46.1223 42.1352 46.4646 41.85 46.5561 41.7954C46.5994 41.7695 46.6487 41.7713 46.6751 41.8076C46.8296 42.0198 46.6351 42.3168 46.4481 42.794C46.3022 43.1668 46.0256 43.7938 45.8498 44.1667C45.6229 44.6479 45.4588 44.8904 45.2876 45.3222C45.178 45.5987 45.0389 45.9978 44.9015 46.3212C44.764 46.6445 44.6367 46.8817 44.5162 47.1718C44.1085 48.1532 44.1129 48.2893 43.9548 48.5809C43.9191 48.6467 43.8849 48.6647 43.8479 48.673C43.6939 48.7073 43.5743 48.6094 43.0984 48.6519C42.6701 48.6901 42.1422 48.8586 42.032 48.8362C42.0084 48.8314 41.9961 48.8746 42.0118 48.8898C42.1375 49.0119 42.4535 48.8939 42.7438 48.9292C43.1071 48.9733 43.4047 48.7165 43.8097 48.4342C44.3307 48.0709 44.797 47.9131 44.9615 47.7866C45.4335 47.4237 45.579 47.185 45.7816 46.8242C45.9317 46.557 46.1385 46.0978 46.2714 45.7982C46.46 45.3728 46.5205 45.0021 46.5666 44.5706C46.6059 44.203 46.5848 43.9984 46.5616 43.9416C46.5487 43.9099 46.4966 43.8946 46.4481 43.9109C46.3313 43.9501 46.2255 44.2007 46.1016 44.5425C45.9725 44.8986 45.8733 45.3688 45.746 45.8335C45.6623 46.1389 45.6852 46.412 45.6799 46.7866C45.6724 47.3154 45.7014 47.7172 45.6188 47.8061C45.1082 48.3557 45.9586 48.7368 46.2165 49.0765C46.2784 49.1581 46.4464 49.1786 46.6135 49.2133C46.6815 49.2274 46.7202 49.2046 46.7531 49.1705C46.8261 49.0948 47.4353 49.1472 47.5391 48.7636C47.5883 48.5819 47.0587 47.9535 47.0526 47.627C47.0515 47.5662 47.0037 47.9001 46.9739 48.4412C46.9351 49.1473 47.0888 49.4046 47.2316 49.8024C47.3407 50.1061 47.4803 50.2976 47.541 50.3619C47.6628 50.4908 47.8544 50.4955 47.9206 50.4787C47.9919 50.4605 48.0225 50.3487 48.076 50.1341C48.1867 49.6912 48.1975 49.1278 48.1977 48.6949C48.1977 48.5255 48.1824 48.458 48.1671 48.4372C48.0618 48.295 47.9638 48.9903 48.0449 49.914C48.0842 50.3611 48.3618 50.8002 48.616 51.2074C48.7521 51.4255 48.9024 51.4982 49.0252 51.5579C49.0752 51.5821 49.1077 51.5767 49.1388 51.5553C49.3232 51.4288 49.3288 50.9872 49.2594 50.3247C49.2221 49.9683 49.0501 49.5912 48.9569 49.3404C48.9373 49.2875 48.9143 49.2551 48.8987 49.2552C48.7868 49.2554 48.8885 49.6793 49.0216 50.1132C49.078 50.297 49.2035 50.4501 49.3084 50.8042C49.3804 51.0473 49.6838 51.3574 49.8693 51.6138C49.93 51.6978 50.0588 51.7516 50.1746 51.7874C50.2121 51.799 50.2134 51.7523 50.1695 51.68C50.0536 51.4896 49.8811 51.2786 49.7535 51.0802C49.6514 50.9215 49.4036 50.704 49.0705 50.4326C48.6479 50.0883 48.3551 50.0072 48.1879 50.0106C47.916 50.016 47.8232 50.2292 47.7201 50.3518C47.5456 50.5594 47.424 50.8129 47.3757 51.083C47.3477 51.2389 47.2719 51.352 47.2348 51.4551C47.2292 51.4705 47.2777 51.4562 47.2947 51.4657C47.3117 51.4753 47.3127 51.5059 47.3286 51.5212C47.4337 51.6221 47.6909 51.3922 47.8945 51.3826C48.2581 51.3653 48.4107 51.4956 48.5894 51.578C48.852 51.6991 49.3211 51.9967 49.7333 52.278C50.0966 52.5259 50.3484 52.6346 50.5855 52.8989C50.8669 53.2126 51.0917 53.3065 51.2205 53.4205C51.3742 53.5566 51.5454 53.7548 51.725 53.8762C51.8651 53.9709 52.0215 54.0786 52.4544 54.3859C52.7123 54.5689 52.9488 54.6715 53.1732 54.8185C53.3453 54.9312 53.4831 55.0589 53.7075 55.1831C53.884 55.2807 54.0515 55.4151 54.2175 55.4805C54.5922 55.6279 54.914 55.9583 55.0149 56.0713C55.1218 56.191 55.3039 56.2706 55.4537 56.3415C55.4923 56.3619 55.5296 56.3871 55.5625 56.412C55.5954 56.4369 55.6227 56.4608 55.6884 56.5518" stroke="#F3CA9A" stroke-linecap="round"/>
<path d="M48.2906 44.852C48.317 44.8218 48.5382 44.3418 48.6899 44.0364C48.778 43.859 48.8975 43.6454 48.9379 43.4908C48.9803 43.3285 48.8584 43.162 48.8807 42.9031C48.8949 42.7387 48.7863 42.5831 48.6374 42.3502C48.5452 42.206 48.5176 42.0244 48.3959 41.9309C48.2597 41.8262 48.0594 41.7423 47.8877 41.6597C47.7313 41.5844 47.5825 41.4696 47.4293 41.3977C47.278 41.3267 47.0514 41.1834 46.8019 41.1251C46.4982 41.0541 46.1458 41.1391 45.9429 41.1608C45.7858 41.1776 45.6324 41.3164 45.4533 41.3787C45.2477 41.4502 45.003 41.5589 44.8212 41.6633C44.672 41.7491 44.5813 41.908 44.471 42.0332C44.3441 42.1773 44.2295 42.3796 44.0516 42.5875C43.9294 42.7304 43.7355 42.8509 43.5205 43.1468C43.3 43.4502 43.051 43.6491 42.9173 43.8176C42.7824 43.9877 42.6926 44.1213 42.5433 44.3945C42.456 44.5542 42.2991 44.7863 42.1821 44.9798C42.0125 45.2605 41.8331 45.5177 41.6251 46.0218C41.4903 46.3486 41.5199 46.8655 41.5328 47.2913C41.5413 47.5713 41.6767 47.8431 41.8046 47.9769C41.9837 48.1642 42.2353 48.2689 42.4272 48.3744C42.6816 48.5142 42.925 48.4398 43.1196 48.4138C43.4352 48.3718 43.6077 48.1421 43.8925 47.7901C44.0166 47.6367 44.1593 47.3614 44.3214 47.0129C44.4266 46.7867 44.5297 46.4423 44.6952 46.0457C44.8562 45.6598 45.2148 45.3801 45.6082 45.0218C45.7724 44.8723 45.951 44.8434 46.1232 44.7237C46.3273 44.5818 46.6982 44.5593 46.9732 44.6003C47.1028 44.6196 47.1514 44.7658 47.2006 44.8459C47.2658 44.9522 47.2802 45.0897 47.2736 45.2279C47.2513 45.6963 46.8788 46.1191 46.6172 46.6215C46.4798 46.8857 46.3118 47.2394 46.2122 47.4952C46.1376 47.687 46.319 48.0431 46.4553 48.3324C46.6331 48.7099 46.8726 48.7777 47.018 48.8845C47.2584 49.0611 47.5275 49.2887 47.925 49.5861C48.1868 49.782 48.3556 49.8931 48.6327 50.2076C48.8052 50.4034 49.0649 50.5602 49.3039 50.7172C49.523 50.8611 49.6945 51.0181 49.8244 51.1608C49.9669 51.3176 50.2163 51.4284 50.568 51.67C50.7953 51.8262 50.9556 51.9177 51.1555 52.0315C52.0306 52.5297 52.4348 52.6169 52.6174 52.7915C52.9753 53.1338 53.2194 53.2829 53.3944 53.4057C53.5531 53.5171 53.6835 53.6112 53.7897 53.7389C53.9165 53.8915 54.1223 54.0839 54.3144 54.2087C54.5867 54.3858 54.6282 54.5768 54.8738 54.7854C55.058 54.9418 55.2197 55.0643 55.2552 55.0976C55.3665 55.202 55.1998 54.6989 55.0979 54.4546C54.9869 54.1887 54.6852 53.8075 54.5158 53.5046C54.4719 53.426 54.3616 53.3138 54.1944 53.0737C53.7145 52.3848 53.4483 51.976 53.2545 51.6751C53.0373 51.3379 52.5988 50.7283 52.2789 50.2986C52.0621 50.0074 51.8129 49.64 51.5321 49.3503C51.2513 49.0605 50.98 48.6951 50.6343 48.1317C50.3297 47.6352 50.144 47.4515 49.9998 47.2507C49.788 46.9556 49.596 46.7266 49.5052 46.4545C49.489 46.4059 49.4885 46.3641 49.4974 46.359C49.6407 46.2779 49.7669 46.7516 49.919 46.8973C50.1929 47.1598 50.7238 47.3434 51.0585 47.544C51.259 47.6641 51.4543 47.6955 51.6267 47.8174C51.8099 47.947 51.9279 48.1269 52.0514 48.2289C52.1097 48.277 52.1702 48.324 52.2 48.3368C52.3785 48.4134 52.0656 47.9983 51.9254 47.829C51.8313 47.6089 51.7686 47.4354 51.7183 47.3634C51.6908 47.3339 51.659 47.3185 51.5714 47.3296" stroke="#84817C" stroke-opacity="0.33" stroke-width="4" stroke-linecap="round"/>
<path d="M48.6992 46.7329C48.6905 46.7508 48.6818 46.7688 48.6953 46.7867C48.8307 46.9673 49.1716 47.096 49.2488 47.2474C49.3283 47.4035 49.5121 47.6344 49.6865 47.806C49.8493 47.9662 50.0622 48.2453 50.3244 48.554C50.5364 48.8036 50.7309 48.9896 50.8667 49.1551C50.9947 49.3114 51.1341 49.3958 51.2506 49.5139C51.3164 49.5738 51.3798 49.6337 51.4398 49.6896C51.4717 49.7165 51.5068 49.7401 51.5809 49.7695" stroke="#45210D" stroke-opacity="0.72" stroke-linecap="round"/>
<path d="M44.9511 41.6166C44.9471 41.6477 44.9839 42.0486 45.0098 42.3242C45.014 42.3688 45.0007 42.419 45.0193 42.4477C45.1109 42.5893 45.4223 42.4304 45.6304 42.3899C45.6845 42.3793 45.748 42.3954 45.781 42.4188C45.8152 42.4805 45.9048 42.7224 46.0515 43.0498C46.1101 43.1749 46.1365 43.2165 46.2082 43.3616" stroke="#45210D" stroke-opacity="0.72" stroke-linecap="round"/>
<path d="M57.6817 57.6664C57.6223 57.5889 56.8596 56.8725 56.462 56.3698C56.2823 56.1425 56.0199 55.8855 55.7833 55.6543C55.5942 55.4694 55.3606 55.099 55.1289 54.8266C54.9208 54.5819 54.6737 54.4359 54.4253 54.2633C54.1778 54.0913 54.0054 53.7186 53.8202 53.4023C53.635 53.0859 53.381 52.9637 53.1623 52.6797C52.9376 52.388 52.8007 52.1063 52.4632 51.7759C52.2315 51.5492 51.9823 51.3074 51.8554 51.0446C51.7341 50.7931 51.5033 50.5227 51.2655 50.2654C50.9526 49.9267 50.722 49.739 50.5882 49.4949C50.4385 49.2221 50.1044 49.0156 49.9079 48.8293C49.6622 48.5963 49.3948 48.4615 49.1476 48.3139C48.8574 48.1405 48.8153 47.8244 48.6384 47.6406C48.5503 47.5491 48.4628 47.4471 48.3772 47.3359C48.3342 47.2799 48.2917 47.2247 48.248 47.1678" stroke="#4E4235" stroke-linecap="round"/>
<path d="M41.3539 50.6774C41.3533 50.7474 41.6183 51.1325 41.7871 51.4429C41.9024 51.6551 42.1354 51.7755 42.3881 51.8656C42.7909 52.0092 43.0733 52.1533 43.3223 52.2081C43.572 52.2631 43.8079 52.3375 44.0209 52.3962C44.3407 52.4844 44.7275 52.5188 44.9446 52.5477C45.1557 52.5759 45.4061 52.52 45.6385 52.4666C45.7533 52.4402 45.8043 52.3164 45.8319 52.2057C45.8981 51.941 45.7326 51.6553 45.5537 51.3716C45.3885 51.1093 45.2942 50.822 45.1968 50.6238C45.1476 50.5236 45.0612 50.447 44.9614 50.403C44.7502 50.31 44.4817 50.4325 44.2439 50.4633C43.9944 50.4955 43.7804 50.6056 43.5547 50.6424C43.3437 50.6768 43.1098 50.6768 42.8836 50.7179C42.6657 50.7575 42.4175 50.7807 42.0123 50.7455C41.8574 50.7321 41.7367 50.7887 41.6737 50.8639C41.6428 50.9008 41.7104 50.9784 41.7581 51.0204C41.9191 51.1625 42.2667 51.1662 42.5953 51.3589C42.8251 51.4938 43.4247 51.6617 43.8932 51.6832C44.1653 51.6957 44.4338 51.7933 44.7 51.9202C44.9101 52.0203 45.0896 52.0462 45.1618 52.034C45.3998 51.9935 44.9862 51.4966 44.8147 51.1563C44.7492 51.0262 44.6042 50.978 44.4778 50.9351C44.3663 50.9116 44.2069 50.917 44.0183 50.9452C43.9361 50.961 43.8813 50.98 43.7207 50.9861" stroke="#2B241D" stroke-linecap="round"/>
<path d="M51.3128 43.2739C51.2941 43.3503 51.2668 43.5578 51.2971 43.7292C51.3339 43.9376 51.6324 43.862 51.7122 43.9251C51.7919 43.988 51.754 44.1506 51.7579 44.2876C51.7612 44.4002 51.8884 44.4683 51.9414 44.502C52.0982 44.6014 51.643 44.129 51.5776 43.8825C51.5028 43.6012 51.4957 43.3607 51.4878 43.1168C51.4805 42.8926 51.3718 42.6917 51.2647 42.4968C51.2121 42.401 51.2044 42.2816 51.1961 42.175C51.192 42.1222 51.2479 42.0762 51.2948 42.0553C51.3417 42.0344 51.3932 42.0412 51.4318 42.0855C51.6304 42.3131 51.6835 42.5895 51.8001 42.812C51.946 43.0902 52.0861 43.3562 52.2392 43.7371C52.3462 44.0033 52.412 44.2361 52.5352 44.4772C52.5658 44.5474 52.5987 44.6303 52.6208 44.6998C52.6429 44.7694 52.6534 44.8231 52.7094 44.9373" stroke="#2B241D" stroke-linecap="round"/>
<path d="M51.3564 51.2034C51.3534 51.1877 51.3504 51.1721 51.3322 51.1746C51.314 51.1771 51.2808 51.1981 51.2668 51.2246C51.1644 51.4171 51.3295 51.7988 51.505 52.0421C51.7364 52.363 51.8257 52.5913 51.9722 52.8261C52.0696 52.9822 52.1402 53.1304 52.3292 53.2703C52.5398 53.4262 52.796 53.5952 52.9983 53.7242C53.0408 53.7513 53.0797 53.786 53.1056 53.7872C53.1315 53.7884 53.1404 53.7591 53.1395 53.7281C53.1355 53.5982 52.9651 53.4597 52.7728 53.283C52.5757 53.1019 52.4587 52.7428 52.3096 52.5484C52.1888 52.3911 52.113 52.1695 51.987 52.0141C51.8397 51.8256 51.657 51.6585 51.516 51.4786C51.4805 51.4352 51.4395 51.3994 51.3577 51.3112" stroke="#2B241D" stroke-linecap="round"/>
<path d="M52.2112 50.5458C52.2212 50.5471 52.2576 50.5417 52.3158 50.5466C52.5474 50.5661 52.7593 50.9754 52.8469 51.1332C52.9729 51.3605 53.3088 51.7484 53.4752 51.9356C53.6092 52.0863 53.7216 52.2086 53.8344 52.3463C53.9985 52.5468 54.063 52.853 54.2571 52.9937C54.3591 53.0677 54.4559 53.1046 54.5292 53.1117C54.5632 53.115 54.5908 53.0919 54.621 53.0575C54.7925 52.8623 54.7135 52.5493 54.6492 52.3947C54.5938 52.2613 54.2954 51.882 54.0392 51.5949C53.6093 51.1134 53.3132 50.9107 53.1596 50.7673C52.9797 50.6717 52.8138 50.6093 52.6477 50.5847C52.6019 50.5814 52.5519 50.5749 52.5005 50.5682" stroke="#2B241D" stroke-linecap="round"/>
<path d="M42.4816 42.6635C42.4174 42.6677 41.9171 42.7815 41.6094 42.8995C41.3483 42.9996 41.1709 43.4555 40.8656 43.801C40.7011 43.9871 40.6415 44.2093 40.5792 44.4134C40.5085 44.645 40.4878 44.9412 40.4035 45.1711C40.3068 45.4346 40.3091 45.6699 40.3059 45.8432C40.3018 46.061 40.2467 46.2463 40.2881 46.4706C40.3335 46.7166 40.3936 46.9912 40.4079 47.2286C40.4142 47.2779 40.4273 47.3242 40.4463 47.4005C40.4652 47.4768 40.4897 47.5818 40.5149 47.69" stroke="#45210D" stroke-opacity="0.72" stroke-linecap="round"/>
<path d="M46.6927 52.1709C46.7276 52.2052 46.9954 52.3006 48.4366 52.8282C48.9793 53.0268 49.2486 53.3251 49.8032 53.6841C50.1017 53.8773 50.4205 54.0304 50.7759 54.1926C51.0377 54.3121 51.265 54.4812 51.6426 54.7366C51.9363 54.9352 52.3193 55.161 52.8169 55.4562C53.4278 55.8187 53.8032 56.0165 54.0247 56.1659C54.2518 56.3191 54.5573 56.3857 54.7912 56.5567C55.025 56.7277 55.253 56.8977 55.4997 57.0454C55.7188 57.1766 55.9605 57.241 56.184 57.3754C56.4013 57.5062 56.6359 57.5999 56.8737 57.7013C57.1408 57.8152 57.377 57.9168 57.6195 58.0591C57.8434 58.1906 58.0836 58.3406 58.3173 58.4014C58.3606 58.4127 58.3869 58.3314 58.3859 58.2658C58.381 57.9711 58.204 57.7454 58.0025 57.5584C57.8088 57.3787 57.7165 57.021 57.6192 56.7264C57.5274 56.4483 57.2869 56.0923 57.0807 55.7436C56.8642 55.3775 56.8032 55.0254 56.721 54.7686C56.6184 54.4484 56.5293 54.0478 56.458 53.7463C56.4 53.5011 56.3225 53.2474 56.2727 52.9749C56.2227 52.701 56.0633 52.471 55.8913 52.1732C55.6659 51.783 55.6427 51.464 55.5466 51.1601C55.452 50.8606 55.3013 50.5468 55.0863 50.0026C54.9503 49.6584 54.8246 49.4308 54.6906 49.0727C54.5359 48.6595 54.3984 48.162 54.196 47.8294C54.0323 47.5605 53.996 47.2471 53.8715 46.9693C53.7562 46.7121 53.6109 46.4343 53.4328 45.9899C53.3183 45.7045 53.0617 45.5695 52.842 45.4052C52.6317 45.248 52.3105 45.3301 51.9936 45.2993C51.7114 45.2718 51.4897 45.1634 51.2448 45.0015C51.006 44.8436 50.826 44.6363 50.6665 44.2798C50.5474 44.0137 50.6547 43.7118 50.7176 43.4585C50.7755 43.2258 50.7871 42.9269 50.8125 42.5038C50.8456 41.9516 50.5562 41.4722 50.5006 41.2035C50.4471 40.9445 50.3398 40.6712 50.1907 40.4307C50.001 40.125 49.8008 39.9588 49.6033 39.7821C49.3931 39.5941 49.1351 39.5301 48.8687 39.4552C48.6196 39.3851 48.3776 39.261 48.117 39.1816C47.8405 39.0973 47.54 39.0711 47.2876 39.0033C46.9942 38.9244 46.7486 38.7572 46.2718 38.7999C45.9391 38.8297 45.6772 38.8179 45.3345 38.8683C45.0128 38.9156 44.7435 38.9766 44.2756 39.1459C43.9255 39.2726 43.6812 39.4297 43.4111 39.615C43.1426 39.7994 42.9803 40.1104 42.7908 40.3314C42.5672 40.5921 42.5218 40.8529 42.4464 41.0841C42.3667 41.3283 42.6988 41.5584 42.8286 41.766C42.9868 42.0187 42.2375 42.0405 41.9909 42.0834C41.7298 42.1289 41.5215 42.2974 41.2812 42.4869C41.0728 42.6513 40.7707 42.8308 40.5421 43.0375C40.3099 43.2475 40.144 43.5519 40.048 43.7854C39.9318 44.0678 39.7866 44.3677 39.6993 44.6126C39.6056 44.8756 39.5566 45.1303 39.486 45.4019C39.3731 45.8359 39.4657 46.1314 39.4937 46.4162C39.5214 46.6973 39.5371 47.0428 39.5829 47.3857C39.622 47.678 39.6629 48.0023 39.6884 48.3073C39.7139 48.6114 39.9478 48.8128 40.0901 49.032C40.2503 49.2786 40.2821 49.5582 40.4202 49.8073C40.5569 50.0538 40.9053 50.0818 41.1728 50.1868C41.4315 50.2884 41.6836 50.344 41.9421 50.4027C42.2481 50.4722 42.4976 50.4104 42.7417 50.3869C43.0053 50.3615 43.2357 50.136 43.4888 50.0033C43.7842 49.8485 43.9666 49.6893 44.0831 49.6392C44.3332 49.5317 44.6116 49.8129 44.8522 49.8944C45.0969 49.9772 45.2377 50.2448 45.4078 50.4429C45.573 50.6353 45.733 50.8312 45.8893 51.0573C46.0554 51.2975 46.2742 51.4531 46.3372 51.7023C46.3541 51.765 46.3758 51.8274 46.3929 51.8901C46.41 51.9528 46.4219 52.014 46.4341 52.077" stroke="#4E4235" stroke-linecap="round"/>
<line x1="74.4808" y1="31.1374" x2="70.4808" y2="45.1374" stroke="white"/>
</svg>
