<svg width="100" height="100" viewBox="0 0 100 100" fill="none" xmlns="http://www.w3.org/2000/svg">
<path d="M42.1325 63.4428C42.1195 63.4447 42.1686 63.4193 42.6494 63.0784C43.0923 62.7645 43.8672 62.1625 44.3738 61.7553C44.8804 61.3482 45.077 61.1538 45.2023 61.0369C45.3276 60.9201 45.3757 60.8867 45.5186 60.7271C45.6614 60.5674 45.8976 60.2825 46.091 59.9277C46.2845 59.5729 46.428 59.1568 46.5579 58.8284C46.6879 58.5 46.7998 58.2719 46.8452 57.7395C46.8907 57.207 46.8663 56.3771 46.8352 55.9141C46.8041 55.4511 46.7669 55.3801 46.7525 55.3308C46.7549 55.2138 46.759 55.1523 46.8025 55.0624C46.8096 55.0409 46.8072 55.0251 46.8236 55" stroke="black" stroke-opacity="0.91" stroke-width="2" stroke-linecap="round"/>
<path d="M48.9391 47.0013C48.9479 46.9915 48.9262 47.0424 48.772 47.6112C48.63 48.1351 48.4151 49.0926 48.2832 49.729C48.1513 50.3654 48.1233 50.6405 48.1009 50.8104C48.0786 50.9803 48.0627 51.0366 48.054 51.2507C48.0453 51.4647 48.0444 51.8348 48.1208 52.2316C48.1973 52.6284 48.3512 53.0407 48.4598 53.3768C48.5685 53.7128 48.6272 53.96 48.9309 54.3998C49.2345 54.8395 49.7812 55.4643 50.0998 55.8018C50.4183 56.1392 50.4921 56.1704 50.5346 56.1993C50.6072 56.2911 52.5113 56.2618 52.5349 56.3588C52.5432 56.3799 50.6869 56.4699 50.6902 56.4997" stroke="black" stroke-opacity="0.91" stroke-width="2" stroke-linecap="round"/>
<path d="M43.805 58.3399C43.8091 58.3299 43.8031 58.3742 43.7936 58.8406C43.7848 59.2702 43.7979 60.0406 43.8137 60.5492C43.8295 61.0577 43.8552 61.2681 43.8679 61.3996C43.8805 61.5311 43.8791 61.5775 43.9077 61.7369C43.9363 61.8963 43.995 62.1673 44.1084 62.4326C44.2218 62.6979 44.3883 62.9493 44.513 63.1596C44.6378 63.3699 44.7157 63.5316 44.9843 63.7541C45.2529 63.9767 45.7098 64.2553 45.9717 64.3982C46.2336 64.541 46.2868 64.5397 46.3192 64.547C46.3812 64.5905 47.6193 63.9477 47.6502 64.0109C47.659 64.0237 46.4618 64.6952 46.4688 64.7159" stroke="black" stroke-opacity="0.91" stroke-width="2" stroke-linecap="round"/>
<path d="M53.4256 60.3271C53.4115 60.3372 53.4598 60.2859 53.9077 59.7159C54.3202 59.191 55.027 58.2336 55.4853 57.5978C55.9436 56.9619 56.1111 56.6884 56.2199 56.5192C56.3287 56.3501 56.3737 56.2936 56.4902 56.0813C56.6067 55.869 56.7934 55.5026 56.912 55.1131C57.0305 54.7236 57.0753 54.3221 57.1294 53.9942C57.1835 53.6662 57.2457 53.4241 57.1464 53.002C57.0472 52.5799 56.7847 51.9852 56.6184 51.6651C56.4521 51.345 56.39 51.3174 56.3597 51.2906C56.3293 51.2029 56.3165 51.1549 56.3403 51.0599C56.3422 51.0394 56.3351 51.0294 56.3465 51" stroke="black" stroke-opacity="0.91" stroke-width="2" stroke-linecap="round"/>
<path d="M57.1756 60.4138C57.1818 60.4129 57.1539 60.3946 56.8576 60.1044C56.5847 59.8371 56.0939 59.3059 55.7696 58.9423C55.4454 58.5787 55.3104 58.3936 55.2261 58.2842C55.1419 58.1748 55.1124 58.1467 55.0097 57.9901C54.907 57.8335 54.732 57.5493 54.5581 57.1702C54.3843 56.791 54.2169 56.3255 54.0775 55.9622C53.9381 55.599 53.8318 55.3521 53.6782 54.7216C53.5246 54.0911 53.327 53.0846 53.2244 52.5186C53.1218 51.9526 53.1203 51.8578 53.1142 51.7947C53.0837 51.6542 53.0665 51.5811 53.0249 51.4837C53.0164 51.4595 53.0135 51.4399 53 51.4137" stroke="black" stroke-opacity="0.91" stroke-width="2" stroke-linecap="round"/>
<path d="M50.1325 70.4428C50.1195 70.4447 50.1686 70.4193 50.6494 70.0784C51.0923 69.7645 51.8672 69.1625 52.3738 68.7553C52.8804 68.3482 53.077 68.1538 53.2023 68.0369C53.3276 67.9201 53.3757 67.8867 53.5186 67.7271C53.6614 67.5674 53.8976 67.2825 54.091 66.9277C54.2845 66.5729 54.428 66.1568 54.5579 65.8284C54.6879 65.5 54.7998 65.2719 54.8452 64.7395C54.8907 64.207 54.8663 63.3771 54.8352 62.9141C54.8041 62.4511 54.7669 62.3801 54.7525 62.3308C54.7549 62.2138 54.759 62.1523 54.8025 62.0624C54.8096 62.0409 54.8072 62.0251 54.8236 62" stroke="black" stroke-opacity="0.91" stroke-width="2" stroke-linecap="round"/>
<path d="M56.9106 67.7002C56.9246 67.6975 56.8643 67.6858 56.2368 67.4593C55.6588 67.2507 54.6261 66.8213 53.9455 66.5241C53.2649 66.2269 52.986 66.067 52.8111 65.9737C52.6363 65.8805 52.5738 65.8587 52.3637 65.7201C52.1537 65.5815 51.7979 65.3267 51.4574 64.9697C51.1169 64.6126 50.8023 64.161 50.5372 63.8111C50.272 63.4612 50.0658 63.2267 49.8041 62.5941C49.5424 61.9616 49.2314 60.938 49.0758 60.36C48.9202 59.782 48.9293 59.6806 48.924 59.6147C48.8742 59.4727 48.8452 59.3991 48.7645 59.3066C48.7486 59.283 48.7447 59.2628 48.7178 59.2386" stroke="black" stroke-opacity="0.91" stroke-width="2" stroke-linecap="round"/>
<path d="M44.0009 69.9507C43.9939 69.9481 44.0324 69.9307 44.4705 69.6217C44.874 69.3371 45.615 68.7594 46.1084 68.3612C46.6018 67.963 46.8174 67.7533 46.9502 67.6304C47.0829 67.5074 47.1263 67.4776 47.2951 67.2975C47.464 67.1173 47.7571 66.7877 48.0776 66.3339C48.3982 65.8801 48.7374 65.3121 49.0125 64.871C49.2875 64.4298 49.4881 64.1327 49.8612 63.3463C50.2343 62.5599 50.7739 61.2932 51.0671 60.579C51.3604 59.8648 51.3911 59.7414 51.4174 59.6605C51.4961 59.4844 51.5387 59.3931 51.6174 59.2758C51.6348 59.2462 51.6442 59.2214 51.6681 59.1904" stroke="black" stroke-opacity="0.91" stroke-width="2" stroke-linecap="round"/>
<path d="M43.2797 67.0008C43.2826 66.9947 43.2966 67.0308 43.5594 67.4511C43.8015 67.8381 44.2973 68.5539 44.6399 69.0317C44.9825 69.5095 45.1654 69.7215 45.2723 69.8515C45.3792 69.9815 45.4045 70.023 45.5625 70.1904C45.7205 70.3578 46.0106 70.65 46.4144 70.9778C46.8183 71.3057 47.3272 71.6604 47.7219 71.9463C48.1165 72.2322 48.3815 72.4385 49.0915 72.8431C49.8015 73.2477 50.9485 73.8443 51.5958 74.1709C52.2432 74.4975 52.3561 74.536 52.4298 74.5669C52.5891 74.6531 52.6716 74.6994 52.7761 74.7805C52.8027 74.7987 52.8253 74.8094 52.8527 74.8335" stroke="black" stroke-opacity="0.91" stroke-width="2" stroke-linecap="round"/>
<path d="M44.0216 30C45.8902 31.7997 44.4479 35.3056 44.0216 33.3124C43.9591 33.0201 50.2623 35.5 48.8864 35.5C48.5912 35.5 44.8233 32.5454 44.8233 32.5454C44.8233 32.5454 46.7444 34.036 47.2467 34.2919C47.4767 34.409 48.269 32.4729 48.4163 33.3124C48.8427 35.742 50.3695 34.3632 50.9998 34.3692M50.9998 34.3692C52.0519 34.3792 51.2195 31.2476 50.9998 33.3124C50.6763 36.3529 53.7219 33.6213 53.7902 34.2282C54.0631 36.6545 54.8942 31.3217 54.729 33.5M50.9998 34.3692C51.7755 34.233 54.8724 36.1593 55.6063 35.995C56.4201 35.8127 57.2538 36.0999 57.4004 35.5C58.5 31 56.9015 32.9426 57.1965 32.5454C57.5436 32.0782 57.524 32.8664 55.6063 33.5C53.6886 34.1336 55.0315 33.3155 54.729 33.5M50.9998 34.3692C49.9278 34.5574 49.6574 34.472 48.8864 34.4224C48.2407 34.3809 47.0803 34.2737 46.4532 34.2282C45.5841 34.165 45.1724 34.227 44.8933 34.2494M54.729 33.5C54.4836 36.7361 58.9086 30.0982 58.0898 31.5067C57.2068 33.0257 54.8443 35.6106 56.3141 34.2282C57.2758 33.3236 52.8326 34.6567 54.729 33.5ZM44.8933 34.2494C44.7683 34.2594 45.3328 34.0384 44.8933 34.2494ZM44.8933 34.2494C44.4709 34.4522 43.9691 37.0318 44.5 37C47.9329 36.7944 43.4904 38.6772 44.0216 39C44.8878 39.5263 45.8813 37.9639 46.3902 38.1485C46.7758 38.2884 47.3951 38.288 48.194 38.2772C48.6256 38.2713 49.1089 38.2002 49.6677 38.1058C50.8493 37.906 51.7157 37.7209 52.1062 37.6765C52.3439 37.6495 52.8569 37.5544 53.7971 37.4764C54.8602 37.3883 55.6249 37.509 55.9711 37.5921C56.5363 37.7278 58.2936 37.8443 58.5 38.1058C58.6969 38.3553 57.3754 38.9646 57.4004 39.4324C57.4216 39.8267 57.1139 40.2877 56.8541 40.6568C56.5341 41.1116 55.8451 41.3904 55.1277 41.6139C54.7628 41.7276 54.0961 41.7796 52.5141 41.715C50.9321 41.6504 48.4458 41.4191 46.9764 41.3275C45.1321 41.2125 44.6828 41.3808 44.5659 41.4418C44.242 41.611 43.9347 43.3919 44.4995 43.5M44.4995 43.5C46.1986 43.8252 44.5484 43.2445 44.4995 43.5ZM44.4995 43.5C44.4331 43.8463 43.7999 43.355 43.7999 44.0164C43.7999 46 44.3821 44.2162 45.1758 44.3498C45.9695 44.4835 47.1981 44.6487 48.4163 44.6733C49.6346 44.6978 50.8051 44.5766 51.6935 44.4812C52.582 44.3857 53.1527 44.3196 53.7902 44.2966C54.4277 44.2736 55.1145 44.2956 55.6667 44.3841C56.6297 44.5383 57.4202 41.3364 57.5715 41.6139C57.8255 42.08 57.5513 46.4057 57.5715 47.1529C57.5791 47.4329 57.7503 48.1281 57.6433 48.3498C57.3857 48.8838 55.9876 48.8756 54.7802 49.2962C54.5595 49.3731 54.3699 49.369 53.9608 49.3638C53.5517 49.3586 52.9229 49.3256 51.5928 49.1158C50.2628 48.906 48.2506 48.5205 47.006 48.3219C45.7614 48.1233 44.2125 49.2411 43.7999 49.2962C42.5037 49.4692 45.8435 48.8706 45.647 49.1158C45.4377 49.377 43.2817 52.7942 44 53C47.0949 53.8867 43.7101 52.307 44.9328 52.3561C46.9529 52.4372 43.9851 53.3616 44.4995 53.602C44.8384 53.7605 45.3149 53.7861 46.0733 53.7809C46.5807 53.7775 47.3347 53.6766 49.044 53.3891C50.7532 53.1015 53.3943 52.6059 54.8516 52.3561C56.7754 52.0262 57.5931 50.722 58 51C58.2215 51.1513 56.7565 53.2913 56.8541 53.602C56.9482 53.9014 58.1481 53.93 58.0898 54.1352C57.9267 54.7092 57.1748 55.451 56.3141 56.0705C55.8438 56.4089 55.1139 56.7998 54.284 57.0611C53.8274 57.2049 53.5758 57.235 53.0662 57.3016C52.6647 57.3541 51.9666 57.3682 50.9306 57.2806C49.8946 57.1929 48.5402 56.9837 47.6538 56.8869C46.3943 56.7493 45.9144 56.8568 45.647 56.9067C44.5758 57.1067 47.0474 57.3857 44.8233 56.0705C44.3342 55.7813 42.7935 58.8851 44.9328 59.5C47.6292 60.275 44.4787 59.0831 44.5659 59.5C44.6463 59.8843 45.1207 60.982 45.647 61.3765C45.7888 61.4828 44.0685 60.5247 44.0216 61.061C43.6338 65.5 45.465 61.3594 46.2045 61.4612C46.944 61.563 47.476 61.5851 48.645 61.4863C49.814 61.3875 51.6037 61.1672 52.8401 60.9876C54.0765 60.808 54.7053 60.6759 55.1066 60.6023C55.9246 60.4523 56.5317 60.4175 57.2758 60.4781C57.6642 60.5097 57.3147 57.7884 57.6433 58C57.9896 58.223 57.2634 61.2343 57.4004 62C57.552 62.8469 58.0658 64 57.0822 64C56.2089 64 57.6709 64.7546 57.349 65.0657C57.0985 65.3078 56.4915 65.5556 55.5072 65.8722C55.0021 66.0347 54.4649 66.1117 52.9573 66.2234C51.4498 66.335 48.9829 66.4562 47.4412 66.5626C45.8994 66.6691 45.3577 66.7572 44.89 66.8797C44.0331 67.1041 46.8796 67.1784 46.5 67.5M46.5 67.5C46.0046 67.9196 43.848 66.7612 43.7211 67C43.5629 67.2976 49.5642 64.4336 46.5 67.5ZM46.5 67.5C44.5496 69.4518 42.9789 70.1374 43.7211 70.2545C43.8975 70.2824 43.9371 70.4528 44.9112 70.2545C45.8854 70.0562 47.7041 69.6597 49.0957 69.3123C50.4873 68.9648 51.3967 68.6784 52.286 68.4703C53.1753 68.2622 54.017 68.1411 54.615 68.0897C56.1587 67.957 56.8858 68.4381 57.3012 68.9099C57.6617 69.3193 56.4106 68.7215 56.5684 69.3123C56.673 69.7034 58.0939 72.0565 57.2119 72.6124C56.5785 73.0117 55.354 72.8002 54.9416 72.8554C54.6161 72.899 54.0551 72.9768 53.3839 72.9945C51.9486 73.0323 50.9385 72.8676 50.5385 72.7787C50.3619 72.7394 50.1065 73.1158 49.5 72.9945C48.8935 72.8731 47.6222 72.8978 47.006 72.7787C46.0249 72.589 45.9053 71.9547 44.8233 71.9048C44.5949 71.899 44.5369 71.91 44.3618 71.9212C44.1868 71.9324 44.4672 71.5554 44.0216 71.5" stroke="#BAE2F3" stroke-opacity="0.27" stroke-width="7" stroke-linecap="round"/>
<path d="M40.0504 72.7122C40.0626 72.7287 40.2206 73.0354 40.2926 73.255C40.3474 73.4221 40.4678 73.5935 40.512 73.6917C40.5589 73.7958 40.6305 73.9109 40.7166 74.0135C40.8002 74.1132 40.9645 74.2161 41.0926 74.2936C41.2103 74.3649 41.3035 74.4668 41.381 74.5755C41.4952 74.7357 41.646 74.7805 41.755 74.8327C41.873 74.8894 41.9639 74.9976 42.0766 75.1083C42.2215 75.2507 42.3774 75.2985 42.48 75.3489C42.5897 75.4027 42.7242 75.4825 42.8975 75.5825C43.1657 75.7372 43.2424 75.8586 43.4095 75.9296C43.5337 75.9824 43.6727 76.0466 43.8503 76.1135C44.0415 76.1854 44.2032 76.2721 44.3664 76.3392C44.5709 76.4233 44.891 76.5017 45.1396 76.5795C45.3575 76.6476 45.5281 76.7111 45.689 76.7779C45.997 76.9058 46.2928 76.9327 46.5037 76.9765C46.7114 77.0195 47.2045 77.1286 47.5174 77.1897C47.7591 77.2369 47.9602 77.267 48.298 77.29C48.5501 77.3072 48.7663 77.3296 49.0316 77.3672C49.4136 77.4214 49.5734 77.4217 50.0337 77.4405C50.5712 77.4624 50.99 77.4843 51.1693 77.4803C51.5463 77.4717 51.6627 77.5011 52.2191 77.4991C52.3609 77.4985 52.5767 77.4886 52.8795 77.4865C53.0211 77.4856 53.3073 77.4347 53.7373 77.372C54.1007 77.319 54.2367 77.3382 54.6745 77.2467C55.0623 77.1657 55.3066 77.0293 55.7757 76.9248C55.973 76.8809 56.2291 76.7996 56.4039 76.747C56.5483 76.7036 57.2289 76.5835 57.5 76.5C58.0167 76.3409 57.8621 76.3275 58.1586 76.2291C58.3061 76.1688 58.4162 76.114 58.4662 76.0744C58.4914 76.0554 60.4619 74.5421 60.5 74.5" stroke="black" stroke-opacity="0.64" stroke-linecap="round"/>
<path d="M44.258 23.3076C44.258 23.3027 41.319 23.3589 41.3337 23.3539C41.3484 23.3489 41.3778 23.344 41.3905 23.3611C41.574 23.6079 42.2923 24.2913 42.2949 24.4473C42.2976 24.6139 41.6705 23.7705 41.7176 24.7633C41.7402 25.2397 41.4625 25.0171 41.539 25.1558C41.6521 25.3609 41.6951 25.6506 41.7176 25.8193C41.7373 25.9679 41.8039 26.1848 41.8906 26.3888C41.9719 26.5801 42.1108 26.6563 42.21 26.7654C42.3601 26.9305 42.6899 27.0821 42.9001 27.1937C43.2527 27.3808 43.4574 27.4734 43.6211 27.5406C43.8129 27.6192 44.037 27.6719 44.1634 27.7065C44.2441 27.7286 44.4471 27.7609 44.849 27.8054C45.4201 27.8686 45.8002 27.8503 45.9405 27.8429C46.203 27.829 46.3995 27.8453 46.7651 27.8699C47.1012 27.8925 47.7436 27.9239 48.1529 27.9513C48.5622 27.9788 48.7191 27.9984 49.0524 28.0036C49.8906 28.0167 50.4452 27.984 50.5144 27.9791C50.5835 27.9741 50.7169 27.9889 51.0714 27.9865C51.7397 27.9819 52.2571 27.979 52.4154 27.984C52.6385 27.991 52.9058 27.9643 53.7552 27.9493C54.0502 27.9442 54.5029 27.9592 55.0148 27.9691C55.2191 27.973 55.6025 27.92 56.0451 27.8579C56.2652 27.827 56.5209 27.7762 56.724 27.7365C57.142 27.6549 57.907 27.5189 58.0958 27.4494C58.3823 27.344 58.7434 27.2714 58.955 27.2338C59.1387 27.2012 59.7149 27.2957 59.8567 27.2338C59.9724 27.1832 59.6511 26.8706 59.6835 26.7094C59.7237 26.5096 59.7994 26.1637 59.8567 25.9273C59.9402 25.5831 59.9485 25.3852 59.9757 25.2262C60.0106 25.0213 60.1215 24.7559 60.1811 24.6196C60.248 24.4667 60.1913 24.2262 60.1443 24.0379C60.0812 23.7848 59.9884 23.508 59.9266 23.3076C59.8595 23.0901 59.751 22.983 59.6051 22.8812C59.5003 22.8082 59.3402 22.7945 59.0032 22.7206C58.2952 22.5653 57.7898 22.5121 57.6839 22.4874C57.336 22.4064 56.6659 22.2851 56.2673 22.2372C55.9609 22.2003 55.4825 22.2001 55.2894 22.1926C55.0518 22.1834 54.7843 22.1704 54.3101 22.1629C54.2046 22.1612 54.1654 22.1555 53.851 22.153C53.5366 22.1505 52.9483 22.1505 52.6232 22.1529C52.2539 22.1557 51.8359 22.1653 51.2493 22.1678C51.0353 22.1687 50.9912 22.1751 50.6988 22.1728C50.4065 22.1704 49.8672 22.1606 49.5526 22.1506C49.238 22.1407 49.1645 22.1309 48.705 22.1013C48.2455 22.0717 47.4023 22.0227 46.9139 21.9999C46.1631 21.9648 45.9455 21.9722 45.6236 22.0092C45.2879 22.0478 44.8627 22.0563 44.578 22.086C44.4002 22.1046 44.133 22.1306 43.8924 22.1751C43.683 22.2138 43.4449 22.2836 43.1622 22.4815C42.9251 22.6474 42.8248 22.764 42.7011 22.9789C42.5439 23.2521 42.4192 23.5009 42.2949 23.7541C42.2242 23.8981 42.2302 24.0562 42.235 24.2592C42.2398 24.4648 42.4225 24.591 42.5687 24.72C42.7136 24.8478 42.8389 24.9531 42.9595 25.0196C43.1743 25.1381 43.452 25.2203 44.258 25.3778C44.9339 25.5099 46.1621 25.6922 48.0951 25.7736C50.0281 25.855 52.6313 25.8158 54.4234 25.6902C56.2155 25.5646 57.1176 25.3538 57.6509 25.2182C58.5223 24.9967 58.6359 24.8448 58.7026 24.7633C58.7346 24.7243 58.7449 24.6769 58.728 24.637C58.711 24.5971 58.662 24.5628 58.4848 24.5035C58.3075 24.4441 58.0036 24.3608 56.2022 24.2124C54.4008 24.0641 51.1112 23.8533 49.2327 23.7569C47.3543 23.6606 46.9866 23.6851 46.7555 23.7051C46.4403 23.7323 46.2522 23.7598 45.7776 23.8114C45.4052 23.8518 44.7686 23.9463 44.2736 23.9942C43.4474 24.0742 43.0478 24.0472 42.917 24.0275C42.558 23.9734 42.3399 23.8099 42.2058 23.6565C42.0891 23.523 41.9786 23.0846 41.9034 22.79C41.8556 22.6025 41.9919 22.3793 42.0936 22.245C42.1927 22.1139 42.5499 22.0717 43.1818 21.9063C43.5472 21.8106 44.2076 21.6926 44.5828 21.622C44.958 21.5513 45.0315 21.5464 45.1209 21.5341C45.2102 21.5218 45.3132 21.5022 46.1433 21.4479C46.9734 21.3937 48.5275 21.3055 50.2914 21.3433C52.0553 21.3812 53.982 21.5479 55.0824 21.6656C56.1828 21.7834 56.3985 21.8471 56.5268 21.8824C56.6883 21.9268 57.1513 22.0355 57.9593 22.2724C58.6859 22.4855 59.0468 22.7149 59.1505 22.7543C59.3912 22.8459 59.5516 23.0311 59.656 23.1455C59.77 23.2544 59.8689 23.3731 59.9779 23.5611C59.998 23.6061 60.0029 23.6355 60.008 23.6955" stroke="#084D2E" stroke-width="3" stroke-linecap="round"/>
<path d="M41 28C41.0972 27.9995 41.3364 28.4086 42.0673 28.7282C42.5713 28.9486 42.9753 29.1661 43.3764 29.2776C43.8329 29.4043 44.3973 29.4574 44.8892 29.5521C45.3833 29.6472 46.097 29.6983 46.915 29.741C48.5349 29.8256 49.1894 29.8691 49.7061 29.9126C50.3344 29.9655 51.055 29.9895 51.6112 29.9986C52.4769 30.0126 53.5251 29.9216 53.9667 29.8614C54.6007 29.775 54.9971 29.7672 55.6176 29.6558C56.6384 29.4725 57.3024 29.4585 57.9815 29.347C58.6905 29.2307 59.3152 29.1836 59.814 29.0215C60.3466 28.8064 60.279 28.8651 60.5238 28.7282C60.6391 28.6592 61.5 28 61.5 28" stroke="black" stroke-linecap="round"/>
<path opacity="0.02" d="M61.5 27C61.398 27.0003 61.6468 26.7957 60.8794 26.6359C60.3501 26.5257 59.9259 26.4169 59.5048 26.3612C59.0255 26.2978 58.4328 26.2713 57.9163 26.2239C57.3975 26.1764 56.6481 26.1509 55.7892 26.1295C54.0883 26.0872 53.4012 26.0654 52.8586 26.0437C52.1988 26.0173 51.4423 26.0052 50.8583 26.0007C49.9493 25.9937 48.8487 26.0392 48.385 26.0693C47.7193 26.1125 47.303 26.1164 46.6515 26.1721C45.5797 26.2637 44.8825 26.2708 44.1694 26.3265C43.4249 26.3846 42.769 26.4082 42.2453 26.4892C41.686 26.5968 41.7571 26.5675 41.5 26.6359C41.3789 26.6704 41 27 41 27" stroke="black" stroke-linecap="round"/>
<line x1="61.5" y1="28" x2="61.5" y2="72" stroke="black"/>
<line x1="40.5" y1="29" x2="40.5" y2="72" stroke="black"/>
<path d="M61.5466 72.1308C61.5466 72.1227 61.5749 72.1145 61.5976 72.1205C61.8276 72.1814 61.2732 72.7506 61.2175 72.9258C61.1867 73.0225 61.1788 73.197 61.1012 73.3694C61.0321 73.5228 60.9093 73.6797 60.7211 73.903C60.6258 74.0161 60.5572 74.1179 60.4491 74.2385C60.2573 74.4524 60.0505 74.5719 59.7422 74.8107C59.5892 74.9292 59.4655 74.9566 59.3102 75.0219C59.1247 75.0998 59.0199 75.2221 58.5365 75.4406C58.2309 75.5787 57.909 75.6918 57.7149 75.7787C57.5961 75.8318 57.4497 75.8889 57.1329 75.983C56.885 76.0567 56.5535 76.1426 56.3047 76.2243C56.1496 76.2752 56.0137 76.2899 55.8267 76.3266C55.4634 76.3977 55.1591 76.4331 54.7775 76.4859C54.4645 76.5291 53.91 76.6115 53.6101 76.6532C53.2823 76.6988 53.2202 76.699 53.0517 76.7072C52.677 76.7253 52.4022 76.7235 52.3471 76.7297C52.2964 76.7353 51.8621 76.7641 51.2021 76.8112C50.6339 76.8517 50.2636 76.7563 50.0719 76.7461C49.9744 76.7409 49.8123 76.744 49.5123 76.7319C49.2122 76.7197 48.779 76.6954 48.3088 76.6384C47.8387 76.5813 47.3447 76.4923 47.0639 76.4443C46.7313 76.3876 46.6075 76.372 46.4222 76.3374C46.1459 76.2857 45.8514 76.2494 45.4872 76.1336C45.2448 76.0566 44.9002 75.9004 44.6601 75.7909C44.2933 75.6236 44.1207 75.5254 43.9458 75.4584C43.6276 75.3364 43.3886 75.1944 43.2968 75.1209C43.2202 75.0596 43.0703 74.986 42.8216 74.8394C42.4936 74.6461 42.1955 74.3204 41.9381 74.0488C41.5951 73.6868 41.3603 73.3992 41.2133 73.2401C40.7922 72.7844 40.6528 72.5168 40.536 72.3521C40.5052 72.3233 40.4688 72.295 40.4399 72.2662C40.411 72.2374 40.3908 72.2091 40.3699 72.1799" stroke="black" stroke-linecap="round"/>
<path opacity="0.09" d="M40 72C40.102 72.0005 40.3532 71.5914 41.1206 71.2718C41.6499 71.0514 42.0741 70.8339 42.4952 70.7224C42.9745 70.5957 43.5672 70.5426 44.0837 70.4479C44.6025 70.3528 45.3519 70.3017 46.2108 70.259C47.9117 70.1744 48.5988 70.1309 49.1414 70.0874C49.8012 70.0345 50.5577 70.0105 51.1417 70.0014C52.0507 69.9874 53.1513 70.0784 53.615 70.1386C54.2807 70.225 54.697 70.2328 55.3485 70.3442C56.4203 70.5275 57.1175 70.5415 57.8306 70.653C58.5751 70.7693 59.231 70.8164 59.7547 70.9785C60.314 71.1936 60.2429 71.1349 60.5 71.2718C60.6211 71.3408 61 72 61 72" stroke="black" stroke-linecap="round"/>
<path d="M41 22C41.0974 21.9995 41.3372 22.4086 42.0697 22.7282C42.5749 22.9486 42.9798 23.1661 43.3818 23.2776C43.8393 23.4043 44.405 23.4574 44.8981 23.5521C45.3933 23.6472 46.1086 23.6983 46.9285 23.741C48.552 23.8256 49.208 23.8691 49.7258 23.9126C50.3556 23.9655 51.0778 23.9895 51.6353 23.9986C52.5029 24.0126 53.5535 23.9216 53.9962 23.8614C54.6316 23.775 55.029 23.7672 55.6508 23.6558C56.6739 23.4725 57.3394 23.4585 58.0201 23.347C58.7308 23.2307 59.3568 23.1836 59.8567 23.0215C60.3906 22.8064 60.3228 22.8651 60.5682 22.7282C60.6838 22.6592 61.5 22 61.5 22" stroke="black" stroke-linecap="round"/>
<path d="M61.5 22C61.398 22.0005 61.1468 21.5914 60.3794 21.2718C59.8501 21.0514 59.4259 20.8339 59.0048 20.7224C58.5255 20.5957 57.9328 20.5426 57.4163 20.4479C56.8975 20.3528 56.1481 20.3017 55.2892 20.259C53.5883 20.1744 52.9012 20.1309 52.3586 20.0874C51.6988 20.0345 50.9423 20.0105 50.3583 20.0014C49.4493 19.9874 48.3487 20.0784 47.885 20.1386C47.2193 20.225 46.803 20.2328 46.1515 20.3442C45.0797 20.5275 44.3825 20.5415 43.6694 20.653C42.9249 20.7693 42.269 20.8164 41.7453 20.9785C41.186 21.1936 41.2571 21.1349 41 21.2718C40.8789 21.3408 40.5 21.5 40.5 21.5" stroke="black" stroke-linecap="round"/>
<line x1="61.5" y1="28" x2="61.5" y2="22" stroke="black"/>
<path d="M40.5 30V21.5" stroke="black"/>
<path d="M60.7084 50.5C60.8319 51.6541 60.8584 65.0064 60.8319 65.4488C60.8187 65.6672 60.8252 65.8493 60.8449 66.0156C60.8697 66.226 60.8319 66.5645 60.8351 66.8065C60.8373 66.9699 60.8448 67.1512 60.8482 67.3404C60.8514 67.5167 60.8484 67.8307 60.8482 68C60.8476 68.4613 60.9067 69.1727 60.9067 69.1727C60.9067 69.1727 60.8872 69.7699 60.8872 70.5C60.8872 70.8927 60.8971 71.1811 60.8872 71.4447C60.88 71.6379 60.8451 71.8061 60.8124 71.9919C60.7778 72.1886 60.767 72.3725 60.7084 72.5356C60.6442 72.7143 60.4553 72.9061 60.305 73.076C60.1767 73.221 59.9928 73.3494 59.8364 73.4602C59.6558 73.588 59.5175 73.74 59.3871 73.8443C59.2438 73.9422 59.1136 73.9943 59.0389 74.0267C59.0028 74.0463 57.0527 74.9734 57 75" stroke="white" stroke-linecap="round"/>
<path d="M60.5523 23.7306C60.5619 23.7401 60.5714 23.7497 60.562 24.1318C60.5526 24.514 60.524 25.2684 60.4655 26.1615" stroke="white" stroke-linecap="round"/>
</svg>
