<svg width="100" height="100" viewBox="0 0 100 100" fill="none" xmlns="http://www.w3.org/2000/svg">
<path d="M49.271 35.0719C48.9764 35.6612 49.7976 34.1036 49.4601 35.2548M49.271 35.0719C49.3176 34.9788 53.1323 34.0489 49.0547 33.0489C47.8785 33.934 54.2907 31 49.3037 33.4582C48.1821 31.5767 48.5106 32.5496 48.875 33.629C49.0361 34.1062 49.2042 34.6041 49.2572 34.8856M49.271 35.0719C49.1136 35.8977 48.9789 36.7068 49.1027 37.2372M49.271 35.0719C49.2785 35.0326 49.2729 34.9685 49.2572 34.8856M49.4601 35.2548C49.3914 35.107 49.3232 34.9806 49.2572 34.8856M49.4601 35.2548C49.2249 36.0572 49.0547 36.6832 49.0547 36.6968M49.4601 35.2548C49.6923 35.7541 49.9302 36.4973 50.1055 37.0972M49.2572 34.8856C49.1394 34.7157 49.0289 34.6462 48.9357 34.7343C48.5539 35.0956 49.7473 36.1605 50.0482 36.7907M50.1784 37.3506C50.2949 37.181 50.4229 36.9655 50.5636 36.6968C51.1314 35.6122 52.4605 29 50.1273 35.5C50.0062 35.8372 50.0026 36.3247 50.0482 36.7907M50.1784 37.3506C50.1556 37.27 50.1312 37.1852 50.1055 37.0972M50.1784 37.3506C50.2491 37.5376 50.319 37.7789 50.3771 38.088M50.1784 37.3506C50.148 37.2704 50.1137 37.2016 50.0863 37.1394M50.1784 37.3506C50.3 37.7805 50.3771 38.088 50.3771 38.088M50.1784 37.3506C49.5313 38.2926 49.2393 37.8224 49.1027 37.2372M50.1055 37.0972C50.1277 37.0265 50.1114 36.9374 50.0684 36.8353M50.1055 37.0972C50.1009 37.1121 50.0945 37.1262 50.0863 37.1394M50.0684 36.8353C50.0622 36.8207 50.0555 36.8058 50.0482 36.7907M50.0684 36.8353C50.0274 36.9694 50.0543 37.0564 50.0863 37.1394M50.0684 36.8353C50.081 36.794 50.1 36.7483 50.1273 36.6968M50.0482 36.7907C50.1313 37.6377 50.3771 38.4138 50.3771 38.088M49.1027 37.2372C48.2218 38.3973 49.8298 37.5539 50.0863 37.1394M49.1027 37.2372C50.9846 34.7592 48.9942 37.6384 48.9357 38.088C48.8777 38.535 49.1357 40.2444 49.1027 40.9139C49.0773 41.4304 49.3516 38.546 49.3516 41.9409C49.3516 42.9679 45.3609 42.8716 44.421 43.7361C43.7935 44.3132 41.4578 44.6333 40.67 45.5624C39.4133 47.0444 38.9784 47.563 38.5873 47.9702C38.0096 48.5714 37.7472 49.3424 37.024 50.0664C36.5021 50.5888 36.2154 51.2906 35.8163 51.9055C35.4544 52.4628 35.0362 53.3496 34.7169 54.0613C34.4163 54.7314 34.4171 55.849 34.3339 56.4901C34.188 57.6155 34.1504 58.4103 34.2333 59.5346C34.2954 60.3768 34.466 61.4718 34.6075 62.1661C34.7806 63.0151 35.2479 64.087 35.3979 64.8185C35.6001 65.8045 36.6254 66.3827 37.024 67.1723C37.565 68.2437 38.3873 69.9395 39.0498 70.6295C39.6311 71.2348 42.9121 73.5282 43.2364 72.4923C43.7097 70.9802 41.684 71.5244 42.4429 71.9011C43.3775 72.365 46.8072 73.4549 48.5 73.5885C49.7861 73.69 48.8591 74.2932 49.3516 74.1926C49.6214 74.1375 50.2061 74.0106 51.4813 73.5885C52.3311 73.3072 53.5802 72.8533 54.4313 72.4923C55.7283 71.9421 57.206 71.1348 58.936 70.3699C60.2683 69.7808 61.0254 69.2006 61.6495 68.8518C62.5232 68.3636 62.8238 67.8196 63.4055 67.1723C64.0829 66.4184 64.4195 65.2963 64.7967 64.5498C65.0818 63.9858 65.2214 63.2283 65.305 62.5782C65.3778 62.0123 65.4051 61.1173 65.3472 60.464C65.2932 59.8552 66.1243 58.1097 66 56.4581C65.9304 55.534 66.2664 53.8704 66 52.8109C65.8511 52.2185 64.1239 51.3276 63.9165 50.6376C63.7732 50.1608 63.427 49.615 62.7035 48.6579C62.1973 47.9883 61.6381 47.2088 60.5 46.535C59.0207 45.6592 59.3606 45.5497 58.936 45.4251C57.9654 45.1404 54.5488 45.2843 52.9527 45.4251C52.2507 45.487 51.5292 45.6827 50.5636 46.007C49.751 46.2799 48.95 46.7622 48.1664 47.2217C47.7783 47.4493 47.1686 47.7118 46.4381 48.2013C45.684 48.7067 44.6422 49.8033 43.4784 51.1743C42.9862 51.7542 42.7759 52.1663 42.4429 53.1032C42.1099 54.0401 41.6815 55.5065 41.4444 56.3937C41.1391 57.5357 41.1403 58.3928 41.2144 59.5961C41.2947 60.8983 41.9851 62.4834 42.6419 63.9555C42.9649 64.6796 43.5823 65.2344 44.421 65.9987C45.8542 67.3048 47.7587 67.6339 48.8087 67.7846C49.2859 67.8532 49.9236 67.7522 50.9428 67.5373C52.4403 67.2215 53.5198 66.6877 54.092 66.3894C54.836 66.0015 55.4176 65.507 55.9643 65.0179C57.5601 63.5904 58.4612 62.4634 59.1784 61.5145C59.5189 61.064 59.7119 60.2676 59.9777 59.255C60.248 58.2255 60.2296 57.3039 60.0808 56.4581C59.7408 54.5252 59.0503 53.9248 57.7133 52.8109C57.2658 52.4382 56.2763 52.2257 54.9298 52.0011C53.3002 51.7292 51.5492 52.372 50.4725 52.8626C49.0561 53.5079 48.1381 55.3397 47.5403 56.6476C46.9904 57.8504 47.53 59.3239 47.7215 60.0192C47.9482 60.8425 48.5446 61.3909 48.9357 61.9334C49.3263 62.4751 50.6695 62.4424 52.3515 62.1199C52.8849 62.0176 53.5009 61.2831 54.2907 60.3936C54.7566 59.869 55.101 59.0374 55.5164 57.5945C55.7481 56.7897 55.833 55.7891 55.9009 54.4725C55.9688 53.1559 55.9688 51.5412 55.9605 50.66C55.9473 49.248 55.6882 47.4921 55.4206 46.535C55.1454 45.5509 54.6068 45.0706 54.2226 44.645C53.9021 44.29 53.6731 44.0366 53.5151 43.9123C53.4401 43.8533 53.4395 43.7386 53.4886 43.6711C53.7366 43.3313 54.3192 43.6027 54.7191 43.7361C54.8194 43.7695 57.5067 44.016 57.5 44C57.3414 43.624 54.0406 43.5538 53.6237 43.4789C53.2113 43.4049 52.7924 43.1883 52.4087 42.9055C52.0176 42.6172 51.66 42.3566 51.3847 41.9409C51.2431 41.7272 51.1598 41.4908 51.0681 41.2916C50.8933 40.9115 51.2087 40.4433 51.1098 40.0434C50.9987 39.5938 50.5277 39.4932 50.3861 39.3607C50.0703 39.0649 50.4268 38.4962 50.3771 38.088" stroke="#BAE2F3" stroke-opacity="0.27" stroke-width="9" stroke-linecap="round"/>
<path d="M30.5 59.2687C30.4839 59.2526 30.0805 58.3901 30.8304 58.164C31.5029 57.9613 32.7878 57.6482 33.556 57.4661C34.5357 57.2338 34.9506 57.1946 35.3761 57.1296C36.2767 56.992 36.8192 57.0397 37.2404 57.0195C37.7161 56.9966 38.0253 57.0641 38.362 57.0479C38.8012 57.0267 39.132 57.0722 39.6278 57.1367C40.0752 57.1949 40.9208 57.2978 41.5696 57.3558C42.2184 57.4137 42.6451 57.4218 43.0984 57.3897C43.5517 57.3576 44.0187 57.2852 44.7543 57.0828C45.49 56.8804 46.4803 56.5503 47.1354 56.3078C48.0931 55.9533 48.5882 55.6906 48.9657 55.5525C49.5691 55.3318 50.3511 55.0324 50.9509 54.7959C51.5317 54.567 52.4434 54.5756 52.6881 54.5554C52.8333 54.5434 52.9811 54.5432 53.5174 54.5552C53.9897 54.5657 54.8669 54.6235 55.3754 54.6564C56.1804 54.7085 56.5654 54.8596 57.5442 55.4272C58.112 55.7565 58.5743 56.1112 58.9939 56.299C59.2552 56.416 60.1227 56.6396 61.2487 56.8876C61.8895 57.0288 62.3953 57.088 62.7922 57.1169C62.9264 57.1267 63.7171 57.1212 64.8391 57.0928C65.4568 57.0771 65.9099 57.0153 66.1755 56.9951C66.4714 56.9725 66.958 57.0392 67.2815 57.0884C67.558 57.1304 68.008 57.2832 68.3708 57.4092C68.6601 57.5097 68.7902 57.7707 68.9367 58.0186C69.0828 58.266 69.0752 58.5187 69.0998 59.5565C69.1113 60.0416 69.1566 60.2991 69.2095 60.5925C69.2521 60.8292 69.2708 61.072 69.2585 61.2961C69.243 61.5787 69.1571 61.8366 69.0314 62.194C68.8796 62.6253 68.6131 63.1028 68.5227 63.439C68.4426 63.7368 68.3115 64.1211 68.2017 64.6495C68.1081 65.1003 67.9778 65.3581 67.8967 65.602C67.8112 65.8589 67.6211 66.4842 67.2633 67.4257C67.075 67.9213 66.7267 68.4052 66.5752 68.7858C66.4628 69.0682 66.1817 69.4718 65.9618 69.7414C65.6732 70.0951 65.3361 70.4067 65.136 70.6728C64.9548 70.9138 64.5393 71.1152 64.1002 71.623C63.792 71.9794 63.3678 72.2053 63.1803 72.3765C62.9508 72.5861 62.7173 72.7264 62.0235 73.0873C61.6443 73.2846 61.0935 73.57 60.6598 73.7998C60.3252 73.9772 60.0903 74.0355 59.8305 74.1616C59.3256 74.4067 59.1144 74.5152 58.754 74.7141C57.6134 75.3437 56.9353 75.3773 56.4886 75.5116C56.0649 75.639 55.7808 75.8082 55.103 75.9751C54.5066 76.1219 53.483 76.4555 53.2674 76.5C52.6682 76.6237 52.2833 76.2971 52.0151 76.2565C51.7317 76.2136 52.2755 77.1303 50.9139 77C49.9747 76.9101 49.3733 76.5947 49 76.5C48.7526 76.4373 48.1207 76.1536 46.9818 75.9751C46.5372 75.9053 44.7543 76.5084 44.7286 75.0408C44.721 74.6073 42.6374 75.5774 43.3514 75.5116C43.6615 75.4831 43.2082 74.6303 42.9476 74.5691C42.522 74.469 41.3526 74.7839 41.124 74.7141C40.9303 74.655 41.4365 74.0941 40.7735 73.7691C40.2832 73.5287 40.0424 74.1293 39.5569 73.7998C38.9029 73.356 38.2966 71.9315 38.1043 71.7272C37.9481 71.5613 37.5018 71.0879 36.878 70.2496C36.4137 69.6257 36.1331 69.2815 35.8607 68.8701C35.1761 67.8359 34.8391 67.2795 34.6608 67.0273C34.3315 66.5616 34.0433 66.2241 33.2883 65.2974C32.6933 64.567 37.9609 73.5523 37.7689 73.1734C37.5724 72.7856 33.0939 66.7779 33 66.2463C32.9056 65.712 31.0691 61.4559 31.3297 61.0476C31.5405 60.7173 32.398 60.3255 32.7472 60.147C33.0623 59.986 33.5905 59.8458 34.0444 59.7522C34.4268 59.6732 34.7396 59.6829 35.5681 59.6059C36.1755 59.5495 37.3203 59.5131 37.9495 59.4881C38.8784 59.4511 39.3018 59.4711 40.0278 59.4956C40.7577 59.5203 41.2438 59.4555 41.6277 59.4226C41.9103 59.3983 42.1811 59.3577 42.6374 59.2687C43.6133 59.0786 44.3927 58.9512 44.7047 58.8741C45.0839 58.7804 45.4739 58.7155 45.8066 58.614C46.1183 58.519 46.5384 58.3989 47.0616 58.1638C47.6108 57.9171 48.1242 57.6343 48.5467 57.484C48.7802 57.4009 49.0437 57.2844 49.4291 57.1304C49.7865 56.9875 50.3589 56.7723 51.1059 56.6139C51.6542 56.4976 52.2865 56.4949 53.0533 56.5109C54.18 56.5344 54.3956 56.7548 54.6437 56.8683C55.0373 57.0485 55.3944 57.4042 55.7051 57.5638C55.9766 57.7032 56.3054 57.9487 56.6482 58.1572C57.1039 58.4344 57.7438 58.6489 58.2491 58.7592C58.791 58.8775 59.2828 59.0154 59.8123 59.157C60.8079 59.4233 61.6407 59.5523 61.9535 59.5889C62.3875 59.6397 63.0867 59.6826 63.909 59.6868C65.0133 59.6923 65.7645 59.6663 65.9755 59.7068C66.1597 59.7421 67.2166 59.1474 67.2815 59.2687C67.4709 59.623 66.5379 60.5841 66.5787 60.8324C66.6362 61.1814 66.4901 61.6083 66.3477 62.067C66.1859 62.5886 66.1885 63.0082 66.1805 63.1661C66.1417 63.9278 65.5469 64.8613 65.3759 65.2762C65.2383 65.61 64.978 65.9841 64.1391 67.0983C63.6473 67.7514 64.3338 68.2899 64.1754 68.5377C63.8845 68.9928 62.1645 69.3743 61.8433 69.6964C61.2395 70.3021 60.546 70.6849 60.1607 70.9727C59.271 71.6374 58.8153 71.9364 58.2614 72.1975C57.9737 72.333 57.6438 72.5468 56.5967 72.9247C56.1921 73.0708 55.9587 73.0926 55.6801 73.1734C54.4915 73.5185 53.8218 73.572 53.3743 73.6254C53.1815 73.6484 52.1111 74.8349 50.9509 74.7141C49.7907 74.5933 48.1833 74.3263 46.9818 74.1616C45.7802 73.997 45.7918 72.7366 45.1142 72.5382C44.4366 72.3397 43.4463 72.0257 42.6987 71.7593C41.4628 71.3189 40.8981 71.0437 40.7236 70.991C40.3007 70.8633 39.8819 70.516 39.5569 70.256C39.2624 70.0204 38.907 69.566 38.5494 69.1515C38.3776 68.9524 38.1424 68.647 37.7689 68.2246C37.5167 67.9393 37.1827 67.6706 36.7772 67.2771C36.3662 66.8782 35.8577 66.4435 35.4393 65.9561C34.9542 65.3911 34.7986 64.8965 34.4984 64.5029C34.0504 63.9157 33.9769 63.2146 33.9724 62.8717C33.9704 62.7212 34.0818 62.5946 34.1752 62.4931C34.5078 62.1314 35.6786 62.6575 36.1637 62.5522C36.51 62.477 37.0675 62.3986 37.9495 62.3329C38.8314 62.2671 39.6858 61.497 40.4164 61.4803C41.1469 61.4636 41.3804 61.4716 41.7502 61.4919C42.1201 61.5121 42.7883 62.6166 43.3514 62.6171C43.9145 62.6176 44.3573 61.5131 44.7329 61.4845C45.1085 61.4558 45.2292 61.4316 45.7262 61.2702C46.2232 61.1089 47.0927 60.811 47.6613 60.6012C48.4795 60.2993 48.8412 60.082 49.1087 59.9278C49.6401 59.6215 50.2208 59.4565 50.9139 59.1025C51.2971 58.9068 51.8481 58.7812 52.9891 58.5814C53.5855 58.4769 54.0455 58.5845 54.3739 58.6696C54.7508 58.7671 55.3844 59.1271 56.1358 59.5497C56.5914 59.8058 56.9324 59.95 57.3736 60.1931C57.6473 60.344 58.0483 60.5007 58.5735 60.6602C59.0988 60.8198 59.7429 60.9647 60.3685 61.0715C60.9942 61.1784 61.5819 61.2428 62.094 61.28C63.6075 61.39 64.0323 61.4956 64.1754 61.6541C64.3806 61.8815 64.1802 62.5105 64.0667 62.8769C63.8104 63.7049 63.417 64.4105 63.233 64.8943C63.0739 65.3123 62.6139 65.908 62.0269 66.7062C61.4949 67.4297 60.8959 67.8382 60.4654 68.1306C59.7832 68.594 59.3525 68.9761 58.5111 69.5165C58.0333 69.8233 57.6265 69.9534 57.3187 70.0546C56.4725 70.3326 56.1136 70.4982 55.0816 70.7524C54.15 70.9819 52.276 72.331 51.1059 72.5382C49.9359 72.7453 49.5197 71.7832 48.9604 71.7593C48.4011 71.7354 47.8133 71.671 47.0637 71.5291C46.3142 71.3872 45.4205 71.1699 44.9159 71.0418C44.3203 70.8906 44.1026 70.8161 43.5008 70.6103C43.0242 70.4473 42.2148 70.1228 41.7556 69.9368C41.0145 69.6368 40.2845 69.1522 39.7235 68.8201C39.2545 68.5424 38.6558 67.9553 38.2718 67.6132C37.6826 67.0882 37.434 66.5481 37.2828 66.1452C37.1582 65.8129 37.0914 65.1595 37.168 64.4467C37.2035 64.1169 37.3832 63.904 37.6018 63.7702C38.1763 63.4185 38.6909 63.5454 39.8314 63.8248C40.2304 63.9226 40.4167 64.0575 40.6592 64.1829C41.1163 64.4192 41.6754 64.5778 42.2507 64.647C42.5749 64.686 42.9711 64.6598 43.3514 64.6194C43.7318 64.5791 44.086 64.5066 44.7596 64.2761C45.4332 64.0455 46.4154 63.6591 46.9818 63.4157C47.5481 63.1723 47.6689 63.0838 48.0008 62.9214C48.3327 62.7591 48.8722 62.5256 49.2829 62.3329C49.6936 62.1401 49.9593 61.9952 50.4262 61.7877C50.8932 61.5802 51.5534 61.3145 52.0505 61.1253C52.5475 60.9361 52.8615 60.8315 53.3775 60.7212C53.8935 60.6109 54.602 60.4982 55.124 60.4442C55.9567 60.358 56.5572 60.4467 57.1772 60.5762C57.9505 60.7376 58.4618 60.9915 58.7653 61.1573C59.2698 61.4328 59.7297 61.7473 60.0746 61.9581C60.4179 62.168 60.9232 62.5432 61.6131 62.9207C62.1794 63.2306 62.4961 63.3663 62.5289 63.4392C62.6702 63.7534 61.7668 63.9591 60.9386 64.5433C60.7122 64.703 60.5002 64.8199 60.0019 65.192C59.5036 65.5642 58.7226 66.1841 58.2116 66.5639C57.5023 67.091 57.1627 67.2693 56.9358 67.4396C56.3323 67.8925 55.3939 68.2276 54.7972 68.5377C54.1718 68.8627 53.8203 68.9124 53.2674 69.0861C52.8138 69.2286 51.9979 69.445 51.2247 69.5974C50.4516 69.7497 49.7431 69.8222 48.9595 69.8474C48.1759 69.8727 47.3386 69.8485 46.6657 69.7918C45.9929 69.7351 45.5098 69.6465 44.7215 69.3996C43.9333 69.1527 42.8544 68.7502 42.1095 68.4422C40.9697 67.9709 40.4916 67.6128 40.2888 67.3736C39.9393 66.9615 39.8244 66.775 39.7224 66.5796C39.6743 66.4874 39.6612 66.3681 39.6651 66.2463C39.6669 66.1878 39.7092 66.1407 40.4101 66.0635C41.1111 65.9863 42.4797 65.8816 43.9738 65.6143C45.4678 65.3471 47.0458 64.9204 48.3539 64.5073C49.6619 64.0943 50.6522 63.7079 51.2227 63.4725C51.7932 63.2372 51.914 63.1648 52.3103 63.0268C52.7066 62.8889 53.3748 62.6876 54.0612 62.5155C54.7476 62.3433 55.432 62.2065 56.0341 62.1239C57.1303 61.9735 57.859 62.0084 58.2244 62.0448C58.4798 62.0703 58.7055 62.1626 58.9208 62.2519C59.056 62.3079 59.1454 62.4387 59.2268 62.6171C59.3926 62.9805 59.0656 63.3243 58.7814 63.6378C58.5733 63.8674 58.1561 64.1209 57.0014 64.8284C56.0991 65.3813 54.4459 66.1397 53.286 66.6793C52.1262 67.2188 51.4821 67.4684 50.5626 67.7177C49.6431 67.967 48.4677 68.2086 47.4475 68.3451C46.4274 68.4816 45.5981 68.5057 44.9978 68.4779C43.5038 68.4087 43.0374 67.9866 42.8008 67.7792C42.7536 67.7379 42.7676 67.6777 42.7837 67.6246C42.8184 67.5102 42.9296 67.4008 43.0876 67.2752C43.2922 67.1124 43.531 67.0022 45.3118 66.5829C46.9846 66.1891 50.2325 65.4874 52.4474 64.917C54.6623 64.3466 55.7491 63.944 56.4982 63.64C57.2473 63.336 57.6257 63.1428 57.8448 63.0312C58.0639 62.9196 58.1122 62.8954 58.1864 62.9681" stroke="#8790C8" stroke-opacity="0.65" stroke-width="3" stroke-linecap="round"/>
<path d="M51 79.0317C51.0248 79.0317 53.6984 79.0747 54.0929 79.0317C54.2445 79.0152 54.4024 78.9587 54.6366 78.921C54.8546 78.8859 55.1817 78.8278 55.4124 78.7825C55.739 78.7183 56.2244 78.5662 56.4122 78.5181C56.5723 78.477 56.9043 78.3501 57.2273 78.2388C57.4934 78.1471 57.6307 78.0676 57.912 77.9745C58.3717 77.8223 58.7371 77.7156 59.1931 77.4965C59.6984 77.2538 59.8415 77.2515 60.2457 77.071C60.6443 76.8929 60.793 76.7886 61.0146 76.6877C61.2864 76.564 61.4632 76.4662 61.8499 76.2551C62.0965 76.1205 62.3537 76.013 62.5709 75.9022C62.7632 75.8042 62.9531 75.6105 63.2981 75.4065C63.4901 75.2929 63.7433 75.1775 63.9233 75.0411C64.0791 74.923 64.2678 74.8194 64.4918 74.6963C64.8881 74.4784 65.074 74.3058 65.3904 74.1122C65.6267 73.9677 65.9937 73.7184 66.2973 73.4701C66.4826 73.3186 66.6195 73.1032 66.8034 72.9337C67.1104 72.6508 67.2997 72.5285 67.4708 72.3171C67.6774 72.0619 67.8484 71.7994 67.9597 71.6116C68.0452 71.4675 68.2512 71.3552 68.4127 71.0935C68.5718 70.8359 68.6343 70.6454 68.7302 70.456C68.8053 70.3078 68.9416 70.2119 69.0274 70.0807C69.1176 69.9429 69.1534 69.8139 69.1937 69.6929C69.2391 69.5719 69.2844 69.4763 69.322 69.4009C69.3447 69.3605 69.9692 67.5462 70 67.5" stroke="black" stroke-opacity="0.64" stroke-width="2" stroke-linecap="round"/>
<path d="M45.0668 24C45.0766 24 44.6229 23.4971 45.0668 23.5443C46 23.6435 46.4545 23.6731 46.8854 23.6705C47.3508 23.6677 47.6811 24.3004 47.6811 23.6705C47.6811 23.4764 48.2535 24.4747 48.5 24.5C48.7465 24.5253 48.6685 23.4921 49.0795 23.5045C49.4906 23.5169 50.1655 23.5366 50.5329 23.5443C50.9396 23.5528 51.3005 23.5371 51.8054 23.5271C52.2281 23.5188 52.8749 23.7033 53.1984 23.6705C53.5885 23.631 54.0002 24.0124 54.2048 24C54.4382 23.9859 54.7216 23.3727 54.8958 23.452C54.9737 23.4875 55.0206 23.5665 55.0579 23.6705C55.1522 23.9334 54.7727 24.3848 54.7975 24.796C54.8161 25.1049 54.1602 26.3236 54.2048 25.7066C54.2476 25.1151 54.1969 26.784 54.2048 26.3634C54.2248 25.2878 54.1343 26.3607 54 26.5C53.8656 26.6394 54.3317 26.7659 54.086 26.8137C53.8864 26.8525 53.5497 26.9056 53.1984 26.9406C52.9373 26.9665 52.7973 26.9606 52.5962 26.9754C52.3229 26.9956 52.1102 26.9855 51.8486 26.9756C51.2031 26.9511 50.7319 26.9556 50.5933 26.9457C50.337 26.9274 50.1446 26.9258 49.4668 26.8986C48.8186 26.8726 47.5524 26.837 46.8854 26.8142C46.0642 26.7862 45.8157 26.7319 45.7109 26.6475C45.5531 26.5204 45.5269 26.2503 45.4719 26.0332C45.4309 25.8717 45.3923 25.6923 45.2979 25.449C45.228 25.2687 45.2378 25.1148 45.2477 25.0379C45.257 24.9658 45.2873 24.8958 45.3665 24.8362C45.4145 24.8001 45.5049 24.7963 45.7746 24.796C46.0444 24.7958 46.4976 24.8106 47.9085 24.8699C49.3193 24.9293 51.6741 25.0327 52.902 25.0836C54.1298 25.1344 54.1594 25.1295 54.2048 25.1542" stroke="#8B4D06" stroke-opacity="0.58" stroke-width="3" stroke-linecap="round"/>
<line y1="-0.5" x2="6.08276" y2="-0.5" transform="matrix(0.164399 -0.986394 -0.986394 -0.164399 55 28)" stroke="black"/>
<line x1="44" y1="28.5" x2="56" y2="28.5" stroke="black"/>
<line x1="44" y1="28.5" x2="56" y2="28.5" stroke="black"/>
<path d="M55.5 38.5C66.7949 42.9688 70.3728 47.7842 71 59" stroke="black"/>
<path d="M44.5 38.5C34.1376 43.5597 30.5641 47.8348 29.121 58.3408" stroke="black"/>
<path d="M52.5 78.5C66.3584 75.1244 70.3958 71.2521 71 58" stroke="black"/>
<path d="M29 58C32.0264 73.7964 38.0417 77.662 53 78.5" stroke="black"/>
<line x1="55.5" y1="29" x2="55.5" y2="39" stroke="black"/>
<line x1="44.5" y1="29" x2="44.5" y2="39" stroke="black"/>
<path opacity="0.07" d="M29 58C29.5054 59.2282 42.6263 49.0903 71 57" stroke="black"/>
<line x1="44.5068" y1="28.0822" x2="43.5068" y2="22.0822" stroke="black"/>
<line x1="44" y1="22.5" x2="56" y2="22.5" stroke="black"/>
<path opacity="0.51" d="M28.9768 58.5005L50 59L70.5 57" stroke="black"/>
<path d="M46.4254 25.508L46.439 25.4807" stroke="#8B4D06" stroke-opacity="0.92" stroke-linecap="round"/>
<path d="M49.4311 24.5653L49.3765 24.6063" stroke="#8B4D06" stroke-opacity="0.92" stroke-linecap="round"/>
<path d="M54.4863 23.5543C54.4818 23.5543 54.4773 23.5543 54.4727 23.5678C54.4681 23.5813 54.4636 23.6084 54.459 23.6362" stroke="#8B4D06" stroke-opacity="0.92" stroke-linecap="round"/>
<path d="M52.2866 26.3824V26.4097" stroke="#8B4D06" stroke-opacity="0.92" stroke-linecap="round"/>
<path d="M48.3381 26.3961C48.3472 26.3916 48.3562 26.387 48.3743 26.3825C48.3925 26.3779 48.4196 26.3734 48.4748 26.3687" stroke="#2D1902" stroke-opacity="0.92" stroke-linecap="round"/>
<path d="M47.5457 24.0734L47.5047 24.1008" stroke="#2D1902" stroke-opacity="0.92" stroke-linecap="round"/>
<path d="M52.6009 24.6063L52.6418 24.6336" stroke="#2D1902" stroke-opacity="0.92" stroke-linecap="round"/>
<path d="M50.5651 26.7923L50.5788 26.7786" stroke="#2D1902" stroke-opacity="0.92" stroke-linecap="round"/>
<path d="M54.1311 26.3414L54.1037 26.3141" stroke="#2D1902" stroke-opacity="0.92" stroke-linecap="round"/>
<path d="M45.51 27.1885H45.5373" stroke="#2D1902" stroke-opacity="0.92" stroke-linecap="round"/>
<path d="M54.7595 24.9478L54.7049 24.9615" stroke="#C77210" stroke-opacity="0.92" stroke-linecap="round"/>
<path d="M51.3576 24.0324H51.3302" stroke="#C77210" stroke-opacity="0.92" stroke-linecap="round"/>
<path d="M45.1821 23.9231L45.2367 23.8685" stroke="#C77210" stroke-opacity="0.92" stroke-linecap="round"/>
<path d="M47.2998 27.3251L47.2041 27.3524" stroke="#C77210" stroke-opacity="0.92" stroke-linecap="round"/>
<path d="M54.2404 27.5164L54.1994 27.4891" stroke="#C77210" stroke-opacity="0.92" stroke-linecap="round"/>
<path d="M59.9078 43.6505C60.0478 43.8065 61.5082 44.7387 62.8492 45.8635C63.3684 46.3278 63.7428 46.8268 64.0339 47.3995C64.0891 47.5334 64.1356 47.6575 64.2306 47.8792" stroke="white" stroke-width="3" stroke-linecap="round"/>
<path d="M69.3576 64.8928C69.3074 64.9425 69.038 65.5818 68.8087 66.109C68.6367 66.5044 68.4626 66.9537 68.1917 67.4025C67.8547 67.9607 67.7351 68.5438 67.473 68.9419C67.2162 69.332 66.8391 69.6093 66.5009 70.2765C66.1296 71.0091 65.7736 71.3516 65.4187 71.6987C64.9686 72.1388 64.5224 72.3491 64.1332 72.7893C63.7826 73.1858 63.2885 73.3314 62.688 73.4585C62.1834 73.5653 61.7491 73.788 61.3427 73.9993C60.9028 74.1097 60.5137 74.2112 60.2858 74.287C60.1752 74.3294 60.0748 74.3796 59.9713 74.4821" stroke="white" stroke-linecap="round"/>
</svg>
