<svg width="100" height="100" viewBox="0 0 100 100" fill="none" xmlns="http://www.w3.org/2000/svg">
<path d="M32.0642 70.0836C32.0889 70.1712 32.9673 70.9252 33.5369 71.417C33.8418 71.6803 34.1626 72.0423 34.5985 72.4159C34.8848 72.6611 35.4246 73.003 36.0402 73.5851C36.3394 73.8679 36.8422 74.1915 37.2991 74.4781C37.6759 74.7146 38.2833 75.2145 38.6844 75.7045C38.9907 76.0787 39.8262 76.3664 40.2716 76.7795C40.656 77.1359 40.9417 77.2802 41.4472 77.5071C41.8621 77.6933 42.3191 77.8857 42.6623 78.1271C43.0051 78.3681 43.4332 78.5817 43.9765 78.9108C44.4865 79.2197 44.825 79.3534 45.1475 79.5878C45.4954 79.8405 45.8358 80.0873 46.2162 80.4034C46.5088 80.6465 46.8732 80.8462 47.3667 81.1748C47.7271 81.4148 48.0374 81.6552 48.4295 81.9528C48.7481 82.1946 49.0118 82.3772 49.1197 82.4467C49.2022 82.4997 48.7492 82.4918 48.383 82.3848C47.7421 82.1975 47.3582 81.6202 46.8328 81.0076C46.4586 80.5713 46.0293 80.0645 45.6123 79.7357C44.9789 79.2363 44.7263 78.9262 44.4102 78.49C44.0327 77.9691 43.2723 77.9647 42.9494 77.7239C42.4945 77.3847 41.9199 77.1056 41.4823 76.4795C41.1839 76.0527 40.4166 75.7525 40.0083 75.4285C39.6383 75.1348 39.1378 74.7781 38.4034 74.1774C37.9356 73.7948 37.4918 73.2967 37.0934 73.1389C36.7094 72.9868 36.2799 72.6395 35.8095 72.4432C35.3836 72.2653 35.1134 71.9444 34.6968 71.6909C34.2721 71.4325 33.9759 71.1855 33.7283 70.7178C33.5318 70.3467 33.1912 70.2111 32.8812 70.0904C32.5358 69.956 32.5325 69.415 32.5133 69.0667C32.5087 68.9838 32.4945 68.9088 32.4442 68.9077C32.0951 68.8998 32.002 69.437 31.9001 69.7409C31.848 69.8964 31.8111 70.0449 31.8426 70.1963C31.9376 70.6529 32.4293 71.2325 32.7271 71.5621C33.1524 72.0326 33.5547 72.4847 33.903 72.7765C34.58 73.3436 35.3366 74.1027 36.2852 74.8238C36.705 75.143 36.92 75.5085 37.4727 75.8421C39.4077 77.0099 39.8785 77.114 40.504 77.5255C41.2505 78.0165 41.6369 78.2644 42.0292 78.6513C42.6044 79.2184 43.1296 79.2783 43.4842 79.5306C44.0685 79.9465 45.0633 80.5161 45.5892 80.8145C46.58 81.3767 47.3544 81.7819 47.7275 82.0037C48.0827 82.2147 48.3789 82.427 48.6513 82.6425C48.7211 82.6933 48.7963 82.7434 48.8725 82.788C48.9488 82.8326 49.0239 82.8701 49.1393 82.9088" stroke="black" stroke-opacity="0.91" stroke-linecap="round"/>
<line opacity="0.11" x1="32.7034" y1="69.5975" x2="70.7034" y2="41.5975" stroke="black"/>
<path d="M40.8524 46.1515C40.8524 46.1264 40.7773 46.0258 40.6697 45.7615C40.3732 45.0331 40.8767 44.6728 40.9974 44.3187C41.2412 43.6035 41.8506 43.2048 42.1292 42.9581C42.4481 42.6756 42.8366 42.3068 43.198 42.1982C43.5089 42.1048 43.9365 42.0525 44.3428 42.0902C44.7651 42.1295 45.1905 42.3424 45.5131 42.6396C45.5929 42.7131 45.671 42.7599 45.7223 42.7231C46.0632 42.4782 45.9124 41.7397 46.02 41.3137C46.1453 40.8175 46.5553 40.0956 46.8798 39.6626C47.1574 39.2921 47.5049 38.7399 48.0108 38.4163C48.6099 38.0332 49.1369 37.6901 49.6176 37.3286C50.2023 36.8889 50.567 36.7398 50.8898 36.5752C51.3136 36.3592 51.6927 36.2585 52.1922 36.1511C52.7551 36.03 53.3247 36.2198 53.6416 36.2834C53.9757 36.3504 54.3495 36.5986 54.6726 36.7574C55.3922 37.1111 56.1568 38.4317 56.5578 38.8376C56.9377 39.2222 56.9819 39.7738 57.2848 40.2979C57.716 41.0441 58.1456 41.3298 58.5058 41.7976C58.7657 42.1352 58.9927 42.5307 59.2527 42.8171C59.5052 43.0952 59.8907 43.5175 60.2452 44.2253C60.6925 45.1185 61.2547 45.7294 62.3366 47.2088C62.6432 47.6282 62.9023 47.8453 63.2046 48.3547C64.2227 50.07 64.433 50.7423 64.7806 51.2852C65.2469 52.0135 65.6945 53.5645 66.0593 54.4621C66.2832 55.0133 66.8605 56.153 67.0842 56.739C67.2294 57.1194 67.3812 57.4722 67.8167 58.3501C68.0565 58.8335 68.1403 59.206 68.368 60.14C68.489 60.6362 68.4697 61.5044 68.4196 62.2479C68.3908 62.675 68.2177 63.0013 67.9209 63.6141C67.7212 64.0263 67.0062 64.228 66.3598 64.3625C65.4917 64.5432 65.1191 64.6978 64.7584 64.6792C64.2332 64.6521 63.9297 64.6857 63.3801 64.5595C62.8024 64.4268 62.1975 64.2689 61.5083 63.9027C60.7852 63.5185 60.3757 62.9041 59.8569 62.4732C59.1237 61.8642 58.6056 61.5257 58.0414 61.1569C57.2816 60.6604 56.8324 60.5875 56.5096 60.3345C55.9912 59.9283 55.5291 59.4489 54.9607 59.0194C54.564 58.7197 54.1377 58.437 53.6762 58.0009C53.2458 57.5943 52.3053 57.2491 51.621 56.6729C51.094 56.2293 50.4198 55.7567 49.7616 55.0922C49.0353 54.3587 48.2086 53.8606 47.6537 53.4332C47.2694 53.1372 46.4498 52.7197 45.8323 52.4085C45.351 52.1659 44.8778 51.8331 44.4091 51.6428C44.0421 51.4937 43.8523 51.137 43.3593 50.5376C43.0028 50.1041 42.5497 49.7965 42.126 49.4491C41.1824 48.6753 41.0179 48.0006 40.8025 47.3495C40.6537 46.8996 40.5997 46.4065 40.6245 46.0012C40.6503 45.581 40.7507 45.129 40.8521 44.7738C40.9886 44.2951 41.6335 43.8128 42.0594 43.4644C42.4203 43.169 42.9118 42.826 43.3811 42.6726C43.7324 42.5579 44.077 42.6089 44.551 42.7541C44.9438 42.8743 45.3788 43.0757 45.7095 43.3357C46.0032 43.5665 46.4043 43.8477 46.7654 44.2519C47.3305 44.8844 48.097 45.6285 48.65 46.2C49.3876 46.9625 50.211 47.4024 50.6619 47.5806C50.8815 47.6674 51.2494 47.5941 51.6474 47.4745C52.2235 47.3014 52.3129 46.7352 52.6169 46.3492C53.0338 45.8199 52.9976 44.5529 52.922 43.7243C52.8853 43.3211 52.5808 42.9398 52.3408 42.3265C52.2958 42.2116 52.177 42.2544 52.088 42.2986C51.39 42.6454 50.8608 43.872 50.5006 44.906C50.3499 45.3386 50.23 45.9867 50.1275 46.8857C49.896 48.9169 49.9359 50.2614 49.9674 50.577C49.9965 50.8694 50.0748 51.0972 50.1818 51.2801C50.3125 51.5035 50.5674 51.6164 50.782 51.6608C51.238 51.7551 51.7557 51.1378 53.2382 49.6369C54.1352 48.7287 54.5514 48.3414 55.1583 47.8556C56.086 47.1129 56.4745 46.608 56.8096 46.4748C56.9248 46.4291 56.9569 46.5295 56.9259 46.7122C56.8449 47.1909 56.6544 47.6176 56.4843 47.9516C56.2504 48.4112 55.8213 49.3202 55.3541 50.7455C54.8408 52.3116 54.7688 53.5866 54.7624 54.1997C54.757 54.7115 54.9833 55.0812 55.1789 55.5117C55.23 55.6241 55.3363 55.7013 55.4315 55.7402C55.5268 55.7791 55.627 55.7666 55.7412 55.6975C56.4936 55.2426 57.0313 54.0746 57.5057 53.1385C57.7437 52.6689 58.2955 52.1269 58.8948 51.363C59.4681 50.6323 59.9548 50.3393 60.1378 50.3201C60.2327 50.3101 60.3332 50.3635 60.4036 50.4393C60.5515 50.5983 60.4376 51.1947 60.1415 52.2286C59.7684 53.5318 59.387 54.3483 59.2421 54.7383C58.9847 55.4305 58.9187 56.6695 58.8743 57.9148C58.8509 58.5712 58.9809 58.8522 59.1196 59.0291C59.2475 59.192 59.499 59.22 59.7514 59.2139C60.4501 59.1971 61.6062 57.9618 62.8235 57.0722C63.2783 56.7399 63.497 56.4122 63.6989 56.3173C63.7955 56.2719 63.9008 56.285 63.9838 56.3539C64.352 56.6598 63.9563 58.0074 63.6128 59.223C63.5357 60.1795 63.6492 61.0626 63.7566 61.7834C63.8014 62.0532 63.8265 62.1284 63.8902 62.2817" stroke="#760707" stroke-width="7" stroke-linecap="round"/>
<path d="M46.2642 42.5956C45.9605 42.305 45.3321 41.7586 45.1445 41.7027C44.7996 41.6 44.262 41.9525 43.6618 42.0371C43.229 42.098 42.9927 42.4826 42.7 42.7342C42.3316 43.0509 41.852 43.4858 41.5437 43.9756C41.2972 44.3673 41.237 44.7569 41.0212 45.7528C40.8786 46.4106 41.4843 47.4182 41.973 48.1277C42.2231 48.4909 42.5439 48.8184 42.7608 49.2306C42.9512 49.5926 43.2827 49.9212 44.012 50.5556C44.4649 50.9495 44.8837 51.3306 45.2947 51.6524C45.7409 52.0018 46.2901 52.2241 46.9096 52.8722C47.279 53.2588 47.7383 53.4668 48.1292 53.6556C48.4672 53.819 48.8798 54.2054 49.4512 54.6733C50.1826 55.2723 50.6355 55.5879 51.012 55.8953C51.4769 56.2748 51.945 56.5652 52.245 56.7957C52.7358 57.1728 53.4767 57.6254 54.103 58.2597C54.5384 58.7007 55.2315 58.9099 55.6914 59.2168C56.1123 59.4978 56.7466 59.955 57.3835 60.1945C57.741 60.3289 58.2106 60.64 58.8733 61.0518C59.4261 61.3953 59.9379 62.077 60.4474 62.3711C61.0505 62.7193 61.1797 63.1522 61.4093 63.439C61.7221 63.8299 62.3755 64.1152 62.8015 64.4437C63.2687 64.804 63.7409 64.9116 64.1525 65.1348C64.6204 65.3885 65.1607 65.5815 65.6218 65.7007C66.0583 65.8135 66.5119 65.8746 66.945 65.9659C67.3454 66.0503 67.7662 65.9735 68.1567 65.7857C68.597 65.5739 68.7698 65.0674 68.9029 64.7324C69.0543 64.3513 68.9938 63.689 68.9522 63.1832C68.9126 62.7006 68.7155 62.2344 68.5904 61.8157C68.3193 60.9087 67.9359 59.4442 67.7621 58.9478C67.5522 58.3485 67.005 57.5081 66.7035 56.7501C66.4196 56.0361 66.3632 55.2446 65.9731 54.0099C65.7273 53.2314 65.3186 52.7458 64.9771 51.693C64.5685 50.4338 64.3576 49.4941 64.1477 48.8642C64.0111 48.4544 63.634 48.0555 63.4025 47.6632C63.1069 47.1621 62.7691 46.3798 62.4561 45.9607C62.2056 45.6252 62.0036 45.277 61.482 44.7262C61.085 44.307 60.8195 43.6876 60.208 42.9678C59.7389 42.4156 58.9134 41.5112 58.3065 40.9503C57.897 40.5718 57.5605 40.0156 57.3029 39.6731C56.8819 39.1133 56.1282 38.7184 55.6458 38.1245C55.1869 37.5594 54.0249 37.2789 53.4805 37.0903C52.9658 36.912 52.2132 37.0411 51.726 37.1102C51.0241 37.2097 50.6948 37.4029 50.3533 37.6191C49.8855 37.9152 49.4556 38.3935 49.1278 38.7486C48.4311 39.5032 48.3676 40.276 48.3049 40.6821C48.2379 41.1165 47.3715 42.3754 46.8985 43.1805C46.6985 43.5211 46.5308 44.1691 46.1888 44.9376C45.9484 45.478 45.8326 45.7769 45.8324 45.9578C45.8323 46.0567 45.8874 46.1663 45.9914 46.2578C46.4901 46.6963 46.2642 48.1277 47.4885 46.8172C47.8023 46.4812 48.8623 46.2015 49.7228 45.3201C50.2746 44.7549 50.9672 43.7052 52.0264 42.3563C52.7969 41.3752 53.114 40.8806 53.7967 40.3153C53.8977 40.2317 53.9104 40.3329 53.8759 40.4447C53.7149 40.9669 53.0789 41.5999 51.7289 43.8082C51.2578 44.5788 50.9171 44.9944 50.5983 45.6534C50.0089 46.8719 49.6223 48.0078 49.358 48.5996C49.1217 49.1287 49.0779 49.6415 49.0705 50.0041C49.0677 50.1471 49.1597 50.2009 49.3538 50.2087C50.2933 50.2462 50.7049 49.938 51.5804 49.1598C52.405 48.4269 52.987 47.2064 53.7585 46.2316C54.9374 44.7422 55.6193 43.8291 56.1234 43.2877C56.5331 42.8478 57.2797 42.8611 57.4262 42.9366C57.7262 43.0915 57.3094 43.6964 57.0464 44.1482C56.6375 44.8505 55.8223 45.7991 55.0926 46.9765C54.5064 47.9223 54.0784 48.4558 53.8496 49.0455C53.4315 50.1233 53.2561 51.0375 53.2695 51.5378C53.3161 53.2845 53.826 54.4445 54.0134 54.4796C54.2462 54.5233 54.7561 54.0572 55.6099 53.2235C56.7718 52.089 57.2935 50.9027 57.8469 49.9313C58.2513 49.2214 59.007 48.1309 59.5282 47.4232C60.5802 45.9951 60.8872 45.7794 60.9994 45.5546C61.0815 45.39 60.5567 46.2069 59.8009 47.283C59.3027 47.9922 58.7003 49.119 58.2977 49.8957C57.6932 51.0621 57.5321 51.6245 57.2831 52.324C56.7014 53.9576 56.3898 55.2249 56.3342 55.6418C56.2496 56.2764 56.264 56.7607 56.3331 56.9418C56.4838 57.3363 57.0424 57.2636 57.3978 57.2854C57.5077 57.2921 57.6265 57.1681 58.2213 56.4553C58.8161 55.7425 59.8777 54.4022 60.5212 53.5598C61.3826 52.432 61.7634 51.9205 62.0698 51.7036C62.162 51.6385 61.8933 52.2224 61.2944 53.5589C61.0778 54.0422 60.9474 54.7246 60.8068 55.6673C60.4885 57.8015 60.4978 59.2302 60.5603 59.5577C60.5887 59.7068 60.6365 59.816 60.713 59.9006C60.7894 59.9852 60.8997 60.0404 60.9979 60.0413C61.5401 60.0459 62.2476 58.6101 63.2237 57.0754C63.5312 56.5918 63.9849 56.0334 64.2329 55.7969C64.4809 55.5603 64.5223 55.6709 64.5091 55.8936C64.4427 57.0171 64.0643 57.8322 63.6753 59.1212C63.3516 60.194 63.2558 61.1965 63.2901 61.7268C63.3584 62.7833 65.1352 59.0372 65.1638 59.292C65.2761 60.2914 64.788 61.2115 64.8083 61.5122C64.8558 62.2181 65.8873 60.3633 65.9917 60.3138C66.6881 59.9845 65.4423 62.1901 65.5044 62.3295C65.5664 62.386 65.6905 62.4136 65.8371 62.4072C65.9838 62.4007 66.1493 62.3592 66.3197 62.3165" stroke="#D192DD" stroke-width="5" stroke-linecap="round"/>
<path d="M55.2821 48.5486C55.2821 48.5476 56.0895 49.6119 56.7657 50.3062C57.4873 51.0472 57.7861 51.2497 58.7209 52.3423C59.2785 52.9941 59.626 53.3692 60.0978 53.9059C60.586 54.4611 61.059 54.9421 61.3393 55.4613C61.682 56.096 62.1418 56.4338 62.4464 56.8078C62.723 57.1474 63.075 57.6579 63.4188 57.9729C63.7168 58.2181 63.8681 58.3814 63.9786 58.4916C64.0313 58.5558 64.0775 58.6365 64.125 58.7896" stroke="#925F9B" stroke-opacity="0.72" stroke-linecap="round"/>
<path d="M43.9418 44.1453C43.9418 44.1363 43.9418 44.1273 43.9148 44.312C43.8877 44.4966 43.8336 44.8753 43.7779 45.2654" stroke="#C77210" stroke-opacity="0.92" stroke-linecap="round"/>
<path d="M46.7008 45.32C46.7008 45.329 46.7008 45.338 46.6963 45.3832C46.6918 45.4284 46.6828 45.5096 46.7458 45.7362C46.8087 45.9628 46.944 46.3324 47.0833 46.7132" stroke="#C77210" stroke-opacity="0.92" stroke-linecap="round"/>
<path d="M45.7994 48.8986C45.7814 48.8986 45.7631 48.9617 45.7539 49.0979C45.7538 49.171 45.7628 49.2521 45.8441 49.4787C45.9253 49.7053 46.0786 50.0749 46.2365 50.4557" stroke="#C77210" stroke-opacity="0.92" stroke-linecap="round"/>
<path d="M50.2521 50.9474C50.2521 50.9384 50.2521 50.9294 50.2747 50.9698C50.2972 51.0103 50.3423 51.1004 50.4511 51.264C50.56 51.4277 50.7313 51.6621 50.9078 51.9036" stroke="#C77210" stroke-opacity="0.92" stroke-linecap="round"/>
<path d="M50.3887 54.007C50.3887 54.016 50.3887 54.025 50.3752 54.0567C50.3617 54.0884 50.3347 54.1425 50.4965 54.3912C50.6584 54.64 51.0099 55.0817 51.3722 55.5368" stroke="#C77210" stroke-opacity="0.92" stroke-linecap="round"/>
<path d="M53.9947 55.2636C53.9856 55.2636 53.9766 55.2636 54.0576 55.3132C54.1386 55.3628 54.3099 55.4619 54.4838 55.5446C54.6577 55.6272 54.8289 55.6903 55.0054 55.7553" stroke="#C77210" stroke-opacity="0.92" stroke-linecap="round"/>
<path d="M55.1693 58.0773C55.1603 58.0864 55.1513 58.0954 55.1286 58.1316C55.106 58.1678 55.0699 58.2309 55.2406 58.4933C55.4114 58.7556 55.79 59.2154 56.1801 59.6891" stroke="#C77210" stroke-opacity="0.92" stroke-linecap="round"/>
<path d="M58.7753 59.2793C58.7933 59.2793 58.8657 59.2883 59.0109 59.329C59.093 59.3607 59.1921 59.4148 59.3559 59.5283C59.5197 59.6418 59.745 59.8131 59.9772 59.9896" stroke="#C77210" stroke-opacity="0.92" stroke-linecap="round"/>
<path d="M51.3722 39.0916C51.3542 39.0916 51.3361 39.0916 51.3719 39.0826C51.4077 39.0735 51.4979 39.0555 51.7156 39.0372C51.9333 39.0189 52.2759 39.0009 52.6288 38.9823" stroke="#C77210" stroke-opacity="0.92" stroke-linecap="round"/>
<path d="M51.3995 41.3589C51.3995 41.3409 51.4536 41.2865 51.5671 41.2092C51.6265 41.177 51.6896 41.159 51.8032 41.1497C51.9169 41.1404 52.0791 41.1404 52.2463 41.1404" stroke="#C77210" stroke-opacity="0.92" stroke-linecap="round"/>
<path d="M55.3333 40.594C55.3152 40.594 55.36 40.585 55.478 40.5804C55.542 40.5848 55.6141 40.6028 55.7684 40.6211C55.9228 40.6394 56.1572 40.6574 56.3986 40.676" stroke="#C77210" stroke-opacity="0.92" stroke-linecap="round"/>
<path d="M56.0981 42.8887C56.1072 42.8887 56.1162 42.8887 56.1434 42.9113C56.1705 42.9338 56.2156 42.9789 56.356 43.1418C56.4964 43.3048 56.7308 43.5842 56.9723 43.8722" stroke="#C77210" stroke-opacity="0.92" stroke-linecap="round"/>
<path d="M58.6113 41.8507C58.6384 41.8326 58.6654 41.8146 58.8642 41.9C59.0629 41.9853 59.4325 42.1746 59.8133 42.3697" stroke="#C77210" stroke-opacity="0.92" stroke-linecap="round"/>
<path d="M59.6221 44.7736C59.6492 44.7736 59.6762 44.7736 59.7172 44.7646C59.7582 44.7556 59.8123 44.7376 59.9258 44.8275C60.0393 44.9173 60.2106 45.1157 60.387 45.32" stroke="#C77210" stroke-opacity="0.92" stroke-linecap="round"/>
<path d="M59.2123 48.161C59.2033 48.17 59.1943 48.1791 59.1851 48.2153C59.176 48.2515 59.167 48.3146 59.2209 48.4733C59.2749 48.632 59.3921 48.8844 59.5128 49.1445" stroke="#C77210" stroke-opacity="0.92" stroke-linecap="round"/>
<path d="M62.108 46.9864C62.108 46.9954 62.108 47.0044 62.1711 47.0181C62.2342 47.0317 62.3604 47.0497 62.5517 47.1131C62.7429 47.1765 62.9953 47.2847 63.2554 47.3961" stroke="#C77210" stroke-opacity="0.92" stroke-linecap="round"/>
<path d="M62.6544 50.4011C62.6544 50.4191 62.5912 50.4374 62.5407 50.4871C62.5533 50.5278 62.6434 50.5999 62.753 50.7092C62.8625 50.8185 62.9887 50.9627 63.1188 51.1113" stroke="#C77210" stroke-opacity="0.92" stroke-linecap="round"/>
<path d="M64.8398 55.3729C64.8398 55.3819 64.8398 55.3909 64.8398 55.4271C64.8398 55.4633 64.8398 55.5264 64.9299 55.7167C65.0201 55.907 65.2004 56.2225 65.3861 56.5476" stroke="#C77210" stroke-opacity="0.92" stroke-linecap="round"/>
<path d="M66.5881 54.7446C66.5881 54.7536 66.5881 54.7626 66.6107 54.7853C66.6332 54.808 66.6783 54.844 66.8187 54.9527C66.9591 55.0615 67.1935 55.2418 67.435 55.4275" stroke="#C77210" stroke-opacity="0.92" stroke-linecap="round"/>
<path d="M65.55 51.6031C65.55 51.6211 65.55 51.6391 65.5591 51.689C65.5681 51.7388 65.5861 51.82 65.6901 51.9564C65.794 52.0929 65.9833 52.2822 66.1784 52.4772" stroke="#C77210" stroke-opacity="0.92" stroke-linecap="round"/>
<path d="M45.0071 45.7571C44.9981 45.739 44.9891 45.721 44.9529 45.7568C44.9167 45.7926 44.8536 45.8827 44.7941 46.0644C44.7345 46.2461 44.6804 46.5165 44.6247 46.7951" stroke="white" stroke-linecap="round"/>
<path d="M48.3399 50.9747C48.3219 50.9657 48.3039 50.9567 48.2856 51.0152C48.2673 51.0736 48.2492 51.1998 48.3031 51.4587C48.3569 51.7175 48.4831 52.1052 48.6131 52.5045" stroke="white" stroke-linecap="round"/>
<path d="M52.9293 56.3836C52.9203 56.3927 52.9113 56.4017 52.8976 56.4424C52.884 56.4831 52.8659 56.5552 52.9468 56.7501C53.0277 56.945 53.208 57.2605 53.3937 57.5856" stroke="white" stroke-linecap="round"/>
<path d="M53.3937 52.286C53.3937 52.277 53.3937 52.268 53.4342 52.3084C53.4748 52.3488 53.5559 52.439 53.7825 52.5485C54.0091 52.6581 54.3788 52.7843 54.7596 52.9143" stroke="white" stroke-linecap="round"/>
<path d="M57.6279 55.4002C57.6189 55.3912 57.6099 55.3822 57.6323 55.373C57.7088 55.3549 57.8998 55.3997 58.2038 55.5537C58.3726 55.6537 58.5709 55.798 58.7753 55.9466" stroke="white" stroke-linecap="round"/>
<path d="M61.9988 52.4772C61.9897 52.4862 61.9807 52.4953 61.9626 52.536C61.9444 52.5767 61.9173 52.6488 62.0431 52.9068C62.1689 53.1648 62.4484 53.6065 62.7363 54.0616" stroke="white" stroke-linecap="round"/>
<path d="M64.0476 48.6801C64.0837 48.6801 64.1653 48.6711 64.297 48.6619C64.3656 48.6618 64.4377 48.6708 64.6326 48.7836C64.8275 48.8964 65.143 49.1128 65.4681 49.3357" stroke="white" stroke-linecap="round"/>
<path d="M60.5236 49.7455C60.5236 49.7545 60.5236 49.7635 60.5101 49.7952C60.4965 49.8269 60.4695 49.881 60.4781 50.0305C60.4867 50.1801 60.5318 50.4235 60.5782 50.6743" stroke="white" stroke-linecap="round"/>
<path d="M56.4259 45.921C56.4169 45.921 56.4079 45.921 56.3897 45.9615C56.3716 46.0021 56.3445 46.0832 56.3441 46.2513C56.3437 46.4193 56.3708 46.6717 56.3986 46.9317" stroke="white" stroke-linecap="round"/>
<path d="M61.2339 43.599C61.2699 43.599 61.3516 43.59 61.4968 43.5763C61.5789 43.5717 61.6781 43.5717 61.8103 43.6618C61.9425 43.752 62.1048 43.9323 62.272 44.118" stroke="white" stroke-linecap="round"/>
<path d="M50.4434 45.5932C50.4434 45.6022 50.4434 45.6112 50.4479 45.6609C50.4524 45.7106 50.4614 45.8008 50.4841 45.8968C50.5067 45.9928 50.5428 46.092 50.5799 46.1942" stroke="white" stroke-linecap="round"/>
<path d="M52.2737 44.4731C52.2737 44.4641 52.2737 44.4551 52.2962 44.4279C52.3188 44.4008 52.3638 44.3557 52.5583 44.4046C52.7528 44.4535 53.0954 44.5977 53.4483 44.7463" stroke="white" stroke-linecap="round"/>
<path d="M52.7654 45.921C52.7564 45.921 52.7474 45.921 52.7968 46.0021C52.8462 46.0832 52.9544 46.2455 53.0659 46.4127" stroke="white" stroke-linecap="round"/>
<path d="M47.9028 41.9326C47.9028 41.9687 47.9028 42.0047 47.9118 42.154C47.9209 42.3033 47.9389 42.5647 47.9575 42.8341" stroke="white" stroke-linecap="round"/>
<path d="M54.1859 37.5618C54.1949 37.5528 54.2039 37.5438 54.2537 37.5301C54.3034 37.5164 54.3935 37.4984 54.5301 37.5071C54.6667 37.5159 54.847 37.5519 55.0328 37.5891" stroke="white" stroke-linecap="round"/>
<path d="M63.3646 61.6286C63.3646 61.5565 63.3646 61.4844 63.3962 61.5239C63.4277 61.5633 63.4908 61.7166 63.5955 61.8857C63.7001 62.0548 63.8443 62.2351 63.9929 62.4208" stroke="white" stroke-linecap="round"/>
<path d="M65.7686 59.6618C65.7776 59.6618 65.7866 59.6618 65.8363 59.6618C65.886 59.6618 65.9762 59.6618 66.1353 59.7204C66.2944 59.779 66.5198 59.8962 66.752 60.0169" stroke="white" stroke-linecap="round"/>
<path d="M66.5608 62.3116C66.5518 62.3206 66.5427 62.3296 66.5291 62.3613C66.5154 62.393 66.4974 62.4471 66.5152 62.484C66.5329 62.5208 66.587 62.5389 66.6974 62.5848" stroke="white" stroke-linecap="round"/>
<path d="M51.6264 82.8095C51.6264 82.8275 51.6264 82.7829 51.6039 82.7192C51.5958 82.6961 51.5366 82.7453 51.5493 82.7458C51.8201 82.7574 53.0039 81.8641 53.8293 81.3498C54.0672 81.2015 54.2198 81.0053 54.5455 80.7517C55.1292 80.2972 55.3535 80.1252 56.0225 79.6642C56.8964 79.0621 57.1849 78.8919 57.6703 78.4934C58.2431 78.023 58.9532 77.6592 59.7376 77.178C60.0879 76.9632 60.6214 76.6969 61.5466 76.0452C62.1559 75.6159 62.5372 75.327 63.0449 75.0323C63.5012 74.7674 64.0954 74.3658 64.5329 74.1162C65.1971 73.737 65.4131 73.4673 65.6762 73.3083C66.0989 73.0531 66.5 72.8506 66.9686 72.5061C67.3702 72.2108 68.0076 72.0337 68.4554 71.7579C69.2956 71.2404 69.8123 70.9272 70.1569 70.7596C70.7576 70.4673 70.9733 70.1565 71.6256 69.7623C72.0849 69.4847 72.624 68.9961 73.1002 68.6327C73.4824 68.3411 73.8225 68.1335 74.293 67.6853C74.5512 67.4393 74.874 67.2991 75.0698 67.0993C75.2879 66.8766 75.5717 66.6014 75.8813 66.3826C76.3204 66.0722 76.6434 65.5662 77.2583 65.1863C77.9412 64.7643 78.2212 64.5234 78.8955 64.1157C79.5185 63.7392 80.1963 63.3549 80.7923 62.9634C81.2743 62.6468 81.5325 62.4998 82.0981 62.1111C82.5481 61.8018 83.0455 61.6121 83.6269 61.1676C83.9702 60.9052 84.2984 60.8224 84.5489 60.6541C84.6027 60.618 84.644 60.5682 84.6941 60.5676C84.9318 60.5643 85.0522 60.9378 85.2069 61.1788C85.3419 61.389 85.2346 61.7177 85.3022 61.9905C85.3901 62.345 85.7783 62.625 85.8693 62.8615C85.8892 62.9133 85.8697 62.9701 85.8292 62.9933C85.6129 63.1174 85.2547 62.9352 84.9725 62.9393C84.6636 62.9438 84.4285 62.9347 83.8445 62.9529C83.4625 62.9648 83.2311 63.0435 82.9542 63.0799C82.6378 63.1214 82.2966 63.234 82.0516 63.3064C81.9158 63.3465 81.8152 63.4515 81.7562 63.5644C81.6052 63.8532 81.8781 64.1762 81.901 64.5028C81.9259 64.8599 81.779 65.0927 81.6159 65.3107C81.4407 65.5447 81.3344 65.8182 81.2888 66.0996C81.2407 66.3966 81.1896 66.7609 81.1255 67.0475C81.0445 67.4101 80.9986 67.7052 80.8765 68.1758C80.7375 68.7117 80.5637 69.0288 80.4636 69.3198C80.3635 69.6106 80.3275 69.7739 80.2371 69.8555C80.0419 70.032 79.6847 69.8196 79.4119 69.7973C79.1322 69.7744 78.8319 69.6928 78.4468 69.6385C77.7313 69.5376 77.2181 69.7102 76.8767 69.7382C76.5756 69.763 76.1127 69.6563 75.6253 69.6068C75.2263 69.5663 74.7608 69.7472 74.3822 69.7833C74.0193 69.8179 73.8061 69.8648 73.5747 69.924C73.4303 69.9609 73.2706 69.9644 73.1079 70.1134C72.6937 70.4926 72.6447 70.9245 72.4271 71.2698C72.1651 71.6857 72.0188 72.0407 71.7605 72.5075C71.5425 72.9015 71.4201 73.2109 71.2794 73.5961C71.0735 74.1598 70.8399 74.4535 70.6987 74.7668C70.5498 75.0971 70.5215 75.2709 70.4494 75.3391C70.2307 75.5459 69.753 75.3259 69.375 75.2762C69.0206 75.2297 68.4653 75.0543 67.9695 75.0581C67.6157 75.0609 67.33 75.0902 67.0121 75.0719C66.6451 75.0507 66.3595 75.0543 66.0775 75.1123C65.7884 75.1717 65.4974 75.3161 65.112 75.3531C64.7609 75.3868 64.4002 75.5251 64.1228 75.6337C63.6996 75.7993 63.5375 76.1951 63.3649 76.5357C63.2307 76.8004 63.039 77.2009 62.8344 77.597C62.6581 77.9381 62.4305 78.3444 62.2989 78.7353C62.2073 79.0076 62.0229 79.3241 61.7643 79.8368C61.5252 80.3111 61.324 80.4953 61.2013 80.8307C61.0958 81.119 60.8979 81.3389 60.6757 81.4441C60.3993 81.5749 60.1 81.494 59.8005 81.404C59.524 81.3208 59.1573 81.2682 58.8615 81.2808C58.5472 81.2943 58.1325 81.3487 57.8048 81.3627C57.4599 81.3775 56.9895 81.3041 56.6619 81.1997C56.3841 81.1113 56.0997 81.2763 55.746 81.3849C55.4135 81.487 54.7893 81.1829 53.8938 81.6807C53.4952 81.9023 53.6801 82.2823 53.4683 83.0169C53.3558 83.4071 53.0872 83.7516 52.9919 84.0059C52.8996 84.2525 52.8874 84.5136 52.8466 84.7905C52.8364 84.8595 52.815 84.9218 52.7833 84.9048C52.482 84.7431 52.4351 84.1457 52.1309 83.7361C51.8917 83.4141 51.7627 83.2455 51.7533 83.1504C51.7489 83.1058 51.8337 83.0822 51.8931 83.0728C51.9524 83.0634 52.0063 83.0724 52.0475 83.1085C52.2293 83.2675 52.2335 83.633 52.3467 83.8964C52.4816 84.2104 52.6964 82.9929 52.7916 82.7016C52.8127 82.6372 52.8324 82.5749 52.8507 82.592C53.0725 82.7989 52.8874 83.1622 52.8602 83.3524C52.8485 83.4346 52.851 83.4888 52.8779 83.3639C53.0773 82.4395 53.2945 81.8952 53.5077 81.6807C53.5552 81.633 53.6298 81.6306 53.6801 81.6573C54.0274 81.8413 53.1764 82.0925 53.2216 82.1699C53.3641 82.4141 54.2464 81.6976 54.8036 80.8167C54.9067 80.6537 54.9904 80.651 55.0453 80.7001C55.3708 80.9917 55.1823 81.4301 55.1822 81.4939C55.1816 81.7452 55.489 80.6455 55.7843 80.2164C55.9311 80.0029 56.1522 79.8354 56.2564 79.6899C56.2857 79.649 56.3157 79.7241 56.298 79.8104C56.1923 80.3262 55.7274 80.7849 55.6485 81.014C55.2256 82.2419 57.057 79.8085 57.4034 79.5767C57.8918 79.2501 58.1466 78.9823 58.6499 78.6565C59.1599 78.3265 59.4349 78.0026 59.802 77.7854C60.6589 77.2785 61.1667 76.8607 61.725 76.5785C62.0068 76.4361 62.2743 76.2887 62.4927 76.066C62.7235 75.8306 63.0278 75.7706 63.1593 75.7748C63.2145 75.7766 63.2279 75.8598 63.2012 75.9461C63.1369 76.154 62.8131 76.4487 62.2486 76.9097C61.4645 77.55 60.7985 77.8834 60.5406 77.9965C60.0795 78.1986 59.7468 78.5986 59.2664 78.962C58.3657 79.6436 57.4968 80.1056 57.3098 80.3322C57.2666 80.3845 57.2867 80.4589 57.3226 80.4688C57.5686 80.5368 57.7662 80.2069 58.4401 79.8407C58.9365 79.571 59.2177 79.209 59.4349 79.0957C60.1895 78.7024 61.1858 78.057 61.5756 77.9433C61.8216 77.8715 62.0392 77.8839 62.1391 77.9154C62.2295 77.9438 61.4122 78.7031 60.18 79.7588C59.4043 80.4234 59.0109 80.713 58.8886 80.9032C58.8038 81.0351 59.7353 80.4306 60.6546 79.9302C61.0174 79.7327 61.4024 79.5271 61.7126 79.4667C61.7551 79.4584 61.7496 79.5429 61.7092 79.611C61.5057 79.9543 60.9643 80.4921 60.4133 81.0121C60.3162 81.1038 60.2273 81.1484 60.1588 81.1762C60.0902 81.2039 60.0363 81.2039 59.9861 81.1725C59.7251 81.0091 59.6912 80.6333 59.5554 80.5063C59.3462 80.3107 58.8041 80.6308 58.3502 80.8494C57.9064 81.063 57.5411 81.0592 57.5045 80.9868C57.2681 80.5192 58.9347 80.3348 59.4212 80.0892C60.032 79.7808 60.4227 79.0383 60.8229 78.5258C61.1213 78.1436 61.6724 77.3808 62.5595 76.5159C63.7026 75.4016 64.1156 75.3537 64.4333 75.1411C64.9707 74.7816 65.222 74.5645 65.8234 74.2532C66.702 73.7984 67.4258 73.2498 67.8469 73.0101C68.2007 72.8086 68.3798 72.5779 68.7357 72.3661C69.4946 71.9142 70.1931 71.5447 70.483 71.3226C70.8589 71.0347 71.5344 70.7563 72.0163 70.379C72.2494 70.1965 72.4349 70.0923 72.4805 70.0783C72.8619 69.961 71.72 70.6986 71.2312 71.0068C70.4648 71.4901 69.7536 71.9226 69.0553 72.3888C68.2917 72.8986 67.6124 73.5549 67.1187 73.9443C66.7726 74.2172 66.5944 74.4184 66.5348 74.4594C66.4048 74.5491 67.0448 74.1756 67.6635 73.7644C68.5509 73.1746 69.2411 72.7872 69.4809 72.5699C70.1748 71.941 71.2193 71.6614 71.2919 71.6656C71.8023 71.6952 70.2418 72.7842 69.3684 73.4771C68.6129 74.0764 68.1458 74.5539 68.0229 74.6631C67.951 74.7271 68.3336 74.3928 68.6952 74.1036C69.1543 73.7366 69.6567 73.3048 70.1774 72.9744C70.8812 72.5279 71.0922 72.3689 71.1695 72.3866C71.2935 72.415 70.6889 73.0536 69.9551 73.8103C69.4818 74.2983 69.2066 74.4818 69.1923 74.5005C68.6904 75.1601 70.6206 73.6112 70.6887 73.6969C70.935 74.0066 69.765 74.7321 69.3606 74.9587C69.1557 75.0735 69.7307 74.5378 70.0484 74.3379C70.2184 74.231 70.3754 74.0749 70.4709 73.9704C70.9224 73.4765 68.5916 74.7811 68.2411 74.8315C68.1198 74.8489 67.9912 74.7912 67.8779 74.6962C67.5366 74.4102 68.4522 73.6126 68.6659 73.3943C68.8921 73.1631 67.9738 73.9636 67.2766 74.5165C67.1182 74.6421 67.0486 74.7256 67.0295 74.7403C66.8799 74.8557 67.7229 74.1949 68.3918 73.5956C68.7352 73.2879 69.1946 72.9605 69.8268 72.4319C70.7433 71.6656 71.4906 71.1816 71.7396 70.9733C71.9359 70.8091 72.126 70.6733 72.2172 70.5598C72.4713 70.2434 71.3295 70.9264 71.207 70.8996C70.9503 70.8434 71.3281 70.4014 71.3918 70.2741C71.4857 70.0862 71.1028 70.6355 70.781 70.8262C70.6226 70.9201 70.6396 70.4825 70.6032 70.365C70.5617 70.2312 70.7204 70.1105 70.8289 70.02C71.0635 69.8243 71.3994 69.8479 72.1825 69.3457C72.9174 68.8744 73.4309 68.6598 74.1392 68.263C74.6309 67.9876 75.3595 67.507 75.8241 67.1857C76.4805 66.7317 76.8418 66.4373 77.2894 66.1754C78.2441 65.6168 78.5113 65.2674 79.3572 64.738C79.9052 64.395 80.46 63.9707 80.9677 63.6852C81.615 63.3212 82.4202 62.7818 83.028 62.4465C83.5272 62.1711 83.943 61.9109 84.3084 61.7245C84.4404 61.6571 84.6166 61.5476 84.7575 61.4748C84.9719 61.3642 83.8973 61.998 83.3582 62.4118C82.9273 62.7425 82.7315 62.9527 82.6768 63.0026C82.1664 63.4685 84.4538 62.1733 84.5131 62.1772C84.8882 62.2022 84.1738 62.6351 84.1281 62.6896C83.9503 62.9018 84.7703 62.4008 84.9984 62.336C85.115 62.3029 84.7817 62.5624 84.6864 62.6171C84.6659 62.6288 84.6898 62.564 84.6632 62.5408C84.5818 62.4694 84.4008 62.5717 83.9911 62.7563C83.0568 63.1774 82.1532 63.5954 81.673 63.8628C81.474 63.9736 81.3545 64.0134 80.9217 64.2745C80.4889 64.5356 79.7435 65.0116 79.2742 65.3286C78.6208 65.77 78.1083 66.1439 77.2498 66.7083C76.7305 67.0498 76.0861 67.5691 75.6945 67.8865C74.9994 68.4499 74.5795 68.7567 74.3538 68.9893C74.2807 69.0647 74.6655 68.859 75.6418 68.2338C76.4963 67.6865 78.0639 66.6476 78.8421 66.1516C79.6202 65.6555 79.5574 65.7273 78.5506 66.3615C77.5439 66.9957 75.5951 68.1901 74.4476 68.8727C73.0283 69.717 72.6537 69.8648 72.6033 69.8878C72.4875 69.9407 72.87 69.6844 73.3201 69.3556C74.3613 68.5952 75.12 68.0967 75.116 68.0736C75.0837 67.8841 74.3003 68.5651 73.3492 69.0903C72.6495 69.4767 72.0487 69.8185 71.4957 70.0135C71.0171 70.1823 70.281 70.5511 69.8823 70.7994C69.6185 70.9637 70.4464 70.2033 70.8556 69.9022C71.1925 69.6543 71.8691 69.2966 72.998 68.6247C73.3797 68.3976 74.0002 68.198 74.7477 67.8673C75.2263 67.6557 75.6349 67.4442 76.1146 67.2272C77.1185 66.7731 78.1548 66.2019 78.5663 66.0873C78.6479 66.0646 78.7557 66.0288 78.8067 66.0417C78.8577 66.0547 78.8487 66.1175 78.3726 66.5495C77.8965 66.9816 76.9536 67.7808 76.4319 68.215C75.8457 68.7029 75.6836 68.7673 75.597 68.7946C75.305 68.8869 76.334 68.3338 77.1091 67.7701C77.6843 67.3518 78.6746 66.7304 79.309 66.2986C80.2178 65.6803 80.616 65.3577 80.8112 65.2576C80.8663 65.2294 80.152 65.9499 79.1278 66.8878C78.5308 67.4345 77.9817 67.9661 77.3022 68.4738C77.0267 68.6796 76.8562 68.73 76.8852 68.6905C77.0703 68.4385 77.4777 68.2516 78.0137 67.8234C79.1459 66.9188 80.036 66.3823 80.2259 66.2918C80.3325 66.241 80.4695 66.2014 80.521 66.2097C80.7504 66.2467 79.6434 67.0749 78.9142 67.6593C78.3829 68.0851 77.9082 68.6293 77.5473 68.962C77.1907 69.2906 78.4291 68.4334 79.1128 67.9263C79.659 67.5211 80.1895 67.3438 80.331 67.3702C81.1947 67.5313 79.0501 68.6211 78.6504 68.9477C78.5602 69.0214 78.514 69.1017 78.5132 69.1298C78.5058 69.3837 79.5057 68.6516 80.0307 68.41C80.1508 68.3547 80.3237 68.306 80.4026 68.3052C80.7694 68.3014 79.458 69.1107 79.1501 69.3779C79.0151 69.4951 78.914 69.5644 79.1595 69.3948C79.9994 68.8147 80.6263 68.3327 80.5413 68.269C80.2783 68.0721 79.246 68.4938 77.8968 68.833C76.791 69.111 76.273 69.3486 76.1867 69.2536C75.9998 69.0478 76.921 68.5074 77.725 67.8C78.7153 66.9286 79.0556 66.5649 79.3871 66.3011C79.4559 66.2464 79.5008 66.2014 79.4925 66.1782C79.4095 65.947 78.8324 66.4621 78.0307 67.2722C77.7719 67.5337 77.5616 67.7141 77.4342 67.8282C77.3309 67.9206 77.9466 67.211 78.6978 66.5365C79.3707 65.9324 79.8453 65.5847 80.0669 65.3855C80.5139 64.9838 81.0775 64.5071 81.4236 64.2055C81.549 64.0964 81.7053 64.0689 81.7781 64.0776C82.0399 64.109 81.1744 64.9523 80.9352 65.4058C80.9022 65.4682 80.899 65.5548 80.9032 65.556C81.1624 65.6312 81.2146 64.8516 81.5005 64.4603C81.9047 63.907 82.3935 63.8425 82.7885 63.6973C83.0429 63.6039 83.2741 63.6787 83.5282 63.6335C83.8704 63.5727 84.1994 63.4795 84.4489 63.4927C84.7846 63.5104 85.2503 63.3619 85.6502 63.2979C85.9181 63.2549 86.15 63.2795 86.2544 63.2617C86.2959 63.2546 86.2779 63.172 86.2419 63.1172C86.0901 62.8864 85.9154 62.6734 85.8109 62.2696C85.7446 62.0132 85.5981 61.8021 85.3985 61.6745C85.2148 61.557 85.3162 61.2126 85.2215 60.9763C85.0354 60.8219 84.9085 60.6945 84.7955 60.6538C84.7363 60.6311 84.6734 60.6042 84.4726 60.522" stroke="#FF9500" stroke-linecap="round"/>
<path d="M20.3041 35.0777C20.3041 35.0867 20.3041 35.0957 20.2996 35.1362C20.2951 35.1768 20.2861 35.2486 20.2141 35.1823C19.642 34.6556 19.5971 34.054 19.4022 33.8041C19.2526 33.6122 19.1252 33.4727 19.0438 33.3955C19.0068 33.3604 18.9445 33.3812 18.9617 33.3904C19.1855 33.5094 19.4861 33.3992 19.7542 33.4855C20.0699 33.587 20.321 33.4901 20.6384 33.4859C21.0878 33.4799 21.5722 33.3638 21.8452 33.3497C22.0089 33.3412 22.163 33.3089 22.2852 33.2909C22.5405 33.2534 22.6439 32.929 22.7618 32.6749C22.9461 32.278 23.2148 31.6701 23.4328 31.2284C23.6307 30.8274 23.8592 30.2457 23.9278 29.8859C24.0194 29.405 24.041 29.1463 24.1316 28.8243C24.1874 28.6261 24.6021 28.773 25.0194 28.7915C25.3557 28.8064 25.9508 28.8905 26.4077 28.9139C26.7815 28.9331 27.2859 28.9009 27.718 28.8236C28.3043 28.7187 28.8909 28.5476 29.2699 28.3659C29.6416 28.1875 29.9081 27.2904 30.1229 26.8423C30.3079 26.4562 30.5264 26.2525 30.7621 25.8857C30.932 25.6212 31.1066 25.3098 31.3246 24.8293C31.4884 24.4682 32.0836 23.8262 32.3907 23.3317C32.5464 23.081 33.0001 22.6446 33.4784 22.4825C33.7505 22.3903 34.0723 22.4873 34.5212 22.4961C34.9975 22.5055 35.4335 22.4873 35.7549 22.4872C36.488 22.4868 36.9928 22.3697 37.3066 22.3239C37.7239 22.2629 38.1989 22.2875 38.5989 22.2379C38.981 22.1904 39.2161 22.0976 39.4477 21.957C39.8088 21.7379 40.1223 20.9383 40.5626 20.0053C40.8629 19.369 41.0584 19.0503 41.2664 18.7556C41.4771 18.4568 41.5483 18.125 41.571 17.8755C41.5978 17.5808 41.7839 17.3631 41.9242 17.1179C42.0717 16.8601 42.8235 17.0354 43.7257 16.9453C44.5673 16.8613 45.2925 16.7089 45.6866 16.6999C45.9651 16.6935 46.497 16.6544 47.2712 16.6365C47.8949 16.622 48.2511 16.5276 48.4185 16.4735C48.7795 16.3567 49.0303 15.7515 49.3846 15.0333C49.6853 14.4238 49.6758 14.1612 49.789 13.8079C50.0004 13.1481 50.0834 12.8457 50.2063 12.5961C50.3601 12.2838 50.95 12.316 50.9812 12.0055C51.1718 10.1034 51.2387 11.1124 51.6245 11.4294C51.8542 11.6183 52.6137 12.9981 52.9043 13.1389C53.1671 13.2663 53.3762 13.3518 53.5759 13.4791C53.6252 13.5104 53.6576 13.5603 53.6536 13.6014C53.634 13.8056 53.2788 13.932 52.4867 14.3714C52.091 14.5909 51.7918 14.8208 51.4102 14.9982C50.7697 15.296 50.2848 15.7373 49.5571 16.2801C48.8352 16.8186 48.5976 16.9979 48.1133 17.3742C47.8073 17.612 47.3746 18.0031 46.8844 18.4128C46.5436 18.6976 46.2025 18.8037 45.9007 19.029C45.2619 19.506 44.6345 19.8737 44.2635 20.0772C43.885 20.2847 43.1778 20.7965 42.204 21.3943C41.5089 21.8209 41.1504 22.0785 40.9422 22.1554C40.7465 22.2277 40.1027 22.6378 39.2097 23.1909C38.6004 23.5683 37.9338 24.0254 37.1559 24.5492C36.9244 24.7052 36.23 25.2222 35.1834 25.9606C34.5291 26.4223 34.1123 26.7132 33.6736 26.9572C32.7795 27.4544 32.4341 27.7922 31.5786 28.2993C30.6231 28.8657 30.0758 29.1893 29.3876 29.642C28.8137 30.0195 28.2702 30.2422 27.8365 30.4632C26.7018 31.0414 26.42 31.4116 25.6501 31.9098C25.0367 32.3068 24.7687 32.4647 24.2338 32.7453C23.8404 32.9516 23.2828 33.434 22.9312 33.6573C22.4795 33.9442 21.9309 34.2412 21.557 34.4919C21.2908 34.6705 20.8598 34.7501 20.5681 34.8597C20.5061 34.883 20.4325 34.8959 20.3821 34.8782C20.3316 34.8605 20.3046 34.8067 20.2997 34.7475C20.2579 34.242 21.3333 33.4117 21.7597 33.0687C22.3471 32.5962 20.5964 34.2221 20.4627 34.4877C20.3428 34.726 21.028 34.1536 21.6027 33.8368C22.2556 33.477 22.7968 33.0022 23.1587 32.6898C23.7587 32.1719 24.2026 31.7425 24.7921 31.1926C25.2006 30.8116 25.3831 30.3437 25.4608 30.1168C25.4815 30.0563 25.4566 29.9812 25.4116 29.9532C25.0804 29.7471 24.5417 30.3143 24.2919 30.6627C24.0092 31.0569 23.9327 31.4396 23.9145 31.5708C23.905 31.6384 23.9321 31.7109 23.9818 31.7434C24.0315 31.7759 24.1123 31.767 24.1674 31.7354C24.6466 31.4609 25.2356 30.0046 25.4516 29.4321C25.4982 29.3084 25.547 29.1823 25.5607 29.0465C25.5672 28.9827 25.5296 28.9286 25.4842 28.9054C25.4389 28.8821 25.3761 28.8911 25.2853 28.972C24.5714 29.6089 24.115 30.7933 24.0366 31.1944C24.0273 31.2422 24.1575 31.196 24.2307 31.1461C24.5465 30.9307 25.1698 30.1211 26.2061 29.365C26.3795 29.2385 26.4619 29.2274 26.5258 29.227C26.5898 29.2266 26.6437 29.2536 26.6669 29.2944C26.7779 29.4892 26.4553 29.8239 26.0975 30.2502C25.9061 30.4782 25.4866 30.9465 25.0781 31.5226C24.9478 31.7063 25.0109 31.6946 25.2227 31.5461C25.8125 31.1329 26.2989 30.7067 26.5386 30.4669C26.7701 30.2353 27.1324 30.0174 27.5173 29.7594C27.8228 29.5547 28.6063 29.0043 29.6808 28.347C30.1617 28.0527 30.4614 27.8583 30.8734 27.6186C31.2314 27.4103 31.9543 26.8632 32.9557 26.2243C33.5476 25.8468 33.8998 25.6173 34.3246 25.4052C34.9067 25.1145 35.6028 24.6031 36.3454 24.1504C36.6792 23.947 36.9084 23.7696 37.3745 23.5021C38.516 22.8468 39.2983 22.5052 39.353 22.5412C39.7159 22.7795 38.5293 23.194 37.5258 23.7428C36.6593 24.2166 35.0944 25.1357 34.1995 25.6658C33.123 26.3035 32.7696 26.5499 32.2459 26.8657C31.904 27.0719 31.4348 27.415 31.1851 27.5458C30.9354 27.6766 30.9265 27.5957 30.9712 27.4733C31.0805 27.1743 31.5039 26.7622 32.0067 26.2868C32.3803 25.9335 32.7291 25.564 33.1681 25.2021C33.9108 24.5899 34.4794 24.1402 34.9385 23.7043C35.0577 23.591 35.2049 23.4871 35.1846 23.49C34.9463 23.5235 34.6647 23.8466 34.0703 24.2929C33.6061 24.6413 32.7574 25.1613 32.2553 25.4703C31.7532 25.7793 31.1873 26.4151 31.1402 26.3981C30.7949 26.2734 32.4003 24.7242 33.1145 24.045C33.4579 23.7184 33.7457 23.3412 33.9547 23.119C34.0175 23.0523 33.9302 23.0316 33.8528 23.0449C33.7754 23.0582 33.6946 23.0941 33.2847 23.4225C32.8749 23.7508 32.1385 24.3704 31.7053 24.7615C31.2721 25.1525 31.1643 25.2962 31.1402 25.3792C31.1161 25.4622 31.179 25.4802 31.2518 25.458C31.6893 25.3247 32.3464 24.6948 33.1949 24.1583C33.8051 23.7725 34.416 23.4046 35.0171 23.1063C35.7624 22.7363 36.3133 22.5417 36.5171 22.5235C36.6039 22.5157 36.6581 22.5412 36.6679 22.5953C36.6777 22.6495 36.6418 22.7393 36.0575 23.2301C35.4732 23.7209 34.3417 24.6099 33.66 25.1263C32.7963 25.7805 32.4245 26.0144 31.9148 26.3981C31.0378 27.0583 30.3914 27.4213 30.364 27.4759C30.1338 27.9328 31.5687 26.6063 32.2985 26.1514C32.8717 25.7942 33.8366 25.1487 34.3857 24.8023C34.9347 24.4559 35.0335 24.42 35.8746 23.9884C36.7158 23.5568 38.2963 22.7306 39.2273 22.2062C40.1582 21.6818 40.3917 21.4842 41.0374 21.0681C41.683 20.652 42.7337 20.0234 43.3872 19.6232C44.2721 19.0814 44.6133 18.8592 45.0371 18.6115C46.5103 17.7503 46.8538 17.5078 47.347 17.2679C48.1639 16.8706 48.7032 16.538 49.3473 16.2156C49.6645 16.0569 49.8113 15.7488 50.2319 15.3634C50.8072 14.8363 51.1534 14.6602 51.6245 14.2657C51.9441 13.9979 52.1247 13.8795 52.2334 13.7301C52.2819 13.6634 52.3062 13.6076 52.2302 13.6383C51.5637 13.907 50.9754 14.1682 50.6927 14.1964C50.4808 14.2175 50.9806 13.6901 51.1718 13.4268C51.2411 13.3313 50.829 13.5151 50.702 13.5836C50.6259 13.6245 50.773 13.3263 50.9504 13.0857C51.0381 12.9668 50.5751 13.1524 50.5422 13.1578C50.456 13.1721 51.3123 12.3656 51.4102 12.3135C51.7162 12.1505 50.2592 13.8939 50.1157 14.2001C49.9138 14.6307 51.3219 13.9171 52.0974 13.6445C52.3539 13.5544 52.3611 13.6594 52.3342 13.7279C52.218 14.0236 51.5758 14.2488 50.8801 14.6758C50.781 14.7366 50.7648 14.669 50.7826 14.5963C50.9494 13.9166 51.6892 13.2261 51.7486 13.149C51.9782 12.8503 50.8383 13.4792 50.6516 13.4572C50.353 13.4219 51.6857 13.28 52.0746 13.3701C52.1466 13.3868 52.1609 13.514 52.1434 13.6097C52.0674 14.0272 51.5023 14.294 50.835 14.906C50.607 15.1151 50.2772 15.3286 49.6809 15.7259C49.3126 15.9714 48.8332 16.3388 48.3589 16.645C47.4566 17.2277 46.8293 17.4975 46.3601 17.7273C46.0279 17.8901 45.5317 18.1996 45.1065 18.4241C44.6813 18.6486 44.3491 18.7923 43.9085 19.0235C42.9158 19.5443 42.2841 19.9108 42.1166 19.9425C42.0391 19.9571 41.9761 19.9652 41.9886 19.9204C42.1118 19.4797 42.7707 19.1695 43.8935 18.3177C44.5431 17.8249 45.0209 17.4629 45.2525 17.304C45.5846 17.0761 44.0543 17.9952 43.3909 18.4513C42.3351 19.1771 41.6302 19.4762 41.639 19.3405C41.6628 18.9757 42.5225 18.4456 43.3871 17.7091C43.5653 17.5572 43.7313 17.4637 43.7787 17.4173C43.8106 17.386 43.294 17.5329 42.5652 17.8224C41.9209 18.0784 41.4236 18.4216 41.16 18.6441C41.0994 18.6952 41.852 18.3084 42.9998 17.6752C43.6474 17.3179 44.4889 17.006 44.955 16.8212C45.4971 16.6063 45.6479 16.6 45.7701 16.6225C45.8325 16.6339 45.8833 16.6898 45.8931 16.7533C45.9155 16.8983 45.7402 17.0618 45.0563 17.5749C44.4687 18.0158 43.3667 18.7885 42.699 19.2448C41.84 19.832 41.2258 20.1984 40.6183 20.6426C40.3441 20.8431 40.2608 20.9356 40.2242 20.9766C40.1746 21.0321 40.7194 20.6665 41.3175 20.2225C41.6765 19.956 42.2243 19.4881 42.9764 18.9171C43.6379 18.4148 43.9156 18.2605 43.9477 18.1969C43.9875 18.1178 43.4747 18.4755 42.774 18.9817C41.3596 20.0033 41.2405 20.3092 41.2174 20.4317C41.5023 20.347 41.846 20.1295 42.19 19.9665C42.3543 19.8933 42.498 19.8395 42.7549 19.7567" stroke="#FF9500" stroke-linecap="round"/>
<path d="M24.4304 37.2612C24.4623 37.1476 25.1461 36.7549 25.707 36.4675C26.1772 36.2267 26.9797 35.6252 27.8689 35.1816C28.3754 34.9289 29.1445 34.4779 29.6887 34.1245C30.1084 33.8519 30.9457 33.4456 31.8175 33.0597C32.5763 32.7239 32.9159 32.3632 33.5537 32.0198C35.1602 31.155 36.2232 30.3507 36.7914 29.8156C37.1319 29.495 37.5214 29.3474 38.2045 28.8924C39.8478 27.7978 41.2706 26.7111 42.0638 26.221C43.5326 25.3134 44.4836 24.5806 44.968 24.179C45.7716 23.5128 46.4676 23.0233 48.2397 21.5535C49.3387 20.642 50.0226 20.0739 50.4085 19.7381C50.9246 19.2891 51.5819 19.8259 52 19.5707C52.5006 19.2652 52.8403 18.3357 53.3658 18.4986C53.9135 18.6684 54.3494 19.0878 54.7343 19.5707C55.1439 20.0846 55.2018 20.7581 55.5862 21.4871C56.0404 22.3484 57.1504 23.1334 58.0416 24.613C58.9607 26.1388 59.3635 26.5921 60.148 27.7854C60.6633 28.5691 61.0166 29.2765 61.3133 29.728C61.6877 30.2979 62.0573 31.5401 62.5 32C62.9195 32.4358 62.9918 33.0158 63.3602 33.5C64.0416 34.3955 64.7042 34.4543 65.3098 35.6233C65.7824 36.5356 66.741 37.4418 67.1682 38C67.672 38.6584 67.696 40.1051 68.5 41C69.2467 41.8312 70.0817 42.3273 70.5 43C71.0455 43.8772 71.3374 44.6332 71.7322 45.257C72.2723 46.1107 73.2299 47.6884 73.5 48.0819C73.9119 48.682 74.3698 48.9353 75 50C75.4763 50.8048 75.7053 50.943 76 51.5C76.4761 52.3999 77.0822 53.4583 77.5 54C77.906 54.5263 78.4721 54.8118 78.817 55.5C79.0909 56.0467 79.5215 56.8038 79.5 57.5C79.4745 58.3242 82 59.1081 80.0255 58.0446C79.5953 57.8129 79.6241 59.031 78.817 59.7732C78.2186 60.3235 77.6205 60.7082 76.9092 61.1737C75.6667 61.9869 74.8352 62.3471 73.8631 62.9424C72.1016 64.0212 70.9262 64.7686 69.9605 65.4507C69.1796 66.0022 68.2806 66.4429 66.9487 67.5457C66.2207 68.1485 65.0116 69.0089 63.9066 69.9481C62.8514 70.8448 61.1725 71.6673 59.9509 72.3C58.8274 72.8819 57.7285 73.5048 57.3751 73.833C56.7485 74.4146 55.5813 75.0454 54.5028 76.0177C53.8341 76.6206 53.3859 76.7984 52.8703 77.2157C52.0128 77.9097 51.7146 78.2082 51.3698 78.454C51.1993 78.5755 51.0416 78.7165 50.862 78.7905C50.3445 79.0035 49.765 78.0961 49.3138 77.6456C48.8924 77.2249 48.2903 76.9163 47.8717 76.7187C47.4001 76.496 47.0279 76.1298 46.4877 75.712C46.0291 75.3573 45.2131 74.9353 44.5539 74.4501C44.1633 74.1627 43.6548 73.6897 43.2097 73.2377C42.8275 72.8495 42.4897 72.2808 41.8104 71.5511C41.1443 70.8355 40.5883 70.6567 40.0562 70.1902C39.6084 69.7976 38.8374 69.1682 38.3922 68.772C38.0518 68.469 37.4118 68.1015 36.8689 67.6991C36.4423 67.383 36.1642 67.0357 35.7382 66.5284C35.1991 65.8863 34.952 65.1855 34.6479 64.5705C34.2893 63.8451 34.2785 63.1209 34.164 62.5872C34.0588 62.097 33.8695 61.5803 33.7705 61.0634C33.6811 60.597 33.493 59.9758 32.692 58.6168C32.2883 57.932 32.5 63.5 32.2132 60.5C32.1204 59.5292 29.8367 55.3663 29.5 54.8229C29.2403 54.4038 28.6608 53.6827 28.3231 53.0434C27.9159 52.2725 27.6266 52.1396 27.4872 52.0664C27.1748 51.9022 27.3316 51.2572 27.1918 50.6669C27.0887 50.2318 26.9718 49.4414 26.8393 48.7333C26.7216 48.104 26.8224 47.3404 26.7494 46.808C26.6798 46.3007 26.2556 46.9658 26 46.4637C25.7808 46.033 25.8726 44.2602 25.7827 43.8254C25.7564 43.6984 24.5265 41.4747 24.5255 41.3589C24.519 40.595 27.456 41.9319 28.3231 41.3589C29.7496 40.4165 30.7028 40.3601 31.6103 39.9103C32.8537 39.294 33.8494 38.4764 34.3564 38.0182C34.746 37.6662 35.3393 37.3452 36.0671 36.896C36.7399 36.4806 37.9712 35.5304 39.6005 34.5236C40.8746 33.7364 41.8409 33.07 43.2121 32.0542C43.6611 31.7216 44.0097 31.527 44.5475 31.2013C45.5389 30.601 46.5467 29.7603 47.332 29.1301C48.2646 28.3816 49.0867 27.7296 49.6382 27.2506C49.9879 26.9469 50.4975 26.7592 51.0714 26.4884C51.5616 26.257 52.2003 26.7071 53.0042 27.1412C53.635 27.4817 54.3278 28.3578 54.9226 28.96C55.7896 29.8378 56.5281 30.8688 57.0359 31.295C57.9408 32.0545 58.8365 33.3906 59.3141 34.0711C59.9638 34.9971 60.5708 36.2033 61.1007 37.0464C61.5557 37.7703 62.2942 39.141 62.8529 39.6112C63.5838 40.2263 64.0983 41.0276 64.6061 41.487C65.1611 41.9891 65.979 43.0205 67.1682 44.5146C67.7637 45.263 68.3892 46.6084 69.0361 48.0819C69.5907 49.3451 69.5724 50.0893 69.7526 51.1926C69.9612 52.4703 70.7335 53.8567 71.7322 54.6272C72.5511 55.2591 73.3546 55.9714 73.7098 56.4308C73.8541 56.6175 73.768 56.8739 73.6948 57.0701C73.4168 57.8144 71.9045 58.33 70.7087 59.1081C69.9356 59.6113 69.1517 60.2643 68.3256 60.7628C67.6173 61.1902 66.9234 61.8044 65.7239 62.5464C63.9624 63.6362 62.8079 64.5587 62.4073 64.7875C61.5199 65.2944 60.2247 66.3908 59.4404 66.9096C59.3041 66.9998 59.2032 67.1301 58.3985 67.732C57.5938 68.334 56.1014 69.4208 55.1866 70.0456C53.5486 71.1643 52.6024 71.7165 51.9766 72.0965C51.475 72.401 50.7482 72.6859 50.2399 72.8016C49.7415 72.9151 49.2734 72.7213 48.6435 72.329C47.3736 71.5382 46.4282 70.0274 45.7174 69.0276C45.0451 68.0819 44.6202 67.5135 44.2095 67.0355C43.7882 66.545 43.0973 66.2994 41.9107 64.9426C40.8224 63.6984 40.5058 62.9075 40.0813 62.0981C39.2341 60.4827 38.802 60.1704 37.9115 58.7977C37.3043 57.8617 36.8357 57.3527 36.541 56.6817C35.8717 55.1578 34.7907 54.0779 34.2881 53.3472C33.3796 52.0264 33.0201 50.5917 32.6408 49.4895C32.0319 47.7198 32.148 47.015 32.2132 46.4637C32.2896 45.8173 33.3367 45.0339 34.3164 44.154C34.611 43.8894 35.1914 43.5882 35.9929 43.147C36.6899 42.7634 37.9383 41.8225 39.6003 40.8158C40.5028 40.2691 40.8474 39.9167 41.2633 39.6719C41.9033 39.2951 42.8751 38.6912 43.8487 37.9464C45.2567 36.8693 46.5324 36.0018 47.4482 35.3222C48.3553 34.6491 49.0866 34.1849 49.8326 33.6909C51.3376 32.6942 52.2661 32.9354 52.8659 33.131C53.6512 33.3872 54.1528 34.6863 54.7009 35.3824C55.2478 36.0769 55.8064 37.3231 56.9978 38.7187C57.6562 39.49 58.688 40.8713 59.2718 41.6544C59.9625 42.5809 60.3771 43.1561 61.0638 43.965C62.2383 45.3485 62.7701 45.9109 63.3602 46.4996C64.4114 47.5481 64.7039 48.0247 65.3098 48.7918C66.7931 50.6698 66.622 51.6603 67.1704 52.9205C67.7815 54.3248 67.3132 55.3638 67.0426 55.8249C66.7585 56.309 65.7608 57.3262 65.0288 58.0446C63.9837 59.0704 62.306 59.902 61.0653 60.6898C60.3181 61.1642 59.6132 61.5921 59.0253 61.9681C58.3549 62.3969 57.5009 62.7384 56.6025 63.2696C55.5752 63.877 54.6001 64.2146 53.5322 64.6219C51.7347 65.3074 50.2748 65.968 49.5792 66.1074C49.1351 66.1964 48.83 66.0354 48.5929 65.88C47.9646 65.4686 47.1449 64.0096 46.7325 63.0228C46.5546 62.5972 45.8202 61.4072 44.821 59.8514C44.3515 59.1203 44.1926 58.8098 43.9234 58.4915C43.5366 58.034 42.7871 56.9654 41.8716 55.4196C41.1063 54.1276 40.3922 53.1763 39.9754 52.3503C39.4108 51.2314 38.918 50.1817 38.7027 49.1926C38.5908 48.6787 38.8324 48.177 39.1837 47.701C40.0323 46.5507 41.1242 45.7841 42.0245 45.1949C43.4563 44.258 44.0726 43.6536 44.8114 43.1623C45.2828 42.8488 46.0699 42.1646 47.1658 41.4528C48.5868 40.53 49.2685 40.0484 49.9973 39.8832C50.7762 39.7067 51.5121 40.6314 52.7324 41.6411C53.4681 42.2498 54.2639 43.516 55.0118 44.3855C55.4309 44.8728 56.0173 45.7438 56.7788 46.6114C57.202 47.0936 58.046 48.3112 59.3232 50.0625C60.5343 51.7232 60.9031 52.5786 61.3133 53.7402C61.7281 54.9148 61.43 55.7886 61.128 56.6341C60.6695 57.9173 59.449 58.3801 58.4268 59.117C57.619 59.6992 55.8546 60.5234 54.3725 61.2472C52.1728 62.3216 50.7344 62.3805 50.0762 62.2176C49.4261 62.0567 49.1742 61.4161 48.0797 58.9417C47.6659 58.0064 46.998 56.6237 46.2127 54.8229C45.7408 53.7407 45.1767 53.0451 44.8169 52.2598C44.5418 51.6596 44.2584 50.9643 44.0618 50.2112C43.8165 49.2715 44.5996 48.0954 45.7339 46.6817C46.7146 45.4593 47.696 44.8162 48.0885 44.6441C48.2633 44.5675 48.4161 44.5856 48.5481 44.6424C49.276 44.9555 50.1986 46.3002 51.0615 47.2846C52.8677 49.3449 53.5138 50.5307 53.9392 51.2518C54.4966 52.1966 55.2991 53.2334 55.7492 53.8734C56.6942 55.2173 57.3146 55.7738 57.5373 56.2425C57.6325 56.4429 57.4975 56.726 57.3667 56.9877C57.1684 57.3847 56.5664 57.627 55.3874 57.9635C54.7486 58.1458 53.8805 57.9898 53.1979 57.6877C52.2542 57.2701 51.9122 56.2398 51.4447 55.2672C50.0962 52.4617 49.8466 51.8461 49.2653 51.1513C48.6988 50.2893 48.3385 49.9118 48.0364 49.6835C47.8641 49.5362 47.6532 49.3254 47.4359 49.1081" stroke="#BAE2F3" stroke-opacity="0.27" stroke-width="7" stroke-linecap="round"/>
<line x1="20.4188" y1="36.7269" x2="50.4188" y2="82.7269" stroke="black"/>
<line x1="54.4146" y1="13.7206" x2="85.4146" y2="59.7206" stroke="black"/>
<line x1="50.7198" y1="82.5859" x2="84.7198" y2="59.5859" stroke="black"/>
<line x1="19.7254" y1="36.5821" x2="54.7254" y2="13.5821" stroke="black"/>
<path d="M52.514 86.3823C52.838 86.4608 53.1619 86.5393 53.4859 86.6178C53.6864 85.7905 53.8869 84.9633 54.0874 84.136C54.2474 83.4755 54.4075 82.815 54.5676 82.1545L54.0695 82.5366C55.6686 82.5756 57.2678 82.6146 58.867 82.6535C59.682 82.6734 60.4971 82.6932 61.3121 82.7131L61.6264 82.7207L61.7695 82.4408C62.8452 80.3366 63.9208 78.2323 64.9965 76.128L64.5391 76.4003C66.7924 76.4552 69.0457 76.5101 71.2989 76.565L71.6499 76.5736L71.7771 76.2464C72.5348 74.2983 73.2925 72.3501 74.0501 70.402L73.572 70.7206C75.9862 70.7794 78.4004 70.8383 80.8146 70.8971L81.2332 70.9073L81.3168 70.497C81.7486 68.3771 82.1805 66.2571 82.6124 64.1372L82.1224 64.5374C83.0637 64.5374 84.0051 64.5374 84.9464 64.5374C85.7976 64.5374 86.6488 64.5374 87.5 64.5374C87.5 64.2041 87.5 63.8707 87.5 63.5374C86.6488 63.5374 85.7976 63.5374 84.9464 63.5374C84.0051 63.5374 83.0637 63.5374 82.1224 63.5374L81.714 63.5374L81.6325 63.9376C81.2006 66.0575 80.7687 68.1775 80.3369 70.2974L80.839 69.8974C78.4248 69.8386 76.0106 69.7797 73.5963 69.7209L73.2454 69.7124L73.1182 70.0395C72.3605 71.9877 71.6028 73.9358 70.8451 75.8839L71.3233 75.5653C69.07 75.5104 66.8167 75.4555 64.5635 75.4006L64.2492 75.3929L64.1061 75.6729C63.0304 77.7771 61.9548 79.8814 60.8791 81.9857L61.3365 81.7134C60.5214 81.6935 59.7064 81.6737 58.8913 81.6538C57.2922 81.6148 55.693 81.5759 54.0938 81.5369L53.6907 81.5271L53.5957 81.919C53.4356 82.5795 53.2756 83.24 53.1155 83.9005C52.915 84.7277 52.7145 85.555 52.514 86.3823Z" fill="black"/>
<path d="M21.5219 32.8537C21.8406 32.9512 22.1594 33.0488 22.4781 33.1463C22.7227 32.3467 22.9673 31.5472 23.2119 30.7476C23.4704 29.9027 23.7288 29.0578 23.9873 28.2128L23.5098 28.5666C24.8651 28.5648 26.2204 28.5631 27.5757 28.5613C28.0344 28.5607 28.4931 28.5601 28.9518 28.5595L29.2424 28.5592L29.3859 28.3064C30.5414 26.2715 31.6969 24.2366 32.8524 22.2017L32.4306 22.4547C34.6354 22.3975 36.8402 22.3403 39.045 22.2832L39.3601 22.275L39.4886 21.9873C40.325 20.1149 41.1615 18.2425 41.9979 16.3701L41.5543 16.666C43.9166 16.6047 46.2789 16.5435 48.6412 16.4822L48.9779 16.4735L49.0963 16.1582C49.9153 13.9779 50.7343 11.7977 51.5533 9.61741L50.6906 9.74862C51.344 10.5885 51.9975 11.4284 52.651 12.2684C53.1645 12.9283 53.6779 13.5882 54.1913 14.2481C54.4544 14.0434 54.7175 13.8387 54.9806 13.634C54.4672 12.9741 53.9537 12.3142 53.4403 11.6543C52.7868 10.8144 52.1333 9.97446 51.4798 9.13455L50.9312 8.42949L50.6171 9.26577C49.7981 11.446 48.9792 13.6263 48.1602 15.8066L48.6153 15.4825C46.253 15.5438 43.8907 15.6051 41.5284 15.6663L41.2134 15.6745L41.0849 15.9622C40.2484 17.8346 39.412 19.707 38.5756 21.5794L39.0191 21.2835C36.8143 21.3407 34.6095 21.3978 32.4047 21.455L32.1223 21.4623L31.9828 21.7079C30.8273 23.7428 29.6718 25.7777 28.5164 27.8126L28.9505 27.5595C28.4918 27.5601 28.0331 27.5607 27.5744 27.5613C26.2191 27.5631 24.8638 27.5648 23.5085 27.5666L23.1391 27.567L23.0311 27.9203C22.7726 28.7652 22.5141 29.6102 22.2556 30.4551C22.011 31.2546 21.7665 32.0542 21.5219 32.8537Z" fill="black"/>
<path d="M50.4 82.7L53 86" stroke="black"/>
<path d="M85 59L87.5 64.5" stroke="black"/>
<path d="M20 36L17.792 32.6387L22.5 32.6387" stroke="black"/>
<path d="M20.4188 36.7269L23.5 52L33 69.5L50.4188 82.7269" stroke="black"/>
<path opacity="0.24" d="M54.4882 14.6816L60.6627 23.3939L70.5 41L75 45" stroke="black"/>
<path d="M44.1686 69.6376C44.1844 69.7798 44.7515 70.8215 45.2881 71.5121C45.8476 72.2323 46.171 73.006 46.5757 73.4753C47.0498 74.0252 47.4416 74.7221 47.745 75.1216C47.9904 75.4448 48.2381 75.8039 48.4683 76.329C48.7167 76.8959 49.1434 77.1404 49.4144 77.5062C49.6876 77.8752 49.8598 78.2689 50.0504 78.6826C50.2316 79.0762 50.4794 79.3506 50.7015 79.5336C51.0348 79.8082 51.5121 79.5119 51.8941 79.4396C52.3179 79.3594 52.7045 79.1141 53.1183 78.971C53.578 78.812 53.9131 78.2879 54.2155 77.9622C54.6331 77.5124 55.0416 77.2863 55.4158 77.0316C55.7423 76.7769 56.0595 76.4602 56.2672 76.0703C56.2994 75.9665 56.3152 75.8564 56.3314 75.7428" stroke="white" stroke-linecap="round"/>
<path d="M56.7599 19.9734C56.8074 20.0021 57.0178 20.1545 57.1673 20.3207C57.2751 20.4406 57.3209 20.5867 57.431 20.8263C57.5065 20.9904 57.7327 21.1045 57.8699 21.3444C57.9806 21.5378 58.2165 21.7181 58.548 22.0372C58.7661 22.2471 58.8551 22.4854 59.0903 22.7951C59.2739 23.0369 59.254 23.1818 59.333 23.3449C59.4028 23.4889 59.6365 23.6656 59.9463 24.0753C60.1705 24.3718 60.2605 24.5486 60.4575 24.7548C60.6746 24.9821 60.6974 25.1818 60.8199 25.3188C60.9921 25.5115 61.1766 25.867 61.302 26.0479C61.4316 26.2347 61.5562 26.4291 61.6618 26.5779C61.786 26.7529 61.825 27.0047 61.9112 27.1464C61.9968 27.2869 62.17 27.4551 62.2662 27.6117C62.3557 27.7572 62.5059 27.9162 62.59 28.0362C62.6917 28.1813 62.7986 28.2952 62.9327 28.4938C63.1001 28.7416 63.163 28.8849 63.2854 28.9957C63.3785 29.0798 63.3984 29.2398 63.4917 29.4175C63.542 29.4847 63.5949 29.533 63.6571 29.5784C63.6908 29.6049 63.7288 29.6381 63.7679 29.6723" stroke="white" stroke-linecap="round"/>
</svg>
